<?xml version="1.0" standalone="no"?>
<!DOCTYPE svg PUBLIC "-//W3C//DTD SVG 1.1//EN" "http://www.w3.org/Graphics/SVG/1.1/DTD/svg11.dtd" >
<svg xmlns="http://www.w3.org/2000/svg" xmlns:xlink="http://www.w3.org/1999/xlink" version="1.1">
<metadata>
Created by FontForge 20170731 at Sun Aug 16 19:30:48 2015
 By Aleksey,,,
Copyright (c) 2013 by FONTYOU. All rights reserved. www.fontyou.com; Vietnamese by Viet Linh
</metadata>
<defs>
<font id="VLBoosterNextFY-Black" horiz-adv-x="696" >
  <font-face 
    font-family="VL BoosterNextFYBlack"
    font-weight="400"
    font-stretch="normal"
    units-per-em="1000"
    panose-1="2 0 10 3 0 0 0 2 0 4"
    ascent="778"
    descent="-222"
    x-height="511"
    cap-height="689"
    bbox="-250 -318 1124 1153"
    underline-thickness="50"
    underline-position="-200"
    unicode-range="U+000D-FB02"
  />
<missing-glyph horiz-adv-x="602" 
d="M305 435l-6 -1q17 29 42 47t57 18q44 0 72 -30q28 -29 28 -76q0 -32 -13 -65q-13 -34 -39 -69q-24 -33 -63 -67q-37 -32 -85 -58q-48 26 -85 58q-36 32 -63 68q-26 34 -39 69q-13 33 -13 65q0 47 28 76q28 30 72 30q32 0 57 -18t42 -47h8z" />
    <glyph glyph-name="fi" unicode="fi" horiz-adv-x="608" 
d="M386 362l-172 -5v-288q0 -32 -21 -53t-55 -21t-55 21t-21 53v384q0 119 63 180q64 62 174 62q62 0 107 -3q49 -3 69 -7q29 -6 41 -25q12 -20 12 -40q0 -36 -21 -53q-22 -17 -46 -17q-14 0 -66 2t-81 2q-26 0 -42 -3t-27 -9q-9 -5 -16 -17q-6 -11 -9 -27h250q29 0 48 -19
q20 -20 20 -51v-246q0 -18 5 -33q4 -13 17 -13q20 0 27 -19q8 -21 8 -39q0 -34 -21 -57q-21 -22 -65 -22q-27 0 -50 9t-39 30q-16 20 -25 54q-9 33 -9 81v189z" />
    <glyph glyph-name="fl" unicode="fl" horiz-adv-x="608" 
d="M538 185h-2q0 -18 5 -33q4 -13 17 -13q20 0 27 -19q8 -21 8 -39q0 -35 -21 -57t-65 -22q-25 0 -46 7q-23 7 -39 27q-16 19 -27 53q-10 31 -10 87v379l-39 3q-26 2 -37 2q-45 0 -65 -12t-24 -46h70q29 0 48 -19q20 -20 20 -51q0 -32 -19 -51t-48 -19h-73v-288
q0 -32 -21 -53t-55 -21t-55 21t-21 53v384q0 118 63 180q64 62 176 62q90 0 131 -4q48 -5 72 -19q18 -10 24 -26q6 -15 6 -35v-431z" />
    <glyph glyph-name=".notdef" horiz-adv-x="602" 
d="M305 435l-6 -1q17 29 42 47t57 18q44 0 72 -30q28 -29 28 -76q0 -32 -13 -65q-13 -34 -39 -69q-24 -33 -63 -67q-37 -32 -85 -58q-48 26 -85 58q-36 32 -63 68q-26 34 -39 69q-13 33 -13 65q0 47 28 76q28 30 72 30q32 0 57 -18t42 -47h8z" />
    <glyph glyph-name=".null" horiz-adv-x="0" 
 />
    <glyph glyph-name=".null" horiz-adv-x="0" 
 />
    <glyph glyph-name="nonmarkingreturn" unicode="&#xd;" horiz-adv-x="0" 
 />
    <glyph glyph-name="space" unicode=" " horiz-adv-x="205" 
 />
    <glyph glyph-name="exclam" unicode="!" horiz-adv-x="325" 
d="M84 615l-1 -3q-2 35 16 60q18 26 62 26t62 -24t18 -61l-10 -327q0 -29 -18 -50t-51 -21q-34 0 -50 21t-18 50zM161 170q37 0 62 -24q26 -24 26 -64q0 -41 -26 -64q-25 -22 -62 -22q-39 0 -62 22q-24 22 -24 64q0 40 24 64t62 24z" />
    <glyph glyph-name="quotedbl" unicode="&#x22;" horiz-adv-x="430" 
d="M76 660l-1 -2q-2 32 17 47q18 15 41 15q26 0 44 -15t16 -47l-12 -150q-2 -20 -15 -32q-14 -12 -33 -12t-31 13q-13 14 -14 33zM235 658l-1 -2q-2 32 17 47q18 15 41 15q26 0 44 -15t16 -47l-12 -150q-2 -20 -15 -32t-33 -12q-19 0 -31 13q-13 14 -14 33z" />
    <glyph glyph-name="numbersign" unicode="#" horiz-adv-x="732" 
d="M102 169l-21 -10q-25 0 -40 15t-15 39q0 25 15 41q15 17 40 17h65l56 127h-24q-25 0 -40 15t-15 39t15 41t40 17h72l69 157q7 18 23 27q14 8 27 10q22 1 40 -12q17 -13 19 -41q0 -7 -1 -12q-2 -8 -4 -13l-50 -114h129l69 157q7 18 23 27q14 8 27 10q22 1 40 -12
q17 -13 19 -41q0 -7 -1 -12q-2 -8 -4 -13l-50 -114h18q24 0 39 -15t15 -39t-15 -40t-39 -16h-66l-55 -127h24q24 0 39 -15t15 -39q0 -23 -15 -40q-15 -16 -39 -16h-73l-61 -142q-7 -18 -23 -28q-14 -8 -29 -10q-22 -1 -39 14q-16 15 -18 41q0 7 1 12q2 10 4 14l43 100h-127
l-62 -143q-7 -18 -23 -28q-14 -8 -29 -10q-22 -1 -39 14q-16 15 -18 41q0 7 1 12q2 10 4 14zM270 270h128l55 127h-128z" />
    <glyph glyph-name="dollar" unicode="$" horiz-adv-x="628" 
d="M232 -5l-8 1q-50 6 -87 21q-35 14 -64 38q-15 13 -30 33t-15 42q0 23 9 38t21 24t24 12t20 3q16 0 30 -6t27 -15q30 -21 65 -34q33 -12 80 -12q20 0 38 3q19 3 32 9q14 6 23 17t9 27q0 15 -7 26t-27 22q-20 10 -51 21q-34 11 -79 24q-41 11 -82 29q-35 16 -64 41
q-27 24 -40 58q-14 36 -14 81q0 38 14 71q14 32 38 56q25 25 57 41q33 16 72 24v39q0 35 23 56q22 21 56 21t56 -21q23 -21 23 -56v-35q28 -4 58 -14t53 -25q29 -17 41 -39t12 -44t-7 -36q-8 -15 -18 -24q-10 -8 -24 -13q-12 -4 -24 -4q-22 0 -35 6q-9 4 -29 14
q-30 16 -45 23q-24 11 -66 11q-50 0 -69 -16t-19 -33q0 -14 7 -24q8 -11 25 -21t47 -21q22 -8 74 -22q40 -10 78 -24q37 -13 68 -38q30 -24 48 -60t18 -88q0 -72 -47 -128t-141 -75v-39q0 -35 -22 -56t-55 -21t-55 21t-22 56v35z" />
    <glyph glyph-name="percent" unicode="%" horiz-adv-x="800" 
d="M27 521l-1 1q0 85 44 132t113 47t111 -46q42 -47 42 -132q0 -89 -43 -136q-43 -48 -111 -48t-112 47q-43 46 -43 135zM586 669l-2 -2q10 13 23 18q11 4 23 4q21 0 36 -15t15 -38q0 -11 -4 -18q-6 -10 -10 -15l-468 -589q-11 -14 -22 -18t-21 -4q-26 0 -40 17
q-13 16 -13 35q0 14 4 21q6 10 10 15zM180 602l-1 -1q-22 0 -37 -18t-15 -63t15 -66t36 -21t36 21t15 66q0 42 -14 62t-35 20zM457 170l-1 1q0 85 44 132t113 47t111 -46t42 -132q0 -89 -43 -136q-43 -48 -111 -48t-112 47q-43 46 -43 135zM612 253l-1 -1q-22 0 -37 -18
t-15 -63t15 -66t36 -21t36 21t15 66q0 42 -14 62t-35 20z" />
    <glyph glyph-name="ampersand" unicode="&#x26;" horiz-adv-x="663" 
d="M466 93l-4 -2q-34 -30 -65 -51q-29 -20 -55 -30q-27 -11 -52 -15q-23 -4 -54 -4q-40 0 -75 15t-60 39t-39 56q-14 33 -14 68q0 33 11 63q10 28 29 53q18 24 42 45q22 19 50 39l-11 11q-31 28 -48 68t-17 81q0 40 15 73q15 32 41 57q25 23 60 37q33 13 75 13q36 0 69 -12
q35 -13 59 -34q27 -24 41 -55q15 -33 15 -75q0 -53 -31 -93q-32 -40 -75 -75l97 -91l35 31q13 12 23 15q9 3 23 3q28 0 48 -20t20 -44q0 -16 -9 -31t-25 -28l-20 -18l67 -64q26 -24 26 -52q0 -11 -5 -24q-4 -11 -14 -21q-9 -9 -21 -15t-25 -6q-14 0 -29 6q-13 5 -31 23z
M261 126l-1 -2q26 0 48 13t54 42l5 5l-105 100q-27 -21 -46 -45q-18 -23 -18 -48q0 -27 18 -46t45 -19zM239 515v-2q0 -17 9 -29t22 -25l19 -19q27 19 41 36q15 18 15 38q0 22 -14 36t-39 14q-24 0 -38 -13q-15 -13 -15 -36z" />
    <glyph glyph-name="quotesingle" unicode="'" horiz-adv-x="270" 
d="M76 660l-1 -2q-2 32 17 47q18 15 41 15q26 0 44 -15t16 -47l-12 -150q-2 -20 -15 -32q-14 -12 -33 -12t-31 13q-13 14 -14 33z" />
    <glyph glyph-name="parenleft" unicode="(" horiz-adv-x="340" 
d="M50 280l-2 -4q0 79 20 154t45 131t50 95q23 36 32 45q16 15 26 20q12 5 30 5q15 0 29 -6t24 -16q12 -12 17 -22q6 -12 6 -22q0 -11 -6 -26q-5 -13 -23 -42q-4 -6 -28 -48q-16 -27 -31 -67q-14 -37 -25 -88q-10 -47 -10 -111t10 -111q11 -51 25 -88q15 -40 31 -67
q9 -15 29 -48q18 -29 23 -42q6 -15 6 -26q0 -10 -6 -22q-5 -10 -17 -22q-10 -10 -24 -16q-13 -6 -28 -6q-18 0 -30 5q-10 5 -26 20q-9 9 -32 45q-25 39 -50 95t-45 131t-20 154z" />
    <glyph glyph-name="parenright" unicode=")" horiz-adv-x="340" 
d="M290 280l-2 -2q0 -79 -20 -154q-19 -72 -45 -130q-25 -56 -50 -95q-23 -36 -32 -45q-15 -16 -26 -20q-12 -5 -30 -5q-15 0 -29 6t-24 16t-16 22t-6 23t6 26q5 13 23 42q20 33 29 48q16 27 31 67q14 35 25 89q10 47 10 111t-10 111q-11 54 -25 89q-15 40 -31 67
q-24 42 -28 48q-18 29 -23 42q-6 15 -6 26t6 23q5 10 17 22q10 10 24 16t29 6q18 0 30 -5q11 -4 26 -20q9 -9 32 -45q25 -39 50 -95q26 -58 45 -130q20 -75 20 -154z" />
    <glyph glyph-name="asterisk" unicode="*" horiz-adv-x="477" 
d="M316 608h5q17 14 36 14q17 0 30 -10q14 -11 20 -30q4 -15 3 -28q-2 -14 -10 -24q-9 -10 -22 -16t-33 -4l-65 5l57 -37q29 -20 29 -48q0 -25 -24 -43q-16 -13 -36 -13q-17 0 -32 12q-16 12 -20 36l-15 65l-13 -62q-4 -24 -20 -37q-15 -12 -33 -12q-17 0 -33 11
q-14 9 -20 21t-6 24q0 13 7 24q7 12 22 22l59 39l-62 -3q-17 -1 -32 5q-13 6 -22 16q-9 11 -12 24q-3 12 2 28q13 43 48 43q8 0 17 -3t17 -11l57 -49l-26 68q-12 31 3 52t47 21q31 0 48 -21q16 -20 4 -52l-27 -70z" />
    <glyph glyph-name="plus" unicode="+" horiz-adv-x="628" 
d="M472 370v1q24 0 39 -16t15 -40t-15 -39t-39 -15h-103v-103q0 -24 -15 -39t-39 -15t-39 15t-15 39v104h-103q-24 0 -39 15t-15 39t15 39t39 15h104v104q0 24 15 39t39 15t39 -15t15 -39v-104h102z" />
    <glyph glyph-name="comma" unicode="," horiz-adv-x="325" 
d="M252 58l-4 -1q0 -57 -15 -96q-15 -38 -38 -63t-48 -35q-27 -11 -48 -11t-31 9t-10 23q0 23 26 34q39 13 54 35q15 21 15 45q-24 4 -40 14q-14 8 -24 20q-9 10 -12 24t-3 25q0 45 26 68t60 23q42 0 67 -30q25 -29 25 -84z" />
    <glyph glyph-name="hyphen" unicode="-" horiz-adv-x="434" 
d="M314 322l-2 -2q30 0 47 -16q18 -16 18 -48t-18 -48q-17 -16 -46 -16h-194q-27 0 -46 17q-18 17 -18 48t18 48q19 17 47 17h194z" />
    <glyph glyph-name="period" unicode="." horiz-adv-x="325" 
d="M162 172h-2q37 0 62 -22q26 -23 26 -63q0 -45 -26 -66t-62 -21q-38 0 -62 21t-24 63q0 40 24 64t64 24z" />
    <glyph glyph-name="slash" unicode="/" horiz-adv-x="421" 
d="M265 629h-1q13 28 32 45q17 16 42 16q32 0 54 -19q23 -20 23 -51q0 -10 -5 -27q-4 -15 -9 -24l-244 -507q-17 -34 -36 -48q-19 -13 -45 -13t-49 18q-22 18 -22 50q0 22 13 49z" />
    <glyph glyph-name="zero" unicode="0" horiz-adv-x="636" 
d="M318 700l-2 -2q128 0 198 -91q71 -92 71 -259q0 -177 -67 -268t-201 -91t-201 91t-67 268q0 168 71 260t198 92zM316 550l-2 -1q-54 0 -84 -53q-30 -52 -30 -150q0 -102 29 -157q29 -54 86 -54t86 54q29 55 29 158q0 97 -30 150t-84 53z" />
    <glyph glyph-name="one" unicode="1" horiz-adv-x="443" 
d="M353 74h-3q0 -31 -21 -52t-54 -21q-31 0 -54 20q-22 19 -22 54v381l-53 -44q-7 -6 -23 -13q-13 -6 -27 -6q-30 0 -51 21t-21 53q0 19 9 34q8 14 20 24l168 144q16 13 32 18q13 4 24 4q34 0 55 -21t21 -54v-542z" />
    <glyph glyph-name="two" unicode="2" horiz-adv-x="560" 
d="M252 339l-1 -10q25 29 42 51q18 24 27 40q10 18 15 33q5 17 5 29q0 26 -18 44t-55 18q-35 0 -54 -12q-20 -12 -33 -31q-28 -45 -71 -43q-30 2 -50 19q-21 18 -21 56q0 28 17 57q16 28 47 51t72 38q42 15 95 15q48 0 92 -14q43 -14 72 -40q31 -28 47 -64q17 -39 17 -85
q0 -32 -7 -57q-8 -28 -22 -52q-17 -29 -37 -53q-23 -27 -51 -60l-116 -129h180q32 0 54 -20q21 -20 21 -51t-21 -51q-22 -20 -54 -20h-326q-10 0 -24 3q-13 3 -25 12q-13 9 -21 22q-9 13 -9 35q0 16 8 35t18 29z" />
    <glyph glyph-name="three" unicode="3" horiz-adv-x="568" 
d="M270 428l-6 -5q35 0 51 19t16 42q0 22 -21 42q-22 20 -64 20q-30 0 -51 -7q-23 -8 -43 -22q-19 -14 -43 -14q-25 0 -46 18t-21 47q0 36 38 68q6 6 23 18q13 9 38 19q23 9 51 15t63 6q53 0 96 -15q45 -15 75 -40q32 -26 48 -58q17 -34 17 -68q0 -47 -24 -87t-72 -60
q31 -8 54 -24q24 -18 38 -37q14 -20 22 -46q7 -24 7 -49q0 -50 -19 -91q-19 -42 -54 -72q-34 -29 -81 -46q-45 -16 -102 -16q-62 0 -108 15q-48 16 -86 46q-36 30 -36 66q0 29 22 50t52 21q21 0 37 -11q27 -20 53 -28q22 -7 62 -7q48 0 78 21t30 56t-22 54t-66 19h-51
q-30 0 -55 20q-24 19 -24 51q0 34 26 52t60 18h38z" />
    <glyph glyph-name="four" unicode="4" horiz-adv-x="588" 
d="M492 253l-1 -4q31 0 54 -18q22 -18 22 -52t-22 -52q-23 -18 -54 -18h-19v-36q0 -35 -21 -54q-22 -20 -54 -20q-31 0 -53 20q-21 19 -21 54v36h-227q-32 0 -54 18t-22 53q0 12 4 24q5 15 13 27l289 414q16 23 33 34q16 10 37 10q32 0 55 -20q22 -19 22 -54v-362h19z
M322 249v176l-122 -176h122z" />
    <glyph glyph-name="five" unicode="5" horiz-adv-x="584" 
d="M221 444l-7 -5q20 17 48 26t66 9q47 0 85 -16t67 -48q28 -32 45 -75q16 -42 16 -96q0 -57 -19 -102q-19 -46 -53 -81q-33 -34 -78 -54q-44 -19 -96 -19q-53 0 -98 14q-46 14 -74 34q-32 22 -47 46q-16 25 -16 48q0 30 19 50q19 21 48 21q15 0 27 -4q14 -4 30 -18
q34 -28 62 -36q25 -7 53 -7q21 0 38 7q19 8 32 21q14 14 23 32t9 41q0 43 -29 74q-28 30 -69 30q-39 0 -57 -12q-20 -13 -33 -25q-17 -14 -25 -20q-16 -12 -45 -12q-31 0 -51 20q-20 19 -18 60l13 275q1 30 20 52q18 21 53 21h274q29 0 51 -19t22 -51t-22 -51t-51 -19h-207z
" />
    <glyph glyph-name="six" unicode="6" horiz-adv-x="605" 
d="M217 426l-2 -5q21 25 54 39q32 13 74 13q47 0 86 -18q40 -18 66 -49q27 -32 42 -75t15 -94q0 -54 -20 -102q-20 -47 -54 -80q-35 -33 -79 -51q-45 -18 -96 -18q-61 0 -110 23q-47 22 -79 62q-32 39 -48 93q-17 56 -17 117q0 93 29 171q28 76 80 131q51 54 119 84
q67 30 147 30q18 0 36 -3q20 -3 32 -10q14 -8 23 -21t9 -36q0 -14 -3 -26q-3 -11 -12 -22q-9 -10 -25 -16t-42 -6q-91 -1 -145 -33t-80 -98zM305 129v-1q42 0 69 29t27 74q0 43 -27 72t-69 29t-70 -28t-28 -72q0 -46 28 -74q29 -29 70 -29z" />
    <glyph glyph-name="seven" unicode="7" horiz-adv-x="498" 
d="M407 690l-2 -1q14 0 29 -3q16 -3 27 -10t19 -20t8 -31q0 -16 -4 -27q-1 -4 -3.5 -11t-3.5 -9l-260 -538q-11 -20 -28 -30t-38 -10q-27 0 -50 18t-23 53q0 3 2 15q2 10 6 20l211 447h-203q-32 0 -53 18t-21 50q0 33 21 51t53 18h313z" />
    <glyph glyph-name="eight" unicode="8" horiz-adv-x="587" 
d="M424 370q50 -22 84 -66q34 -43 34 -102q0 -47 -18 -86q-18 -38 -51 -67q-34 -30 -79 -44q-46 -15 -102 -15q-54 0 -99 15q-44 15 -78 44q-33 28 -51 68q-18 39 -18 86q0 29 11 57q11 27 27 48q16 20 38 36t44 23q-44 31 -64 66q-19 34 -19 75q0 42 15 77q15 34 44 60
q28 25 68 39t86 14q45 0 85 -14t68 -39q29 -26 44 -60q15 -35 15 -77q0 -46 -24 -81t-60 -57zM294 555v-1q-28 0 -44 -16q-17 -17 -17 -45q0 -24 17 -43q17 -18 44 -18q26 0 42 18q17 19 17 44q0 28 -17 45q-16 16 -42 16zM293 130l-1 -1q40 0 66 26t26 66q0 41 -25 66
t-66 25t-66 -25t-25 -66t25 -66t66 -25z" />
    <glyph glyph-name="nine" unicode="9" horiz-adv-x="605" 
d="M388 264l-2 -3q-21 -26 -52 -39q-30 -13 -66 -13q-46 0 -87 18q-40 18 -70 49q-29 30 -46 77q-16 44 -16 99q0 51 20 97q19 45 54 78q33 32 80 52q44 19 96 19q60 0 109 -23q48 -23 80 -62t48 -93q17 -56 17 -117q0 -93 -29 -171q-29 -77 -79 -130q-51 -54 -118 -84
t-147 -30q-18 0 -36 3q-16 3 -31 11q-14 8 -23 21t-9 36q0 13 3 27t12 24q10 11 25 17q17 6 42 6q91 1 145 33t80 98zM296 553v-1q-42 0 -69 -29t-27 -74q0 -43 27 -72q27 -28 69 -28q41 0 70 29q28 28 28 72q0 46 -28 74q-29 29 -70 29z" />
    <glyph glyph-name="colon" unicode=":" horiz-adv-x="325" 
d="M162 172h-2q37 0 62 -22q26 -23 26 -63q0 -45 -26 -66t-62 -21q-38 0 -62 21t-24 63q0 40 24 64t64 24zM160 497h-2q37 0 62 -22q26 -23 26 -63q0 -45 -26 -66t-62 -21q-38 0 -62 21t-24 63q0 40 24 64t64 24z" />
    <glyph glyph-name="semicolon" unicode=";" horiz-adv-x="325" 
d="M252 58l-4 -1q0 -57 -15 -96q-15 -38 -38 -63t-48 -35q-27 -11 -48 -11t-31 9t-10 23q0 23 26 34q39 13 54 35q15 21 15 45q-24 4 -40 14q-14 8 -24 20q-9 10 -12 24t-3 25q0 45 26 68t60 23q42 0 67 -30q25 -29 25 -84zM158 496h-2q37 0 62 -22q26 -23 26 -63
q0 -45 -26 -66t-62 -21q-38 0 -62 21t-24 63q0 40 24 64t64 24z" />
    <glyph glyph-name="less" unicode="&#x3c;" horiz-adv-x="628" 
d="M156 271l-2 -3q-14 8 -23 20t-9 32t9 32q9 11 23 21l239 135q12 7 22 10q9 3 20 3q24 0 39 -15t15 -41q0 -18 -11 -31t-30 -23l-171 -89l171 -88q20 -11 30 -22q11 -13 11 -31q0 -19 -14 -38q-13 -18 -36 -18q-13 0 -22 3q-10 3 -22 10z" />
    <glyph glyph-name="equal" unicode="=" horiz-adv-x="628" 
d="M472 462q24 0 39 -15t15 -39t-15 -39t-39 -15h-316q-24 0 -39 15t-15 39t15 39t39 15h316zM472 282q24 0 39 -15t15 -39t-15 -39t-39 -15h-316q-24 0 -39 15t-15 39t15 39t39 15h316z" />
    <glyph glyph-name="greater" unicode="&#x3e;" horiz-adv-x="628" 
d="M233 138l-2 -1q-12 -7 -22 -10q-9 -3 -22 -3q-23 0 -36 18q-14 19 -14 38t11 32t30 23l171 88l-171 89q-19 10 -30 23t-11 32q0 26 15 41t39 15q11 0 20 -3q10 -3 22 -10l239 -135q15 -10 23 -21q9 -12 9 -31q0 -20 -9 -32t-23 -20z" />
    <glyph glyph-name="question" unicode="?" horiz-adv-x="568" 
d="M181 356l-2 -6q0 31 20 51q19 19 45 27q52 14 72 28q21 15 21 40q0 23 -15 38t-50 15q-22 0 -42 -12q-20 -13 -36 -31q-14 -18 -27 -27t-39 -9q-34 0 -52 21t-18 51q0 32 12 51q13 21 22 30q29 32 74 53t114 21q47 0 86 -12q40 -12 68 -36t45 -60q17 -37 17 -86
q0 -73 -44 -117q-43 -42 -125 -70v-31q0 -32 -19 -51t-54 -19q-34 0 -54 20q-19 19 -19 51v70zM254 167q37 0 62 -24q26 -24 26 -64q0 -41 -26 -64q-25 -22 -62 -22q-39 0 -62 22q-24 23 -24 64q0 40 24 64t62 24z" />
    <glyph glyph-name="at" unicode="@" horiz-adv-x="844" 
d="M597 183l-7 -4q0 -20 9 -26t20 -6q15 0 32 23t17 72q0 52 -12 99t-39 81q-27 35 -73 54q-48 20 -114 20q-69 0 -120 -24q-52 -24 -84 -61q-33 -37 -48 -87t-15 -102q0 -51 15 -99t45 -84q29 -35 80 -58q48 -22 118 -22q20 0 41 3q24 3 41 10q21 8 31 8q26 0 39 -18
q13 -17 13 -40q0 -17 -7 -31q-7 -15 -24 -24q-18 -10 -54 -19q-35 -9 -86 -9q-95 0 -166 33t-117 87t-69 122q-22 66 -22 137q0 79 24 151q24 71 72 127q47 54 122 88q73 33 171 33q79 0 148 -26q68 -26 116 -72q48 -47 75 -112q27 -66 27 -145q0 -59 -16 -103
q-16 -45 -42 -75t-60 -45t-70 -15q-28 0 -46 7q-20 7 -33 18t-21 24t-12 27q-16 -40 -45 -57t-63 -17q-39 0 -69 15t-51 42t-33 65t-12 79q0 52 16 88q17 37 40 61q24 24 52 36q29 12 51 12q38 0 61 -15q21 -14 34 -41v4q0 20 16 33q17 14 42 14q26 0 44 -12t18 -36v-188z
M412 146l-1 -1q26 0 42 19t16 54q0 34 -15 54t-42 20q-30 0 -46 -19t-16 -54t18 -54t44 -19z" />
    <glyph glyph-name="A" unicode="A" 
d="M477 139l-264 -2l-35 -91q-10 -27 -28 -37q-17 -10 -43 -10q-36 0 -56 19q-21 20 -21 51q0 11 2 23q2 10 6 17l222 517q14 31 34 47q22 17 54 17t54 -17q21 -17 35 -47l222 -517q7 -13 7 -32q0 -35 -24 -56t-58 -21q-28 0 -45 12t-26 35zM263 265h163l-82 209z" />
    <glyph glyph-name="B" unicode="B" horiz-adv-x="648" 
d="M338 690l-5 3q119 0 177 -48t58 -129q0 -42 -18 -79t-54 -57q32 -15 51 -33q21 -19 32 -39q13 -22 17 -45q5 -27 5 -49q0 -100 -65 -157q-64 -57 -182 -57h-208q-38 0 -58 18q-19 18 -19 60v535q0 35 21 56t58 21h190zM341 422h1q30 0 48 19t18 51q0 33 -21 48t-57 15
h-109v-133h120zM353 141q42 0 64 22t22 57q0 74 -89 74h-128v-153h131z" />
    <glyph glyph-name="C" unicode="C" horiz-adv-x="687" 
d="M521 470l-8 -6q-12 13 -33 34q-13 13 -32 25q-16 11 -36 15q-22 5 -46 5q-77 0 -122 -55q-45 -56 -45 -153q0 -92 47 -145q46 -52 134 -52q23 0 45 5q18 4 36 14q16 9 32 23q20 18 32 30q10 10 23 15q11 4 26 4q16 0 27 -7q12 -8 21 -18q10 -12 14 -22q5 -13 5 -23
q0 -13 -5 -31q-4 -16 -18 -33q-12 -15 -38 -37q-23 -20 -53 -35q-32 -16 -69 -26t-87 -10q-75 0 -134 25t-103 72q-43 46 -67 111t-24 144t24 145q25 68 67 113q44 47 104 74t134 27q60 0 105 -15q44 -15 77 -35t51 -40q21 -23 27 -31q8 -15 11 -27q3 -14 3 -27
q0 -20 -7 -33q-8 -14 -18 -23q-10 -8 -24 -13q-12 -4 -24 -4q-15 0 -27 4q-14 4 -25 16z" />
    <glyph glyph-name="D" unicode="D" horiz-adv-x="702" 
d="M342 690l2 1q70 0 129 -24t99 -69t63 -108q23 -64 23 -142t-24 -142t-66 -109t-100 -70q-57 -25 -126 -25h-194q-42 0 -60 21t-18 56v534q0 36 19 56q19 21 60 21h193zM333 139v-1q83 0 125 54t42 155t-43 153q-44 53 -129 53h-100v-414h105z" />
    <glyph glyph-name="E" unicode="E" horiz-adv-x="606" 
d="M504 138l-4 -4q34 0 54 -18q19 -18 19 -50t-19 -50q-20 -18 -54 -18h-356q-38 0 -57 21q-20 22 -20 56v534q0 35 21 56t59 21h354q35 0 54 -18q20 -18 20 -50t-19 -50q-20 -18 -54 -18h-277v-134h167q35 0 56 -18t21 -50t-21 -50t-55 -18h-167v-142h278z" />
    <glyph glyph-name="F" unicode="F" horiz-adv-x="586" 
d="M489 690l-2 -3q35 0 54 -18t19 -50t-19 -50t-54 -18h-263v-156h162q34 0 54 -18q19 -18 19 -50t-19 -50q-20 -18 -54 -18h-162v-180q0 -34 -20 -56q-20 -21 -57 -21t-57 21q-20 22 -20 56v537q0 35 22 54q23 20 57 20h340z" />
    <glyph glyph-name="G" unicode="G" horiz-adv-x="730" 
d="M591 383l-2 -4q55 0 75 -26t20 -69q0 -62 -21 -116t-61 -94t-99 -63q-60 -23 -132 -23t-131 25q-61 26 -104 72q-44 47 -69 111q-25 63 -25 144t26 148q25 66 71 113q45 47 106 72q63 26 132 26q71 0 123 -18t107 -65q27 -22 36 -44q9 -21 9 -41q1 -34 -20 -54
q-22 -20 -49 -20q-16 0 -35 8q-18 7 -33 24q-22 24 -54 43q-32 18 -79 18q-86 0 -132 -55t-46 -153q0 -45 14 -84q13 -37 38 -63q24 -25 57 -39q34 -14 71 -14q62 0 99 26q36 25 42 77h-100q-35 0 -56 18t-21 50q0 31 21 51q20 19 56 19h166z" />
    <glyph glyph-name="H" unicode="H" horiz-adv-x="707" 
d="M481 612q0 35 21 56t56 21t56 -21t21 -56v-534q0 -35 -21 -56t-56 -21t-56 21t-21 56v208h-255v-208q0 -35 -21 -56t-56 -21t-56 21t-21 56v534q0 35 21 56t56 21t56 -21t21 -56v-188h255v188z" />
    <glyph glyph-name="I" unicode="I" horiz-adv-x="296" 
d="M70 612q0 35 21 56t56 21t56 -21t21 -56v-534q0 -35 -21 -56t-56 -21t-56 21t-21 56v534z" />
    <glyph glyph-name="J" unicode="J" horiz-adv-x="613" 
d="M392 613l-1 -4q0 35 21 56t56 21t56 -21t21 -56v-359q0 -69 -22 -117q-22 -49 -59 -81t-84 -47q-48 -15 -97 -15q-46 0 -85 11q-36 10 -66 29q-28 18 -48 42q-20 25 -35 50q-13 24 -17 42q-5 22 -5 30q0 21 9 36t21 24q13 10 27 14q13 4 27 4q24 0 38 -13q16 -14 29 -39
q20 -42 45 -60t63 -18q17 0 39 5q19 4 34 18t24 34q9 21 9 53v361z" />
    <glyph glyph-name="K" unicode="K" horiz-adv-x="638" 
d="M575 144l-2 -2q21 -24 26 -37q6 -15 6 -28q0 -18 -8 -34q-7 -15 -19 -25q-12 -11 -25 -15q-12 -4 -24 -4q-38 0 -62 27l-201 229l-42 -47v-128q0 -34 -21 -57t-56 -23t-56 23t-21 57v528q0 34 21 57t56 23t56 -23t21 -57v-196l220 247q14 13 27 21q14 8 36 8q32 0 53 -21
t21 -47q0 -14 -3 -27q-3 -12 -17 -28l-180 -200z" />
    <glyph glyph-name="L" unicode="L" horiz-adv-x="564" 
d="M149 0l1 -1q-37 0 -58 21t-21 56v534q0 35 21 56t56 21t56 -21t21 -56v-474h241q35 0 56 -18t21 -50t-21 -50t-55 -18h-318z" />
    <glyph glyph-name="M" unicode="M" horiz-adv-x="851" 
d="M609 618l1 -3q21 41 43 57t45 16q34 0 60 -21q25 -21 25 -66v-527q0 -34 -22 -55q-23 -21 -57 -21t-57 21q-22 21 -22 55v307l-132 -249q-13 -25 -29 -40q-14 -13 -41 -13q-41 0 -70 54l-126 243v-302q0 -34 -22 -55q-23 -21 -57 -21t-57 21q-22 21 -22 55v527
q0 43 25 65q26 23 63 23q28 0 50 -17q20 -16 40 -54l179 -327z" />
    <glyph glyph-name="N" unicode="N" 
d="M470 614l-5 -3q0 35 23 56q22 21 56 21t56 -21q23 -21 23 -55v-538q0 -31 -20 -54q-19 -22 -54 -22q-21 0 -39 8q-16 7 -31 27l-255 334v-293q0 -34 -22 -55t-55 -21t-55 21t-22 56v529q0 19 4 32q4 14 14 27q8 11 24 19q14 7 36 7q20 0 35 -7q17 -8 30 -27l257 -360v319
z" />
    <glyph glyph-name="O" unicode="O" horiz-adv-x="752" 
d="M376 700q75 0 135 -25q61 -25 105 -72q45 -48 68 -112q24 -66 24 -147t-24 -147q-23 -64 -68 -112q-44 -47 -105 -72q-60 -25 -135 -25t-134 25q-61 26 -104 72q-45 48 -68 112q-24 66 -24 147t24 147q23 64 68 112q43 46 104 72q59 25 134 25zM376 548q-76 0 -123 -54
q-47 -55 -47 -149t47 -149q47 -54 123 -54t123 54q47 55 47 149t-47 149q-47 54 -123 54z" />
    <glyph glyph-name="P" unicode="P" horiz-adv-x="637" 
d="M331 690l-2 -1q61 0 111 -18q51 -19 86 -49t55 -77q20 -46 20 -101q0 -57 -20 -105q-19 -46 -56 -78q-36 -31 -87 -48q-53 -17 -112 -17h-101v-117q0 -35 -21 -56t-56 -21t-56 21t-21 56v534q0 35 21 56t56 21h183zM325 332v2q53 0 84 29q30 29 30 81q0 53 -30 80t-86 27
h-99v-219h101z" />
    <glyph glyph-name="Q" unicode="Q" horiz-adv-x="752" 
d="M376 700l-1 -2q75 0 135 -25q62 -25 105 -72q45 -48 68 -112q24 -66 24 -147q0 -69 -16 -123q-17 -56 -46 -100q3 -1 7 -1h7q5 0 15 2t21 2q30 0 42 -18t12 -38q0 -21 -9 -36q-9 -16 -22 -24q-12 -8 -32 -13q-16 -4 -37 -4q-49 0 -99 45q-36 -22 -81 -34q-43 -12 -93 -12
q-75 0 -134 25q-61 26 -104 72q-45 48 -68 112q-24 66 -24 147t24 147q23 64 68 112q43 46 104 72q59 25 134 25zM375 546h2q-77 0 -123 -54q-47 -55 -47 -149t47 -149q46 -54 123 -54q40 0 69 13q-14 13 -30 21q-18 8 -36 8q-27 0 -43 19t-16 39q0 31 19 50q20 20 51 20
q43 0 75 -24q30 -23 57 -53q22 45 22 110q0 94 -47 149q-46 54 -123 54z" />
    <glyph glyph-name="R" unicode="R" horiz-adv-x="624" 
d="M582 459l-3 -2q0 -69 -30 -121t-90 -81l87 -103q23 -28 29 -45q6 -18 6 -37q0 -24 -20 -47t-57 -23q-26 0 -45 12q-18 11 -34 32l-136 180h-64v-147q0 -35 -21 -56t-56 -21t-56 21t-21 56v534q0 35 21 56t56 21h181q56 0 104 -17q46 -16 80 -47q33 -30 51 -72t18 -93z
M326 361q39 0 66 24t27 72q0 45 -27 69t-68 24h-101v-189h103z" />
    <glyph glyph-name="S" unicode="S" horiz-adv-x="614" 
d="M312 142l-5 1q20 0 38 3q19 3 32 9q14 6 23 17q9 10 9 27q0 15 -7 26t-27 22q-19 11 -51 21q-34 11 -79 24q-41 11 -82 29q-35 16 -64 41q-27 24 -40 58q-14 36 -14 81q0 49 21 87t57 63t84 39q46 13 101 13q60 0 101 -10q43 -11 84 -36q29 -17 41 -39t12 -44t-7 -36
q-7 -15 -18 -24q-10 -8 -24 -13q-12 -4 -24 -4q-21 0 -35 6q-9 4 -29 14q-30 16 -45 23q-24 11 -66 11q-50 0 -69 -16t-19 -33q0 -14 7 -24q8 -11 25 -21t47 -21q22 -8 74 -22q41 -10 78 -24q37 -13 68 -38q30 -24 48 -60t18 -88q0 -42 -17 -82q-16 -38 -51 -67
q-34 -28 -86 -45q-53 -17 -120 -17q-74 0 -130 17q-53 16 -90 47q-15 13 -30 33t-15 42q0 23 9 38t21 24t24 12t20 3q16 0 30 -6t27 -15q30 -21 65 -34q33 -12 80 -12z" />
    <glyph glyph-name="T" unicode="T" horiz-adv-x="636" 
d="M539 690h-4q35 0 56 -18t21 -50t-21 -50t-55 -18h-143v-474q0 -35 -21 -56t-56 -21t-56 21t-21 56v474h-143q-34 0 -55 18t-21 50t21 50t56 18h442z" />
    <glyph glyph-name="U" unicode="U" horiz-adv-x="718" 
d="M497 612v-1q0 35 21 56t56 21t56 -21t21 -56v-333q0 -63 -20 -118q-19 -53 -57 -91q-36 -36 -92 -58q-54 -21 -124 -21t-124 21q-56 22 -92 58q-38 37 -57 90q-20 54 -20 117v337q0 35 21 56t56 21t56 -21t21 -56v-312q0 -83 33 -121q33 -37 106 -37t106 38q33 37 33 123
v308z" />
    <glyph glyph-name="V" unicode="V" horiz-adv-x="673" 
d="M500 643l-1 -3q8 18 22 32q15 15 41 15q36 0 58 -16t22 -48q0 -13 -3 -25q-3 -10 -8 -23l-214 -514q-10 -26 -29 -45q-18 -18 -49 -18t-51 18t-30 45l-220 519q0 1 -1.5 6.5t-2.5 8.5q-3 11 -3 21q0 14 6 28q6 13 17 24q10 10 24 16t27 6q53 0 74 -51l163 -399z" />
    <glyph glyph-name="W" unicode="W" horiz-adv-x="913" 
d="M733 630l-4 -3q7 22 26 41q18 18 45 18q30 0 55 -17q24 -17 24 -48q0 -3 -2 -21q-1 -12 -8 -30l-188 -519q-11 -25 -30 -39q-19 -13 -42 -13q-21 0 -43 14q-21 13 -30 39l-84 259l-86 -259q-9 -26 -28 -39t-42 -13q-25 0 -44 14q-18 14 -27 39l-186 517q-11 30 -11 51
q0 26 22 47t61 21q32 0 48 -19q17 -20 24 -43l116 -360l86 259q7 24 24 42t51 18q16 0 29 -5t20 -13q10 -12 14 -19q5 -9 10 -22l86 -260z" />
    <glyph glyph-name="X" unicode="X" horiz-adv-x="643" 
d="M318 235l-135 -192q-10 -15 -21 -25q-9 -8 -21 -13q-11 -5 -19 -6q-6 -1 -15 -1q-19 0 -33 6q-12 5 -22 17q-8 10 -13 22q-4 11 -4 23q0 18 6 32q5 11 20 33l164 228l-155 210q-13 16 -16 27q-3 10 -3 23q0 11 5 24q4 10 14 22q9 11 23 17t32 6q21 0 36 -9q16 -10 29 -28
l138 -180l122 171q18 24 30 35q14 12 38 12q32 0 54 -21q23 -21 23 -48q0 -15 -5 -30q-5 -14 -21 -38l-147 -204l163 -213q12 -17 18 -31q6 -15 6 -34q0 -12 -6 -25q-6 -14 -16 -24t-24 -16q-13 -6 -30 -6q-25 0 -41 12q-17 13 -33 34z" />
    <glyph glyph-name="Y" unicode="Y" horiz-adv-x="641" 
d="M466 645l-5 -1q13 22 29 33t44 11q12 0 27 -5q13 -4 24 -14t17 -21q6 -12 6 -26q0 -16 -8 -37q-8 -19 -15 -33l-189 -306v-169q0 -35 -21 -56t-56 -21t-56 21t-21 56v169l-200 326q-6 9 -9 21t-3 23q0 29 19 51t57 22q18 0 33 -7q17 -8 29 -27l154 -260z" />
    <glyph glyph-name="Z" unicode="Z" horiz-adv-x="596" 
d="M478 138l-5 -1q35 0 56 -18t21 -50t-21 -50t-55 -18h-361q-34 0 -54 20t-20 51q0 11 5 26q4 14 12 24l290 432h-227q-34 0 -55 18t-21 50t21 50t56 18h360q35 0 54 -19t19 -51q0 -12 -4 -25q-5 -15 -13 -28l-288 -429h230z" />
    <glyph glyph-name="bracketleft" unicode="[" horiz-adv-x="355" 
d="M295 730v-4q24 0 39 -16t15 -48t-15 -48t-39 -16h-64v-640h64q24 0 39 -16t15 -48t-15 -48t-39 -16h-170q-22 0 -36 14t-14 36v800q0 22 14 36t36 14h170z" />
    <glyph glyph-name="backslash" unicode="\" horiz-adv-x="421" 
d="M403 118l-1 -2q13 -27 13 -49q0 -32 -22 -50q-23 -18 -49 -18q-25 0 -45 14q-19 13 -36 48l-244 507q-5 9 -9 24q-5 17 -5 27q0 31 23 51t54 20q25 0 42 -16q19 -17 32 -45z" />
    <glyph glyph-name="bracketright" unicode="]" horiz-adv-x="355" 
d="M230 730q22 0 36 -14t14 -36v-800q0 -22 -14 -36t-36 -14h-170q-24 0 -39 17t-15 48t15 48t39 17h64v640h-64q-24 0 -39 17t-15 48t15 48t39 17h170z" />
    <glyph glyph-name="asciicircum" unicode="^" horiz-adv-x="500" 
d="M197 661l-2 -1q7 16 20 27t36 11t36 -11t20 -27l136 -279q7 -12 10 -22q3 -9 3 -20q0 -19 -16 -34t-39 -15q-33 0 -53 36l-95 206l-92 -206q-19 -36 -54 -36q-23 0 -39 15t-16 35q0 11 3 20q3 10 10 22z" />
    <glyph glyph-name="underscore" unicode="_" horiz-adv-x="607" 
d="M497 0q24 0 39 -15t15 -39q0 -25 -15 -40t-39 -15h-387q-24 0 -39 15t-15 40q0 24 15 39t39 15h387z" />
    <glyph glyph-name="grave" unicode="`" horiz-adv-x="500" 
d="M351 632v-4q20 -20 20 -41q0 -18 -13 -32q-14 -15 -33 -15q-5 0 -12 3q-9 4 -18 10l-133 86q-25 16 -25 51q0 11 5 23q4 11 14 20q10 10 21 14q13 5 24 5q15 0 24 -4q11 -4 18 -12z" />
    <glyph glyph-name="a" unicode="a" horiz-adv-x="633" 
d="M563 179v-3q0 -23 6 -32t14 -9q17 0 27 -15q10 -14 10 -43q0 -79 -97 -79q-51 0 -78 27q-26 26 -34 62l-1 4q-22 -50 -63 -76q-40 -25 -96 -25q-43 0 -82 18q-38 18 -69 53q-30 34 -48 83q-18 48 -18 110q0 65 19 113q19 49 51 84t73 54t86 19q59 0 93 -24t54 -66v16
q0 29 21 47t55 18q35 0 56 -18t21 -46v-272zM301 125q23 0 42 9q21 10 35 25q15 17 24 40q9 24 9 55q0 61 -29 96t-81 35q-53 0 -81 -36q-29 -37 -29 -96q0 -30 9 -54q9 -23 24 -40q14 -15 35 -25q19 -9 42 -9z" />
    <glyph glyph-name="b" unicode="b" horiz-adv-x="628" 
d="M217 435l-3 -1q24 41 62 66q38 24 89 24q50 0 91 -19q42 -19 72 -54q31 -35 47 -84q17 -51 17 -111q0 -64 -19 -112q-20 -50 -52 -84q-33 -34 -76 -52t-90 -18q-45 0 -84 24q-38 23 -55 68v-8q0 -28 -20 -51t-57 -23q-38 0 -56 23t-18 51v542q0 32 22 53q23 21 54 21
t54 -21q22 -21 22 -53v-181zM324 127l-1 -4q26 0 48 11q21 11 35 29t21 42q7 22 7 49q0 29 -7 51q-7 24 -21 42q-13 18 -34 28q-20 10 -48 10q-54 0 -82 -37t-28 -93q0 -54 28 -91t82 -37z" />
    <glyph glyph-name="c" unicode="c" horiz-adv-x="531" 
d="M428 188l-5 -2q11 0 22 -4q12 -4 21 -12q9 -7 15 -20q6 -12 6 -28q0 -39 -27 -66q-11 -11 -26 -23q-13 -11 -36 -22q-19 -9 -50 -16q-28 -6 -64 -6q-58 0 -105 21t-80 57t-51 85q-18 50 -18 106q0 55 20 104q20 48 54 84t81 57t101 21q56 0 107 -18q52 -18 86 -64
q11 -16 16 -28q4 -11 4 -26q0 -18 -6 -30q-7 -13 -16 -20q-11 -8 -22 -12t-22 -4q-19 0 -33 8t-21 15q-4 3 -13 12t-18 14q-13 7 -25 11q-17 5 -34 5q-25 0 -44 -11q-17 -10 -30 -29q-12 -18 -18 -42t-6 -48q0 -25 6 -47q6 -23 18 -41t30 -30t44 -12q25 0 47 11t44 30
q13 11 27 16q12 4 21 4z" />
    <glyph glyph-name="d" unicode="d" horiz-adv-x="628" 
d="M411 616v-2q0 32 22 53q23 21 54 21t54 -21q22 -21 22 -53v-536q0 -43 -21 -61t-57 -18q-38 0 -56 22q-18 23 -18 52v18q-23 -50 -61 -75q-40 -26 -94 -26q-42 0 -84 17q-39 16 -70 50q-30 33 -48 83t-18 114q0 65 19 115q20 52 51 86q32 35 74 53t88 18q61 0 93 -25
q34 -26 50 -66v181zM301 126q23 0 42 9q21 10 35 25q15 17 24 40q9 24 9 55q0 62 -31 96q-32 35 -79 35q-53 0 -81 -36q-29 -37 -29 -96q0 -30 9 -54q9 -23 24 -40q14 -15 35 -25q19 -9 42 -9z" />
    <glyph glyph-name="e" unicode="e" horiz-adv-x="565" 
d="M190 216l-3 -2q10 -45 41 -66q30 -21 71 -21q18 0 36 5q14 4 30 11q15 7 23 12q10 7 14 8q20 9 33 9q29 0 47 -21t18 -47q0 -20 -10 -34q-11 -16 -22 -24q-29 -23 -73 -39t-106 -16q-54 0 -102 20q-47 20 -81 55q-34 36 -54 84q-19 47 -19 107q0 54 20 105q20 50 54 86
q35 36 81 57t102 21q55 0 97 -19q44 -20 74 -51q31 -32 47 -72q17 -42 17 -84q0 -36 -12 -60t-50 -24h-273zM287 385l1 -2q-40 0 -66 -21q-25 -20 -34 -62h187q0 15 -6 30q-6 16 -16 27q-11 13 -27 20q-18 8 -39 8z" />
    <glyph glyph-name="f" unicode="f" horiz-adv-x="416" 
d="M65 458l-3 1q0 119 63 180q64 62 168 62q23 0 39 -3q6 -1 14 -2.5t10 -1.5q29 -8 41 -27t12 -41q0 -36 -21 -53q-22 -17 -46 -17q-9 0 -25 2t-29 2q-32 0 -48 -12q-17 -12 -21 -46h70q29 0 48 -19q20 -20 20 -51q0 -32 -19 -51t-48 -19h-73v-288q0 -32 -21 -53t-55 -21
t-55 21t-21 53v384z" />
    <glyph glyph-name="g" unicode="g" horiz-adv-x="623" 
d="M563 52l5 -3q0 -59 -21 -106q-21 -46 -57 -79q-35 -32 -85 -49q-51 -17 -108 -17q-39 0 -75 6q-34 6 -64 20q-19 10 -28 24t-9 33q0 30 16 47q17 18 42 18q17 0 30 -3l27 -6q14 -3 30 -6t41 -3t45 9t33 24t21 36q7 20 7 44v47q-25 -50 -65 -76q-38 -25 -95 -25
q-43 0 -82 18q-40 18 -69 52q-30 35 -48 84q-18 50 -18 112q0 63 20 115t51 86q32 35 72 53q41 18 84 18q30 0 56 -8q23 -7 42 -20q17 -12 30 -29q13 -18 20 -33v16q0 28 20 46q19 18 56 18q43 0 59 -19q17 -20 17 -45v-399zM306 125q22 0 42 9q21 10 35 25q15 17 24 40
q9 24 9 55q0 61 -29 96t-81 35t-81 -36q-29 -37 -29 -96q0 -30 9 -54q9 -23 24 -40q14 -15 35 -25q20 -9 42 -9z" />
    <glyph glyph-name="h" unicode="h" horiz-adv-x="598" 
d="M217 435l-3 -1q19 43 54 67q34 24 86 24q85 0 133 -54t48 -151v-246q0 -32 -22 -53q-23 -21 -54 -21t-54 21q-22 21 -22 53v189q0 64 -23 95q-22 30 -63 30q-40 0 -61 -31t-21 -99v-184q0 -32 -22 -53q-23 -21 -54 -21t-54 21q-22 21 -22 53v542q0 31 20 53q19 21 57 21
t57 -21q20 -22 20 -53v-181z" />
    <glyph glyph-name="i" unicode="i" horiz-adv-x="287" 
d="M143 700l-3 1q34 0 57 -21t23 -58q0 -40 -23 -58q-22 -18 -56 -18q-33 0 -55 19t-22 57q0 36 22 57t57 21zM62 442l2 -4q0 32 21 53t54 21t54 -21t21 -52v-256q0 -18 5 -33q4 -13 17 -13q20 0 27 -19q8 -21 8 -39q0 -35 -21 -57t-65 -22q-27 0 -50 9t-39 30
q-16 20 -25 54q-9 33 -9 81v268z" />
    <glyph glyph-name="j" unicode="j" horiz-adv-x="282" 
d="M65 441l-2 -1q0 32 22 53q23 21 54 21t54 -21q22 -21 22 -53v-418q0 -101 -44 -157q-43 -55 -131 -55q-55 0 -78 22q-24 22 -24 51q0 28 17 48q16 19 51 19q20 0 32 6t18 17q5 9 7 26q2 20 2 34v408zM138 699l-3 1q35 0 57 -21q23 -21 23 -58q0 -40 -23 -58
q-22 -18 -56 -18q-33 0 -55 19t-22 57q0 36 22 57q23 21 57 21z" />
    <glyph glyph-name="k" unicode="k" horiz-adv-x="561" 
d="M366 279l138 -156q13 -15 17 -21q9 -12 9 -33q0 -18 -7 -31t-18 -22q-10 -9 -23 -12q-12 -3 -23 -3q-17 0 -29 6t-26 20l-144 162l-43 -36v-79q0 -32 -19 -52q-20 -21 -57 -21t-57 21q-19 20 -19 53v542q0 32 18 53t57 21t57 -21t18 -52v-287l174 150q14 11 32 24
q16 11 35 11q32 0 50 -21t18 -46q0 -22 -8 -36q-7 -13 -21 -25z" />
    <glyph glyph-name="l" unicode="l" horiz-adv-x="287" 
d="M65 616l2 -4q0 32 21 53t54 21t54 -21t21 -52v-431q0 -18 5 -33q4 -13 17 -13q20 0 27 -19q8 -21 8 -39q0 -34 -21 -57q-21 -22 -65 -22q-28 0 -50 9t-39 30q-16 20 -25 54q-9 33 -9 81v443z" />
    <glyph glyph-name="m" unicode="m" horiz-adv-x="839" 
d="M65 441l-7 -6q0 33 21 54t59 21q32 0 52 -16q21 -16 21 -51v-13q8 18 19 34q13 18 28 29q18 13 37 20q22 8 47 8q49 0 83 -24q35 -24 51 -69q17 46 46 69q30 24 81 24q81 0 126 -52q45 -53 45 -151v-248q0 -31 -21 -52t-54 -21t-54 21t-21 53v234q0 39 -18 59t-48 20
q-29 0 -46 -20q-16 -19 -16 -59v-234q0 -31 -21 -52t-54 -21t-54 21t-21 53v234q0 40 -18 59q-18 20 -49 20q-63 0 -63 -79v-234q0 -31 -21 -52t-54 -21q-31 0 -54 21q-22 21 -22 54v367z" />
    <glyph glyph-name="n" unicode="n" horiz-adv-x="598" 
d="M65 450l-5 -6q0 10 5 23q4 11 14 21q9 9 24 15t35 6q40 0 57 -20t17 -42v-17q18 46 57 68q40 23 86 23q83 0 131 -53q48 -52 48 -152v-246q0 -31 -21 -52t-54 -21t-54 21t-21 53v189q0 64 -23 95q-23 30 -63 30q-38 0 -60 -31t-22 -97v-185q0 -31 -21 -52t-54 -21
q-31 0 -54 21q-22 21 -22 54v376z" />
    <glyph glyph-name="o" unicode="o" horiz-adv-x="600" 
d="M300 525h-2q58 0 106 -21q49 -21 83 -57q35 -36 54 -85q20 -51 20 -105q0 -58 -19 -106q-19 -49 -54 -85q-34 -36 -83 -57q-48 -21 -106 -21t-106 21q-49 21 -83 57q-35 36 -54 85q-19 48 -19 106q0 54 20 105q19 49 54 85q34 36 83 57q48 21 106 21zM298 387l-2 -3
q-28 0 -48 -10t-34 -27q-13 -16 -19 -39q-6 -22 -6 -50q0 -26 6 -50q6 -23 20 -42t34 -29q22 -11 48 -11t48 11q21 10 34 28q14 19 20 41t6 48q0 27 -6 51q-6 25 -19 42q-14 19 -34 29q-22 11 -48 11z" />
    <glyph glyph-name="p" unicode="p" horiz-adv-x="628" 
d="M217 -116l-2 -1q0 -32 -21 -53t-53 -21q-31 0 -54 21q-22 21 -22 53v568q0 9 5 22q4 11 14 21q9 9 24 15t35 6q41 0 57 -19q17 -20 17 -45v-16q21 35 56 63q35 27 93 27q52 0 93 -19q42 -20 72 -54q29 -34 46 -84q17 -51 17 -109q0 -60 -16 -108t-47 -85t-73 -56
q-45 -20 -96 -20q-54 0 -91 27t-54 65v-198zM325 127l-1 -3q26 0 48 11q21 11 35 29q13 18 21 42q7 22 7 49q0 29 -7 51q-8 24 -21 42t-34 28q-20 10 -48 10t-48 -10q-21 -10 -34 -28t-21 -42q-7 -22 -7 -51q0 -54 28 -91t82 -37z" />
    <glyph glyph-name="q" unicode="q" horiz-adv-x="628" 
d="M411 82l-4 -4q-27 -50 -68 -71t-93 -21q-43 0 -83 17q-39 17 -68 50q-27 32 -46 83q-18 50 -18 114q0 57 17 108q16 49 47 86q30 36 72 57t93 21q35 0 57 -7q25 -8 42 -19q19 -12 30 -28q14 -19 20 -34v16q0 26 19 45t57 19q29 0 53 -15t24 -48v-567q0 -32 -21 -53
t-53 -21t-54 21q-23 21 -23 53v198zM297 124q23 0 42 9q21 10 35 25q15 17 24 40q9 24 9 55q0 61 -30 96t-80 35q-53 0 -81 -36q-29 -37 -29 -96q0 -30 9 -54q9 -23 24 -40q14 -15 35 -25q19 -9 42 -9z" />
    <glyph glyph-name="r" unicode="r" horiz-adv-x="429" 
d="M65 448l-2 -2q0 28 18 47q18 20 53 20q71 0 71 -68v-14q20 38 57 65q38 27 82 27q45 0 62 -20t17 -47q0 -30 -18 -51t-55 -21q-21 0 -47 -8q-23 -7 -43 -24q-18 -16 -31 -44q-12 -27 -12 -66v-168q0 -35 -22 -54q-23 -20 -54 -20t-54 20q-22 19 -22 54v374z" />
    <glyph glyph-name="s" unicode="s" horiz-adv-x="486" 
d="M44 367l-6 -5q0 34 15 63t42 50t63 33t80 12q63 0 102 -15q38 -15 63 -38q15 -15 20 -28q6 -15 6 -27t-4 -23q-5 -12 -12 -21t-18 -15t-24 -6q-11 0 -24 6q-9 4 -25 14q-13 8 -31 15q-21 8 -46 8q-21 0 -33 -6t-12 -18q0 -14 18 -23t45 -18q31 -10 59 -21q33 -12 59 -30
q27 -18 45 -45t18 -68q0 -37 -15 -69t-42 -54t-66 -36q-38 -13 -85 -13q-62 0 -106 15q-43 15 -69 41q-13 13 -18 27q-4 12 -4 27q0 11 5 24q4 12 12 21t18 15t23 6q17 0 30 -6q10 -5 21 -11q44 -27 84 -27q26 0 41 6t15 23q0 16 -18 27q-20 12 -45 20q-31 10 -59 21
q-33 12 -59 30t-45 47q-18 29 -18 72z" />
    <glyph glyph-name="t" unicode="t" horiz-adv-x="429" 
d="M258 189v-1q0 -32 13 -46q13 -15 36 -15q20 0 32 5t24 5q14 0 23 -6t15 -15t9 -19t3 -19q0 -47 -31 -66q-22 -13 -47 -18q-27 -5 -59 -5q-49 0 -83 17q-32 16 -52 44q-20 27 -27 61q-8 37 -8 69v201h-18q-28 0 -48 18q-19 18 -19 49q0 30 20 48q19 18 48 18h18v61
q0 32 21 53t54 21t54 -21t21 -52v-61h74q29 0 48 -18q20 -18 20 -49t-19 -49q-20 -18 -48 -18h-74v-192z" />
    <glyph glyph-name="u" unicode="u" horiz-adv-x="577" 
d="M365 441q0 32 22 53q23 21 54 21t54 -21q22 -21 22 -53v-212q0 -54 -16 -96q-17 -44 -46 -75t-72 -49q-42 -18 -94 -18t-94 18q-43 18 -72 49t-46 75q-16 42 -16 96v212q0 32 22 53q23 21 54 21t54 -21q22 -21 22 -53v-216q0 -46 19 -71q20 -26 58 -26q39 0 57 26t18 71
v216z" />
    <glyph glyph-name="v" unicode="v" horiz-adv-x="544" 
d="M375 468l-3 -1q7 19 23 33t39 14q38 0 61 -19q24 -19 24 -57q0 -16 -8 -35l-167 -352q-14 -25 -30 -39q-16 -13 -45 -13q-28 0 -45 14q-16 13 -30 41l-158 344q-4 8 -9 21q-4 12 -4 24q0 31 21 52t56 21q15 0 28 -5q12 -5 21 -12q10 -9 14 -16l8 -16l101 -250z" />
    <glyph glyph-name="w" unicode="w" horiz-adv-x="743" 
d="M574 460h-2q8 26 24 41t45 15q38 0 59 -21t21 -56q0 -9 -1 -15q-2 -10 -9 -26l-129 -342q-10 -28 -30 -42q-19 -13 -43 -13t-45 12t-30 45l-64 197l-64 -198q-9 -33 -33 -45t-43 -12q-27 0 -46 13q-20 14 -30 43l-125 341q-2 5 -4 12.5t-3 10.5q-3 9 -3 17q0 21 8 37
q7 14 20 24q11 8 27 13q13 4 30 4q25 0 43 -12q17 -11 25 -35l68 -233l60 182q9 33 30 45t43 12q21 0 42 -12t32 -44l59 -183z" />
    <glyph glyph-name="x" unicode="x" horiz-adv-x="528" 
d="M283 359l87 122q11 14 23 23t30 9q12 0 23 -4q13 -5 23 -12q11 -8 17 -18t6 -26q0 -13 -5 -26t-12 -23l-112 -154l96 -122q13 -16 21 -33q8 -18 8 -30q0 -32 -22 -50t-49 -18q-23 0 -39 9t-33 32l-93 119l-82 -118q-13 -18 -27 -29q-15 -12 -36 -12q-29 0 -48 19t-19 45
q0 29 16 51l112 155l-99 128q-14 19 -17 31q-3 13 -3 25q0 26 23 44q22 18 51 18q25 0 42 -12t30 -30z" />
    <glyph glyph-name="y" unicode="y" horiz-adv-x="541" 
d="M196 -1l-4 -4l-166 402q-4 11 -6 21q-2 14 -2 18q0 35 25 54q26 20 58 20q24 0 42 -12q19 -13 26 -34l98 -286l110 283q8 20 21 35q14 15 42 15q33 0 53 -19q21 -20 21 -51q0 -13 -3 -27q-4 -16 -7 -23l-167 -402q-23 -53 -48 -87q-26 -35 -53 -56t-57 -30t-62 -9
q-47 0 -69 18t-22 50q0 30 18 51t54 21q39 0 62 10q25 11 35 39z" />
    <glyph glyph-name="z" unicode="z" horiz-adv-x="477" 
d="M366 515l-3 -1q37 0 55 -20t18 -47q0 -15 -7 -30q-8 -17 -16 -28l-181 -251h147q31 0 51 -17t20 -48q0 -36 -19 -54t-51 -18h-275q-35 0 -53 21t-18 50q0 22 19 50l186 255h-132q-31 0 -51 20q-19 19 -19 51q0 28 20 48q19 19 51 19h258z" />
    <glyph glyph-name="braceleft" unicode="{" horiz-adv-x="386" 
d="M30 280l-3 -3q0 30 14 52q13 21 42 21q17 0 24 9q8 10 8 31v91q0 47 8 95q7 44 29 78q21 34 57 53q37 20 92 20q41 0 61 -21q19 -20 19 -50q0 -32 -19 -52q-20 -21 -48 -21q-11 0 -18 -4q-8 -5 -12 -16q-5 -12 -6 -31q-2 -26 -2 -51v-87q0 -17 -3 -35q-3 -17 -12 -34
t-24 -30q-14 -13 -37 -19q21 -4 37 -17q15 -12 24 -28q9 -17 12 -34q3 -18 3 -34v-87q0 -25 2 -51q1 -19 6 -31q4 -11 12 -16q7 -4 18 -4q28 0 48 -21q20 -22 20 -52t-19 -50q-19 -21 -61 -21q-55 0 -92 20q-36 19 -57 53q-20 32 -28 78q-8 48 -8 95v91q0 23 -7 31
q-8 9 -24 9q-28 0 -42 20t-14 53z" />
    <glyph glyph-name="bar" unicode="|" horiz-adv-x="316" 
d="M80 730h-4q0 35 23 56q22 21 56 21q33 0 56 -21t23 -56v-842q0 -35 -22 -56t-55 -21t-55 21t-22 56v842z" />
    <glyph glyph-name="braceright" unicode="}" horiz-adv-x="386" 
d="M356 280l-1 -5q0 -33 -14 -53t-42 -20q-17 0 -24 -9q-7 -8 -7 -31v-91q0 -47 -8 -95q-8 -46 -28 -78q-21 -34 -57 -53q-35 -19 -91 -19q-42 0 -61 21q-19 20 -19 50t20 52q20 21 48 21q10 0 18 5t12 16q4 12 6 32q2 26 2 51v87q0 17 3 35q3 19 12 35q9 17 24 29
q16 13 37 17q-23 6 -37 19q-15 14 -24 30q-9 17 -12 34q-3 18 -3 35v87q0 61 -9 82t-31 21q-28 0 -48 21q-19 20 -19 52q0 30 19 50q20 21 61 21q56 0 91 -19q36 -19 57 -53q22 -34 29 -78q8 -48 8 -95v-91q0 -21 8 -31q8 -9 24 -9q28 0 42 -21q14 -22 14 -52z" />
    <glyph glyph-name="asciitilde" unicode="~" horiz-adv-x="628" 
d="M143 356l-4 -3q6 8 13 15q8 9 22 16q12 7 31 13q18 6 40 6q27 0 44 -6q19 -7 30 -13q4 -2 8.5 -4.5t9.5 -5t8 -3.5q12 -6 30 -6q12 0 24 5q11 4 21 15q8 7 15 9q10 2 15 2q20 0 36 -14q15 -14 15 -33q0 -13 -3 -25q-3 -13 -13 -24q-14 -18 -36 -32q-23 -15 -54 -15
q-29 0 -48 6q-16 5 -34 14q-20 10 -29 14q-14 6 -30 6t-27 -4q-13 -5 -24 -16q-12 -12 -33 -12q-17 0 -31 13q-15 14 -15 33q0 8 3 20q3 14 16 29z" />
    <glyph glyph-name="uni00A0" unicode="&#xa0;" horiz-adv-x="205" 
 />
    <glyph glyph-name="exclamdown" unicode="&#xa1;" horiz-adv-x="325" 
d="M241 -90l-1 1q2 -35 -16 -60t-61 -25t-61 24t-18 62l10 327q0 29 18 50t51 21t50 -21q16 -21 18 -50zM162 353q-36 0 -62 24t-26 64q0 41 26 64q25 22 62 22q39 0 62 -22q24 -23 24 -64q0 -40 -24 -64t-62 -24z" />
    <glyph glyph-name="cent" unicode="&#xa2;" horiz-adv-x="628" 
d="M260 1l-4 -2q-40 12 -73 36q-32 23 -55 57q-22 32 -34 75q-12 42 -12 89q0 46 12 86q12 41 36 74q23 32 56 57q30 23 71 37v42q0 35 23 56q22 21 56 21t56 -21q23 -21 23 -56v-39q36 -8 63 -25q29 -18 51 -46q11 -16 16 -28q4 -11 4 -26q0 -18 -6 -30q-7 -13 -16 -20
q-11 -8 -22 -12t-22 -4q-19 0 -33 8t-21 15q-4 3 -13 12t-18 14q-13 7 -25 11q-17 5 -34 5q-25 0 -44 -11q-17 -10 -30 -29q-12 -18 -18 -42t-6 -48q0 -25 6 -47q6 -23 18 -41t30 -30t44 -12q25 0 47 11t44 30q13 11 27 16q12 4 21 4q11 0 22 -4q12 -4 21 -12q9 -7 15 -20
q6 -12 6 -28q0 -39 -27 -66q-18 -18 -40 -33q-23 -16 -61 -25v-40q0 -35 -22 -56t-55 -21t-55 21t-22 56v41z" />
    <glyph glyph-name="sterling" unicode="&#xa3;" horiz-adv-x="628" 
d="M364 250l-1 -7q0 -43 -21 -65q-21 -23 -58 -39h132q22 0 30 3t11 18q4 25 23 42t47 17q30 0 50 -20t20 -50q0 -33 -10 -59q-11 -29 -31 -47q-20 -19 -54 -31q-33 -12 -76 -12h-320q-31 0 -51 20q-19 19 -19 50q0 30 20 50t51 20q26 0 44 9t30 21t18 27t6 29q0 8 -1 12
l-3 12h-84q-23 0 -38 15t-15 39t15 39t38 15h30q-19 33 -34 73q-15 39 -15 83q0 40 18 76q18 37 49 63q32 27 73 42q42 15 92 15q58 0 108 -27q49 -27 76 -72q10 -18 14 -27q6 -14 6 -36q0 -32 -18 -53t-56 -21q-26 0 -41 15t-26 38t-28 29q-18 6 -40 6q-37 0 -52 -17
t-15 -39q0 -18 6 -36q7 -20 16 -36q14 -24 22 -37q16 -26 23 -39h100q23 0 38 -15t15 -39t-15 -39t-38 -15h-61z" />
    <glyph glyph-name="currency" unicode="&#xa4;" horiz-adv-x="628" 
d="M311 517l-5 3q30 0 54 -7q28 -8 48 -19l19 19q16 16 39 16q22 0 39 -16q18 -17 18 -40q0 -22 -17 -39l-20 -20q23 -44 23 -96q0 -54 -23 -98l20 -20q17 -17 17 -39t-16 -38q-17 -17 -39 -17q-23 0 -39 16l-19 18q-44 -25 -101 -25q-56 0 -98 24l-16 -16q-17 -17 -36 -17
q-21 0 -39 15t-18 39q0 22 17 39l16 16q-25 44 -25 101q0 58 25 102l-15 16q-17 17 -17 36q0 23 16 40q17 18 40 18q21 0 38 -17l16 -17q24 11 47 17q24 6 51 6zM306 402v-2q-36 0 -52 -24q-16 -23 -16 -58q0 -34 16 -60q17 -27 52 -27t52 26q16 25 16 59q0 35 -16 60
q-17 26 -52 26z" />
    <glyph glyph-name="yen" unicode="&#xa5;" horiz-adv-x="628" 
d="M392 110l-5 -33q0 -35 -21 -56t-56 -21t-56 21t-21 56v32h-111q-23 0 -38 15t-15 39t15 39t38 15h111v27l-8 13h-103q-23 0 -38 15t-15 39t15 39t38 15h35l-124 203q-6 9 -9 21t-3 23q0 29 19 51t57 22q18 0 33 -7q17 -8 29 -27l154 -260l144 250q13 22 29 33t44 11
q12 0 27 -5q13 -4 24 -14t17 -21q6 -12 6 -26q0 -16 -8 -37q-8 -20 -15 -33l-113 -183h36q23 0 38 -15t15 -39t-15 -39t-38 -15h-104l-8 -13v-27h112q23 0 38 -15t15 -39t-15 -39t-38 -15h-112z" />
    <glyph glyph-name="brokenbar" unicode="&#xa6;" horiz-adv-x="316" 
d="M80 730h-4q0 35 23 56q22 21 56 21q33 0 56 -21t23 -56v-242q0 -35 -22 -56t-55 -21t-55 21t-22 56v242zM76 130h-4q0 35 23 56t56 21q34 0 56 -21q23 -21 23 -56v-242q0 -35 -22 -56t-55 -21t-55 21t-22 56v242z" />
    <glyph glyph-name="section" unicode="&#xa7;" horiz-adv-x="486" 
d="M44 542l-7 -1q0 35 15 63q15 29 42 50t63 33t80 12q63 0 102 -15q38 -15 63 -38q15 -15 20 -28q6 -15 6 -27t-4 -23q-4 -12 -12 -21t-18 -15t-24 -6q-10 0 -24 6q-9 4 -25 14q-13 8 -31 15q-21 8 -46 8q-21 0 -33 -6t-12 -18q0 -17 18 -26t45 -18q9 -3 28.5 -9t30.5 -10
q33 -11 59 -27q27 -17 45 -42t18 -66q0 -33 -10 -56q-11 -24 -27 -42q16 -16 27 -38t11 -50q0 -35 -15 -67t-42 -54t-66 -36q-38 -13 -85 -13q-62 0 -106 15q-43 15 -69 41q-13 13 -18 27q-4 12 -4 27q0 11 5 24q4 12 12 21t18 15t23 6q17 0 30 -6q10 -5 21 -11
q44 -27 84 -27q26 0 41 6t15 23q0 16 -18 27t-45 18q-10 3 -30.5 9t-28.5 8q-31 9 -59 26q-26 16 -45 44q-18 27 -18 70q0 32 12 54q12 23 31 39q-19 16 -31 39q-12 22 -12 56zM173 368l-1 -1q0 -12 10 -21q9 -8 27 -16q19 -9 39 -14q8 -2 46 -14q8 8 8 21q0 14 -9 23
t-26 17q-20 9 -37 14q-14 4 -44 14q-13 -7 -13 -23z" />
    <glyph glyph-name="dieresis" unicode="&#xa8;" horiz-adv-x="500" 
d="M162 700l-1 -1q29 0 48 -18q20 -18 20 -49q0 -35 -19 -51t-48 -16t-49 17q-19 16 -19 50q0 32 18 50t50 18zM337 699h1q28 0 48 -18t20 -49q0 -34 -20 -51q-19 -16 -48 -16q-28 0 -48 17q-19 16 -19 50q0 31 18 49t48 18z" />
    <glyph glyph-name="copyright" unicode="&#xa9;" horiz-adv-x="772" 
d="M386 -10l-4 -1q-75 0 -141 26q-64 25 -109 72q-44 46 -70 111q-25 63 -25 143t25 145t71 114q45 48 110 75t141 27q78 0 141 -25q65 -26 110 -72q46 -47 71 -111q25 -63 25 -143t-25 -145q-26 -67 -70 -114q-45 -48 -109 -75q-65 -27 -141 -27zM382 606l-2 -4
q-58 0 -103 -19q-46 -19 -79 -54t-51 -84t-18 -108q0 -49 18 -96q17 -45 50 -82q31 -36 78 -57t105 -21q56 0 104 20q46 19 79 54t51 84t18 108q0 49 -18 96q-19 48 -49 83q-31 35 -78 58q-45 22 -105 22zM453 402l-7 -9l-18 18q-8 7 -15 12t-15 6q-10 2 -21 2
q-35 0 -56 -24t-21 -75q0 -48 22 -69t66 -21q9 0 21 2q6 1 16 5q7 3 15 9q13 11 18 14q15 12 36 12q22 0 36 -18q13 -17 13 -34q0 -12 -4 -23q-5 -12 -15 -24q-19 -22 -55 -40t-88 -18q-45 0 -81 15q-37 15 -62 42q-26 27 -39 66q-14 40 -14 86q0 45 14 85t39 68
q26 29 62 44t81 15q37 0 66 -9t48 -21t30 -24q11 -13 14 -17q4 -7 6 -17q1 -6 1 -17q0 -13 -6 -24q-7 -12 -13 -18q-7 -7 -17 -10q-9 -3 -17 -3q-11 0 -21 3q-9 3 -19 11z" />
    <glyph glyph-name="ordfeminine" unicode="&#xaa;" horiz-adv-x="478" 
d="M428 457h2q0 -17 5 -24q5 -6 9 -6q14 0 21 -13q8 -14 8 -36q0 -68 -83 -68q-39 0 -64 20q-24 20 -27 45v-1q-16 -37 -46 -55t-69 -18q-30 0 -60 14q-28 13 -51 39t-36 63q-13 36 -13 84q0 49 15 86q15 38 39 65q25 28 54 41q31 14 62 14q43 0 66 -16q25 -17 38 -45v-1
q0 25 18 40t47 15t47 -15t18 -40v-188zM230 420v-2q27 0 48 21t21 63t-18 64t-52 22t-52 -22t-18 -63t22 -62q23 -21 49 -21z" />
    <glyph glyph-name="guillemotleft" unicode="&#xab;" horiz-adv-x="635" 
d="M241 448v-1q5 4 17 9t21 5q21 0 36 -15t15 -38q0 -14 -4 -23q-4 -11 -18 -21l-148 -115l146 -117q14 -10 18 -21q5 -12 5 -24q0 -21 -15 -36t-37 -15q-9 0 -21 5q-9 4 -16 9l-195 156q-8 7 -14 18q-6 12 -6 25q0 16 8 27q7 10 12 15zM521 447v-1q5 4 17 9t21 5
q21 0 36 -15t15 -38q0 -14 -4 -23q-4 -10 -18 -21l-148 -115l146 -117q14 -11 18 -21q5 -12 5 -24q0 -21 -15 -36t-37 -15q-9 0 -21 5q-9 4 -16 9l-195 156q-8 7 -14 18q-6 12 -6 25q0 16 8 27q7 11 12 15z" />
    <glyph glyph-name="logicalnot" unicode="&#xac;" horiz-adv-x="628" 
d="M472 462l-1 1q24 0 39 -15t15 -39v-180q0 -24 -15 -39t-39 -15t-39 15t-15 39v125h-262q-24 0 -39 15t-15 39t15 39t39 15h317z" />
    <glyph glyph-name="uni00AD" unicode="&#xad;" horiz-adv-x="434" 
 />
    <glyph glyph-name="registered" unicode="&#xae;" horiz-adv-x="652" 
d="M326 94l-4 -1q-64 0 -121 23q-56 23 -95 63q-40 41 -62 96q-22 54 -22 123q0 67 23 125q22 56 62 99q39 42 95 66t122 24q68 0 122 -22q56 -23 95 -63q40 -41 62 -96q23 -57 23 -123q0 -69 -22 -125t-62 -99q-39 -42 -95 -66q-55 -24 -121 -24zM322 620v-2q-49 0 -87 -16
q-40 -17 -66 -46q-28 -31 -41 -70q-14 -42 -14 -90q0 -41 14 -81q13 -38 41 -69q27 -30 66 -48t88 -18t87 16q39 16 66 45q28 29 41 71q14 44 14 92q0 41 -14 81q-13 38 -41 69q-27 30 -66 48t-88 18zM469 450v-5q0 -62 -47 -95l19 -17q17 -17 21 -28t4 -25q0 -17 -13 -31
q-13 -15 -39 -15q-18 0 -31 9t-24 21l-53 62h-6v-39q0 -22 -15 -37t-39 -15q-23 0 -38 15t-15 38v227q0 23 15 38t38 15h88q29 0 53 -9q25 -9 42 -25q19 -18 29 -37q11 -22 11 -47zM335 415h1q5 0 14 6t9 24q0 14 -9 20t-16 6h-34v-56h35z" />
    <glyph glyph-name="macron" unicode="&#xaf;" horiz-adv-x="500" 
d="M354 716q24 0 39 -18t15 -42t-15 -42t-39 -18h-208q-24 0 -39 18t-15 42t15 42t39 18h208z" />
    <glyph glyph-name="degree" unicode="&#xb0;" horiz-adv-x="397" 
d="M198 705v-1q33 0 60 -12q28 -12 47 -33t30 -51q11 -31 11 -64t-11 -64q-11 -30 -30 -51t-47 -33q-27 -12 -60 -12q-32 0 -59 12q-28 12 -47 33q-20 21 -30 51q-11 31 -11 65q0 33 11 64q10 30 30 51q19 21 47 33q27 12 59 12zM198 606v-1q-26 0 -38 -18t-12 -43t12 -43
t38 -18q27 0 39 18t12 43q0 26 -12 44t-39 18z" />
    <glyph glyph-name="plusminus" unicode="&#xb1;" horiz-adv-x="628" 
d="M472 370v1q24 0 39 -16t15 -40t-15 -39t-39 -15h-103v-73q0 -24 -15 -39t-39 -15t-39 15t-15 39v74h-103q-24 0 -39 15t-15 39t15 39t39 15h104v74q0 24 15 39t39 15t39 -15t15 -39v-74h102zM472 112q24 0 39 -16q15 -17 15 -40q0 -24 -15 -39t-39 -15h-316q-24 0 -39 16
q-15 17 -15 40q0 24 15 39t39 15h316z" />
    <glyph glyph-name="twosuperior" unicode="&#xb2;" horiz-adv-x="369" 
d="M166 522l-9 -3q29 23 39 36t10 22q0 8 -7 15t-24 7q-15 0 -25 -6t-18 -15q-11 -11 -22 -18q-12 -7 -28 -6q-23 2 -37 13q-15 12 -15 39q0 20 12 36q12 17 32 29q21 13 47 20q29 8 59 8q67 0 107 -31q41 -32 41 -85q0 -32 -16 -54q-16 -23 -54 -51l-49 -36h78q25 0 41 -14
q15 -13 15 -35q0 -23 -15 -36q-14 -13 -40 -13h-191q-4 0 -18 2q-9 1 -19 8q-9 6 -15 15t-6 24q0 11 6 23q6 13 13 18z" />
    <glyph glyph-name="threesuperior" unicode="&#xb3;" horiz-adv-x="369" 
d="M185 564l-4 5q24 0 24 21q0 8 -7 14q-8 6 -24 6q-20 0 -33 -6q-15 -7 -24 -13q-15 -9 -33 -9q-19 0 -34 12t-15 32q0 24 29 47q6 6 38 19q30 12 78 12q36 0 63 -9q28 -9 45 -22q18 -13 27 -30q9 -16 9 -35q0 -22 -15 -45t-40 -30q19 -3 30 -10q12 -7 21 -18q8 -10 13 -22
q4 -11 4 -22q0 -25 -12 -48t-33 -39q-20 -16 -51 -25q-30 -9 -65 -9q-39 0 -66 7q-28 7 -54 24q-28 19 -28 45q0 19 17 33t39 14q17 0 27 -7q11 -7 29 -16q12 -6 34 -6q28 0 39 6t11 15q0 11 -8 17t-27 6h-20q-22 0 -39 11q-16 10 -16 33q0 24 18 33t44 9h9z" />
    <glyph glyph-name="acute" unicode="&#xb4;" horiz-adv-x="500" 
d="M265 736v1q7 7 18 12q12 5 24 5q11 0 24 -5t21 -13q10 -10 14 -19q5 -12 5 -23q0 -35 -25 -51l-133 -86q-9 -6 -18 -10q-7 -3 -12 -3q-19 0 -33 15q-13 14 -13 32q0 21 20 41z" />
    <glyph glyph-name="mu" unicode="&#xb5;" horiz-adv-x="592" 
d="M400 65v-4q-34 -75 -105 -75q-33 0 -50 16q-19 17 -26 39v-161q0 -32 -21 -53t-53 -21q-33 0 -55 21t-22 53v568q0 22 18 43t59 21t57 -19q17 -20 17 -45v-226q0 -46 19 -71q20 -26 58 -26q39 0 57 26q18 25 18 71v216q0 32 21 53t54 21q32 0 54 -21t22 -53v-256
q0 -18 5 -33q4 -13 17 -13q20 0 27 -19q8 -21 8 -39q0 -34 -21 -57q-21 -22 -65 -22q-43 0 -64 18q-22 19 -29 48z" />
    <glyph glyph-name="paragraph" unicode="&#xb6;" horiz-adv-x="573" 
d="M347 55l-2 -2q0 -24 -15 -39t-39 -15t-39 15t-15 39v265h-12q-41 0 -78 12t-66 36q-28 24 -45 59q-17 36 -17 81q0 38 15 72t42 61t65 42q37 15 84 15h218q24 0 39 -15t15 -39v-587q0 -24 -15 -39t-39 -15t-39 15t-15 39v532h-42v-532z" />
    <glyph glyph-name="periodcentered" unicode="&#xb7;" horiz-adv-x="500" 
d="M219 444l2 -1q37 0 63 -23q25 -22 25 -63q0 -46 -25 -65q-26 -20 -63 -20t-63 21q-25 21 -25 63q0 40 24 64t62 24z" />
    <glyph glyph-name="cedilla" unicode="&#xb8;" horiz-adv-x="500" 
d="M263 0l-4 -26q16 -3 29 -9q16 -7 26 -16q12 -10 19 -25q7 -14 7 -38q0 -28 -10 -48t-27 -34q-16 -13 -38 -21q-20 -7 -43 -7q-36 0 -51 12t-15 35q0 13 5 21t12 12t15 6q10 2 14 2q34 0 34 16q0 10 -9 13t-30 6q-9 1 -13 5q-3 3 -3 17v79h82z" />
    <glyph glyph-name="onesuperior" unicode="&#xb9;" horiz-adv-x="369" 
d="M270 395l2 -5q0 -22 -16 -37t-42 -15q-22 0 -39 14t-17 38v140l-14 -8q-6 -4 -18 -7q-10 -3 -21 -3q-23 0 -39 15t-16 38q0 13 6 24q6 10 14 15l103 76q11 8 23 11t18 3q25 0 41 -14q15 -14 15 -36v-249z" />
    <glyph glyph-name="ordmasculine" unicode="&#xba;" horiz-adv-x="454" 
d="M227 707v-1q43 0 81 -15q37 -15 64 -42t42 -64t15 -81t-15 -81t-42 -64t-64 -42q-38 -15 -81 -15t-81 15q-37 15 -64 42t-42 65t-15 81t15 81q15 37 42 64t64 42q38 15 81 15zM227 588v-2q-35 0 -52 -24q-16 -23 -16 -58q0 -34 16 -60q17 -27 52 -27t52 26q16 25 16 59
q0 35 -16 60q-17 26 -52 26z" />
    <glyph glyph-name="guillemotright" unicode="&#xbb;" horiz-adv-x="635" 
d="M311 291q5 -5 12 -15q8 -11 8 -27q0 -13 -6 -25q-6 -11 -14 -18l-195 -156q-7 -5 -16 -9t-21 -4q-22 0 -37 15t-15 36q0 12 5 24q4 10 18 21l146 117l-148 115q-14 11 -18 21q-4 9 -4 23q0 23 15 38t36 15q9 0 21 -5t17 -9zM591 291q5 -5 12 -15q8 -11 8 -27
q0 -13 -6 -25q-6 -11 -14 -18l-195 -156q-7 -5 -16 -9t-21 -4q-22 0 -37 15t-15 36q0 12 5 24q4 10 18 21l146 117l-148 115q-14 11 -18 21q-4 9 -4 23q0 23 15 38t36 15q9 0 21 -5t17 -9z" />
    <glyph glyph-name="onequarter" unicode="&#xbc;" horiz-adv-x="817" 
d="M270 395l2 -5q0 -22 -16 -37t-42 -15q-22 0 -39 14t-17 38v140l-14 -8q-6 -4 -18 -7q-10 -3 -21 -3q-23 0 -39 15t-16 38q0 13 6 24q6 10 14 15l103 76q11 8 23 11t18 3q25 0 41 -14q15 -14 15 -36v-249zM614 663l-2 -2q10 13 23 18q11 4 23 4q21 0 36 -15t15 -38
q0 -11 -4 -18q-6 -10 -10 -15l-468 -589q-11 -14 -22 -18t-21 -4q-26 0 -40 17q-13 16 -13 35q0 14 4 21q6 10 10 15zM762 134v-3q23 0 37 -7q15 -8 15 -31t-15 -30q-16 -8 -36 -8h-7v-11q0 -25 -16 -38q-17 -14 -42 -14q-23 0 -40 14q-16 13 -16 38v11h-135q-21 0 -33 12
t-12 32q0 23 19 45l140 168q17 20 35 26t41 6q25 0 42 -14t17 -36v-160h6zM643 131v99l-80 -99h80z" />
    <glyph glyph-name="onehalf" unicode="&#xbd;" horiz-adv-x="817" 
d="M270 395l2 -5q0 -22 -16 -37t-42 -15q-22 0 -39 14t-17 38v140l-14 -8q-6 -4 -18 -7q-10 -3 -21 -3q-23 0 -39 15t-16 38q0 13 6 24q6 10 14 15l103 76q11 8 23 11t18 3q25 0 41 -14q15 -14 15 -36v-249zM579 663l-2 -2q10 13 23 18q11 4 23 4q21 0 36 -15t15 -38
q0 -11 -4 -18q-6 -10 -10 -15l-468 -589q-11 -14 -22 -18t-21 -4q-26 0 -40 17q-13 16 -13 35q0 14 4 21q6 10 10 15zM614 172l-9 -3q29 23 39 36t10 22q0 8 -7 15t-24 7q-15 0 -25 -6t-18 -15q-11 -11 -22 -18q-12 -7 -28 -6q-23 2 -37 13q-15 12 -15 39q0 20 12 36
q12 17 32 29q21 13 47 20q29 8 59 8q67 0 107 -31q41 -32 41 -85q0 -32 -16 -54q-16 -23 -54 -51l-49 -36h78q25 0 41 -14q15 -14 15 -35q0 -23 -15 -36q-14 -13 -40 -13h-191q-4 0 -18 2q-9 1 -19 8q-9 6 -15 15t-6 24q0 11 6 23q6 13 13 18z" />
    <glyph glyph-name="threequarters" unicode="&#xbe;" horiz-adv-x="817" 
d="M185 564l-4 5q24 0 24 21q0 8 -7 14q-8 6 -24 6q-20 0 -33 -6q-15 -7 -24 -13q-15 -9 -33 -9q-19 0 -34 12t-15 32q0 24 29 47q6 6 38 19q30 12 78 12q36 0 63 -9q28 -9 45 -22q18 -13 27 -30q9 -16 9 -35q0 -22 -15 -45t-40 -30q19 -3 30 -10q12 -7 21 -18q8 -10 13 -22
q4 -11 4 -22q0 -25 -12 -48t-33 -39q-20 -16 -51 -25q-30 -9 -65 -9q-39 0 -66 7q-28 7 -54 24q-28 19 -28 45q0 19 17 33t39 14q17 0 27 -7q11 -7 29 -16q12 -6 34 -6q28 0 39 6t11 15q0 11 -8 17t-27 6h-20q-22 0 -39 11q-16 10 -16 33q0 24 18 33t44 9h9zM630 673l-2 -2
q10 13 23 18q11 4 23 4q21 0 36 -15t15 -38q0 -11 -4 -18q-6 -10 -10 -15l-468 -589q-11 -14 -22 -18t-21 -4q-26 0 -40 17q-13 16 -13 35q0 14 4 21q6 10 10 15zM756 144v-3q23 0 37 -7q15 -8 15 -31t-15 -30q-16 -8 -36 -8h-7v-11q0 -25 -16 -38q-17 -14 -42 -14
q-23 0 -40 14q-16 13 -16 38v11h-135q-21 0 -33 12t-12 32q0 23 19 45l140 168q17 20 35 26t41 6q25 0 42 -14t17 -36v-160h6zM637 141v99l-80 -99h80z" />
    <glyph glyph-name="questiondown" unicode="&#xbf;" horiz-adv-x="568" 
d="M387 169l-3 2q0 -31 -20 -51t-45 -27q-52 -14 -72 -28q-21 -15 -21 -40q0 -23 15 -38t50 -15q23 0 42 12q19 11 36 32q13 18 27 27t39 9q35 0 53 -21t18 -51q0 -32 -12 -51q-13 -21 -22 -30q-30 -33 -73 -53q-45 -21 -114 -21q-47 0 -86 12q-40 12 -68 36q-29 24 -45 60
q-16 35 -16 86q0 73 44 117t125 71v31q0 31 20 51t54 20q35 0 54 -19q20 -20 20 -51v-70zM309 354q-36 0 -62 24t-26 64q0 41 26 64q25 22 62 22q39 0 62 -22q24 -22 24 -64q0 -40 -24 -64t-62 -24z" />
    <glyph glyph-name="Agrave" unicode="&#xc0;" 
d="M477 139l-264 -2l-35 -91q-10 -27 -28 -37q-17 -10 -43 -10q-36 0 -56 19q-21 20 -21 51q0 11 2 23q2 10 6 17l222 517q14 31 34 47q22 17 54 17t54 -17q21 -17 35 -47l222 -517q7 -13 7 -32q0 -35 -24 -56t-58 -21q-28 0 -45 12t-26 35zM263 265h163l-82 209zM448 830
v-4q20 -20 20 -41q0 -18 -13 -32q-13 -15 -33 -15q-4 0 -12 3q-9 4 -18 10l-133 86q-25 16 -25 51q0 11 5 23q5 11 14 20q10 10 21 14q13 5 24 5q15 0 24 -4q10 -4 18 -12z" />
    <glyph glyph-name="Aacute" unicode="&#xc1;" 
d="M477 139l-264 -2l-35 -91q-10 -27 -28 -37q-17 -10 -43 -10q-36 0 -56 19q-21 20 -21 51q0 11 2 23q2 10 6 17l222 517q14 31 34 47q22 17 54 17t54 -17q21 -17 35 -47l222 -517q7 -13 7 -32q0 -35 -24 -56t-58 -21q-28 0 -45 12t-26 35zM263 265h163l-82 209zM362 934v1
q8 7 18 12q12 5 24 5q11 0 24 -5t21 -13q10 -10 14 -19q5 -12 5 -23q0 -35 -25 -51l-133 -86q-9 -6 -18 -10q-8 -3 -12 -3q-20 0 -33 15q-13 14 -13 32q0 21 20 41z" />
    <glyph glyph-name="Acircumflex" unicode="&#xc2;" 
d="M477 139l-264 -2l-35 -91q-10 -27 -28 -37q-17 -10 -43 -10q-36 0 -56 19q-21 20 -21 51q0 11 2 23q2 10 6 17l222 517q14 31 34 47q22 17 54 17t54 -17q21 -17 35 -47l222 -517q7 -13 7 -32q0 -35 -24 -56t-58 -21q-28 0 -45 12t-26 35zM263 265h163l-82 209zM503 816
l-2 -3q11 -12 14 -18q5 -8 5 -18q0 -13 -11 -26q-11 -12 -27 -12q-7 0 -11 1q-5 1 -16 9l-101 68l-101 -68q-9 -5 -16 -7q-4 -1 -11 -1q-16 0 -27 12q-11 13 -11 26q0 10 5 18q3 6 14 18l108 116q8 8 17 14t24 6t24 -6q12 -8 17 -13z" />
    <glyph glyph-name="Atilde" unicode="&#xc3;" 
d="M477 139l-264 -2l-35 -91q-10 -27 -28 -37q-17 -10 -43 -10q-36 0 -56 19q-21 20 -21 51q0 11 2 23q2 10 6 17l222 517q14 31 34 47q22 17 54 17t54 -17q21 -17 35 -47l222 -517q7 -13 7 -32q0 -35 -24 -56t-58 -21q-28 0 -45 12t-26 35zM263 265h163l-82 209zM271 918
l-6 -2q23 0 43 -5q15 -4 33 -11q20 -8 30 -11q17 -5 34 -5q12 0 21 3q8 3 18 14q6 8 14 14t21 6q20 0 35 -16q15 -17 15 -42q0 -38 -25 -63q-27 -30 -66 -30q-28 0 -47 6q-23 7 -36 13q-4 2 -32 13q-15 6 -34 6q-29 0 -45 -22q-6 -6 -18 -13q-10 -6 -27 -6q-22 0 -34 15
t-12 37q0 9 5 26q4 15 17 29q15 17 39 31q22 13 57 13z" />
    <glyph glyph-name="Adieresis" unicode="&#xc4;" 
d="M477 139l-264 -2l-35 -91q-10 -27 -28 -37q-17 -10 -43 -10q-36 0 -56 19q-21 20 -21 51q0 11 2 23q2 10 6 17l222 517q14 31 34 47q22 17 54 17t54 -17q21 -17 35 -47l222 -517q7 -13 7 -32q0 -35 -24 -56t-58 -21q-28 0 -45 12t-26 35zM263 265h163l-82 209zM259 898
l-1 -1q28 0 48 -18t20 -49q0 -35 -19 -51t-48 -16t-49 17q-19 16 -19 50q0 32 18 50t50 18zM434 897h1q29 0 48 -18q20 -18 20 -49q0 -34 -20 -51q-19 -16 -48 -16q-28 0 -48 17q-19 16 -19 50q0 31 18 49t48 18z" />
    <glyph glyph-name="Aring" unicode="&#xc5;" 
d="M477 139l-264 -2l-35 -91q-10 -27 -28 -37q-17 -10 -43 -10q-36 0 -56 19q-21 20 -21 51q0 11 2 23q2 10 6 17l222 517q14 31 34 47q22 17 54 17t54 -17q21 -17 35 -47l222 -517q7 -13 7 -32q0 -35 -24 -56t-58 -21q-28 0 -45 12t-26 35zM263 265h163l-82 209zM347 987
v-1q54 0 87 -34t33 -90q0 -54 -33 -88t-87 -34t-87 34t-33 88q0 56 33 90q33 35 87 35zM347 902l-2 -1q-16 0 -27 -11q-10 -10 -10 -27q0 -16 11 -27q10 -10 27 -10q16 0 27 11t11 27q0 17 -10 27q-11 11 -27 11z" />
    <glyph glyph-name="AE" unicode="&#xc6;" horiz-adv-x="939" 
d="M830 138l-2 -4q35 0 54 -19t19 -51t-18 -50t-53 -18h-355q-37 0 -58 21t-21 56v72h-164l-65 -110q-12 -19 -27 -30q-14 -10 -36 -10q-13 0 -30 5q-14 4 -27 14q-11 8 -19 23q-7 13 -7 33t14 43l311 514q17 29 41 44t62 15h378q35 0 54 -18q20 -18 20 -50t-19 -50
q-20 -18 -54 -18h-277v-134h167q35 0 56 -18t21 -50t-21 -50t-55 -18h-167v-142h278zM292 283h102v185z" />
    <glyph glyph-name="Ccedilla" unicode="&#xc7;" horiz-adv-x="687" 
d="M521 470l-11 -7q-12 13 -33 34q-13 13 -32 25q-17 10 -36 15q-22 5 -46 5q-77 0 -122 -55t-45 -153q0 -92 47 -145q46 -52 134 -52q23 0 45 5q18 4 36 14q16 9 32 23q20 18 32 30q10 10 23 15q11 4 26 4q16 0 27 -7q12 -7 21 -18q10 -12 14 -22q5 -13 5 -23q0 -13 -5 -31
q-5 -17 -18 -33q-17 -19 -36 -35q-22 -19 -49 -33q-31 -16 -64 -26q-36 -11 -79 -12v-19q16 -3 29 -9q16 -7 26 -16q12 -10 19 -25q7 -14 7 -38q0 -28 -10 -48t-27 -34q-16 -13 -38 -21q-20 -7 -43 -7q-36 0 -51 12t-15 35q0 13 5 21q5 7 12 12t15 6q10 2 14 2q34 0 34 16
q0 10 -9 13t-30 6q-9 1 -13 5q-3 3 -3 17v74q-61 10 -111 39q-49 28 -84 74t-53 105q-18 60 -18 131q0 79 24 145q25 68 67 113q44 47 104 74t134 27q60 0 105 -15q44 -15 77 -35t51 -40q21 -23 27 -31q8 -15 11 -27q3 -14 3 -27q0 -20 -7 -33q-8 -14 -18 -23
q-10 -8 -24 -13q-12 -4 -24 -4q-15 0 -27 4q-14 4 -25 16z" />
    <glyph glyph-name="Egrave" unicode="&#xc8;" horiz-adv-x="606" 
d="M504 138l-4 -4q34 0 54 -18q19 -18 19 -50t-19 -50q-20 -18 -54 -18h-356q-38 0 -57 21q-20 22 -20 56v534q0 35 21 56t59 21h354q35 0 54 -18q20 -18 20 -50t-19 -50q-20 -18 -54 -18h-277v-134h167q35 0 56 -18t21 -50t-21 -50t-55 -18h-167v-142h278zM420 828v-4
q20 -20 20 -41q0 -18 -13 -32q-13 -15 -33 -15q-4 0 -12 3q-9 4 -18 10l-133 86q-25 16 -25 51q0 11 5 23q5 11 14 20q10 10 21 14q13 5 24 5q15 0 24 -4q10 -4 18 -12z" />
    <glyph glyph-name="Eacute" unicode="&#xc9;" horiz-adv-x="606" 
d="M504 138l-4 -4q34 0 54 -18q19 -18 19 -50t-19 -50q-20 -18 -54 -18h-356q-38 0 -57 21q-20 22 -20 56v534q0 35 21 56t59 21h354q35 0 54 -18q20 -18 20 -50t-19 -50q-20 -18 -54 -18h-277v-134h167q35 0 56 -18t21 -50t-21 -50t-55 -18h-167v-142h278zM334 932v1
q8 7 18 12q12 5 24 5q11 0 24 -5t21 -13q10 -10 14 -19q5 -12 5 -23q0 -35 -25 -51l-133 -86q-9 -6 -18 -10q-8 -3 -12 -3q-20 0 -33 15q-13 14 -13 32q0 21 20 41z" />
    <glyph glyph-name="Ecircumflex" unicode="&#xca;" horiz-adv-x="606" 
d="M504 138l-4 -4q34 0 54 -18q19 -18 19 -50t-19 -50q-20 -18 -54 -18h-356q-38 0 -57 21q-20 22 -20 56v534q0 35 21 56t59 21h354q35 0 54 -18q20 -18 20 -50t-19 -50q-20 -18 -54 -18h-277v-134h167q35 0 56 -18t21 -50t-21 -50t-55 -18h-167v-142h278zM475 814l-2 -3
q11 -12 14 -18q5 -8 5 -18q0 -13 -11 -26q-11 -12 -27 -12q-7 0 -11 1q-5 1 -16 9l-101 68l-101 -68q-9 -5 -16 -7q-4 -1 -11 -1q-16 0 -27 12q-11 13 -11 26q0 10 5 18q3 6 14 18l108 116q8 8 17 14t24 6t24 -6q12 -8 17 -13z" />
    <glyph glyph-name="Edieresis" unicode="&#xcb;" horiz-adv-x="606" 
d="M504 138l-4 -4q34 0 54 -18q19 -18 19 -50t-19 -50q-20 -18 -54 -18h-356q-38 0 -57 21q-20 22 -20 56v534q0 35 21 56t59 21h354q35 0 54 -18q20 -18 20 -50t-19 -50q-20 -18 -54 -18h-277v-134h167q35 0 56 -18t21 -50t-21 -50t-55 -18h-167v-142h278zM231 896l-1 -1
q28 0 48 -18t20 -49q0 -35 -19 -51t-48 -16t-49 17q-19 16 -19 50q0 32 18 50t50 18zM406 895h1q29 0 48 -18q20 -18 20 -49q0 -34 -20 -51q-19 -16 -48 -16q-28 0 -48 17q-19 16 -19 50q0 31 18 49t48 18z" />
    <glyph glyph-name="Igrave" unicode="&#xcc;" horiz-adv-x="296" 
d="M70 612q0 35 21 56t56 21t56 -21t21 -56v-534q0 -35 -21 -56t-56 -21t-56 21t-21 56v534zM249 832v-4q20 -20 20 -41q0 -18 -13 -32q-14 -15 -33 -15q-5 0 -12 3q-9 4 -18 10l-133 86q-25 16 -25 51q0 11 5 23q5 11 14 20q10 10 21 14q13 5 24 5q15 0 24 -4q11 -4 18 -12
z" />
    <glyph glyph-name="Iacute" unicode="&#xcd;" horiz-adv-x="296" 
d="M70 612q0 35 21 56t56 21t56 -21t21 -56v-534q0 -35 -21 -56t-56 -21t-56 21t-21 56v534zM163 936v1q7 7 18 12q12 5 24 5q11 0 24 -5t21 -13q10 -10 14 -19q5 -12 5 -23q0 -35 -25 -51l-133 -86q-9 -6 -18 -10q-7 -3 -12 -3q-19 0 -33 15q-13 14 -13 32q0 21 20 41z" />
    <glyph glyph-name="Icircumflex" unicode="&#xce;" horiz-adv-x="296" 
d="M70 612q0 35 21 56t56 21t56 -21t21 -56v-534q0 -35 -21 -56t-56 -21t-56 21t-21 56v534zM304 818l-2 -3q11 -12 14 -18q5 -8 5 -18q0 -13 -11 -26q-10 -12 -27 -12q-7 0 -11 1q-5 1 -16 9l-101 68l-101 -68q-9 -5 -16 -7q-4 -1 -11 -1q-17 0 -27 12q-11 13 -11 26
q0 10 5 18q3 6 14 18l108 116q8 8 17 14t24 6t24 -6q12 -8 17 -13z" />
    <glyph glyph-name="Idieresis" unicode="&#xcf;" horiz-adv-x="296" 
d="M70 612q0 35 21 56t56 21t56 -21t21 -56v-534q0 -35 -21 -56t-56 -21t-56 21t-21 56v534zM60 900l-1 -1q29 0 48 -18q20 -18 20 -49q0 -35 -19 -51t-48 -16t-49 17q-19 16 -19 50q0 32 18 50t50 18zM235 899h1q28 0 48 -18t20 -49q0 -34 -20 -51q-19 -16 -48 -16
q-28 0 -48 17q-19 16 -19 50q0 31 18 49t48 18z" />
    <glyph glyph-name="Eth" unicode="&#xd0;" horiz-adv-x="702" 
d="M342 690l1 1q71 0 129 -24t99 -69t63 -108q23 -64 23 -142t-24 -142t-66 -109t-100 -70q-57 -25 -126 -25h-194q-42 0 -60 21t-18 56v208h-8q-31 0 -54 20q-22 19 -22 54q0 34 23 54t54 20h8v178q0 36 19 56q19 21 60 21h193zM332 139l-1 -3q83 0 125 54t42 155t-43 153
q-44 53 -129 53h-100v-118h58q32 0 54 -19q23 -20 23 -54q0 -35 -22 -54t-54 -19h-58v-148h105z" />
    <glyph glyph-name="Ntilde" unicode="&#xd1;" 
d="M470 614l-5 -3q0 35 23 56q22 21 56 21t56 -21q23 -21 23 -55v-538q0 -31 -20 -54q-19 -22 -54 -22q-21 0 -39 8q-16 7 -31 27l-255 334v-293q0 -34 -22 -55t-55 -21t-55 21t-22 56v529q0 19 4 32q4 14 14 27q8 11 24 19q14 7 36 7q20 0 35 -7q17 -8 30 -27l257 -360v319
zM267 917l-6 -2q23 0 43 -5q15 -4 33 -11q20 -8 30 -11q17 -5 34 -5q12 0 21 3q8 3 18 14q6 8 14 14t21 6q20 0 35 -16t15 -42q0 -38 -25 -63q-27 -30 -66 -30q-28 0 -47 6q-23 7 -36 13q-4 2 -32 13q-15 6 -34 6q-29 0 -45 -22q-6 -6 -18 -13q-10 -6 -27 -6q-22 0 -34 15
t-12 37q0 9 5 26q4 15 17 29q15 17 39 31q22 13 57 13z" />
    <glyph glyph-name="Ograve" unicode="&#xd2;" horiz-adv-x="752" 
d="M376 700q75 0 135 -25q61 -25 105 -72q45 -48 68 -112q24 -66 24 -147t-24 -147q-23 -64 -68 -112q-44 -47 -105 -72q-60 -25 -135 -25t-134 25q-61 26 -104 72q-45 48 -68 112q-24 66 -24 147t24 147q23 64 68 112q43 46 104 72q59 25 134 25zM376 548q-76 0 -123 -54
q-47 -55 -47 -149t47 -149q47 -54 123 -54t123 54q47 55 47 149t-47 149q-47 54 -123 54zM477 832v-4q20 -20 20 -41q0 -18 -13 -32q-14 -15 -33 -15q-5 0 -12 3q-9 4 -18 10l-133 86q-25 16 -25 51q0 11 5 23q4 11 14 20q10 10 21 14q13 5 24 5q15 0 24 -4q11 -4 18 -12z
" />
    <glyph glyph-name="Oacute" unicode="&#xd3;" horiz-adv-x="752" 
d="M376 700q75 0 135 -25q61 -25 105 -72q45 -48 68 -112q24 -66 24 -147t-24 -147q-23 -64 -68 -112q-44 -47 -105 -72q-60 -25 -135 -25t-134 25q-61 26 -104 72q-45 48 -68 112q-24 66 -24 147t24 147q23 64 68 112q43 46 104 72q59 25 134 25zM376 548q-76 0 -123 -54
q-47 -55 -47 -149t47 -149q47 -54 123 -54t123 54q47 55 47 149t-47 149q-47 54 -123 54zM391 936v1q7 7 18 12q12 5 24 5q11 0 24 -5t21 -13q10 -10 14 -19q5 -12 5 -23q0 -35 -25 -51l-133 -86q-9 -6 -18 -10q-7 -3 -12 -3q-19 0 -33 15q-13 14 -13 32q0 21 20 41z" />
    <glyph glyph-name="Ocircumflex" unicode="&#xd4;" horiz-adv-x="752" 
d="M376 700q75 0 135 -25q61 -25 105 -72q45 -48 68 -112q24 -66 24 -147t-24 -147q-23 -64 -68 -112q-44 -47 -105 -72q-60 -25 -135 -25t-134 25q-61 26 -104 72q-45 48 -68 112q-24 66 -24 147t24 147q23 64 68 112q43 46 104 72q59 25 134 25zM376 548q-76 0 -123 -54
q-47 -55 -47 -149t47 -149q47 -54 123 -54t123 54q47 55 47 149t-47 149q-47 54 -123 54zM532 818l-2 -3q11 -12 14 -18q5 -8 5 -18q0 -13 -11 -26q-10 -12 -27 -12q-7 0 -11 1q-5 1 -16 9l-101 68l-101 -68q-9 -5 -16 -7q-4 -1 -11 -1q-17 0 -27 12q-11 13 -11 26
q0 10 5 18q3 6 14 18l108 116q8 8 17 14t24 6t24 -6q12 -8 17 -13z" />
    <glyph glyph-name="Otilde" unicode="&#xd5;" horiz-adv-x="752" 
d="M376 700q75 0 135 -25q61 -25 105 -72q45 -48 68 -112q24 -66 24 -147t-24 -147q-23 -64 -68 -112q-44 -47 -105 -72q-60 -25 -135 -25t-134 25q-61 26 -104 72q-45 48 -68 112q-24 66 -24 147t24 147q23 64 68 112q43 46 104 72q59 25 134 25zM376 548q-76 0 -123 -54
q-47 -55 -47 -149t47 -149q47 -54 123 -54t123 54q47 55 47 149t-47 149q-47 54 -123 54zM300 920l-6 -2q23 0 43 -5q15 -4 33 -11q20 -8 30 -11q17 -5 34 -5q12 0 21 3q8 3 18 14q6 8 14 14q7 6 21 6q20 0 35 -16q15 -17 15 -42q0 -38 -25 -63q-27 -30 -66 -30q-28 0 -47 6
q-23 7 -36 13q-4 2 -32 13q-15 6 -34 6q-29 0 -45 -22q-6 -6 -18 -13q-11 -6 -27 -6q-22 0 -34 15t-12 37q0 9 5 26q4 15 17 29q15 17 39 31q22 13 57 13z" />
    <glyph glyph-name="Odieresis" unicode="&#xd6;" horiz-adv-x="752" 
d="M376 700q75 0 135 -25q61 -25 105 -72q45 -48 68 -112q24 -66 24 -147t-24 -147q-23 -64 -68 -112q-44 -47 -105 -72q-60 -25 -135 -25t-134 25q-61 26 -104 72q-45 48 -68 112q-24 66 -24 147t24 147q23 64 68 112q43 46 104 72q59 25 134 25zM376 548q-76 0 -123 -54
q-47 -55 -47 -149t47 -149q47 -54 123 -54t123 54q47 55 47 149t-47 149q-47 54 -123 54zM288 900l-1 -1q29 0 48 -18q20 -18 20 -49q0 -35 -19 -51t-48 -16t-49 17q-19 16 -19 50q0 32 18 50t50 18zM463 899h1q28 0 48 -18t20 -49q0 -34 -20 -51q-19 -16 -48 -16
q-28 0 -48 17q-19 16 -19 50q0 31 18 49t48 18z" />
    <glyph glyph-name="multiply" unicode="&#xd7;" horiz-adv-x="628" 
d="M401 480l-4 2q16 16 39 16q22 0 39 -16q18 -16 18 -40q0 -22 -17 -39l-87 -87l87 -87q17 -17 17 -39t-16 -38q-17 -17 -39 -17q-23 0 -39 16l-87 88l-87 -87q-17 -17 -36 -17q-21 0 -39 15t-18 39q0 22 17 39l88 88l-87 87q-17 17 -17 36q0 23 16 40q16 18 40 18
q21 0 38 -17l87 -87z" />
    <glyph glyph-name="Oslash" unicode="&#xd8;" horiz-adv-x="752" 
d="M619 599l3 -4q43 -47 65 -111q23 -66 23 -144q0 -81 -24 -147q-23 -64 -68 -112q-44 -47 -105 -72q-60 -25 -135 -25q-90 0 -159 36l-6 -8q-12 -16 -25 -22q-14 -6 -25 -6q-23 0 -39 15t-16 39q0 14 4 22q5 10 9 14l11 16q-40 46 -63 110q-22 62 -22 141q0 81 24 147
q23 64 68 112q43 46 104 72q59 25 134 25q84 0 153 -34l6 9q10 16 23 21t24 5q26 0 41 -15t15 -37q0 -14 -3 -21q-3 -8 -7 -12zM550 341h1q0 68 -25 115l-215 -305q29 -13 69 -13q76 0 123 54q47 55 47 149zM380 544h-1q-77 0 -123 -54q-47 -55 -47 -149q0 -67 22 -110
l211 302q-31 11 -62 11z" />
    <glyph glyph-name="Ugrave" unicode="&#xd9;" horiz-adv-x="718" 
d="M497 612v-1q0 35 21 56t56 21t56 -21t21 -56v-333q0 -63 -20 -118q-19 -53 -57 -91q-36 -36 -92 -58q-54 -21 -124 -21t-124 21q-56 22 -92 58q-38 37 -57 90q-20 54 -20 117v337q0 35 21 56t56 21t56 -21t21 -56v-312q0 -83 33 -121q33 -37 106 -37t106 38q33 37 33 123
v308zM460 831v-4q20 -20 20 -41q0 -18 -13 -32q-13 -15 -33 -15q-4 0 -12 3q-9 4 -18 10l-133 86q-25 16 -25 51q0 11 5 23q5 10 14 20q10 10 21 14q13 5 24 5q15 0 24 -4q10 -5 18 -12z" />
    <glyph glyph-name="Uacute" unicode="&#xda;" horiz-adv-x="718" 
d="M497 612v-1q0 35 21 56t56 21t56 -21t21 -56v-333q0 -63 -20 -118q-19 -53 -57 -91q-36 -36 -92 -58q-54 -21 -124 -21t-124 21q-56 22 -92 58q-38 37 -57 90q-20 54 -20 117v337q0 35 21 56t56 21t56 -21t21 -56v-312q0 -83 33 -121q33 -37 106 -37t106 38q33 37 33 123
v308zM374 935v1q8 8 18 12q12 5 24 5q11 0 24 -5t21 -13q10 -10 14 -19q5 -12 5 -23q0 -35 -25 -51l-133 -86q-9 -6 -18 -10q-8 -3 -12 -3q-20 0 -33 15q-13 14 -13 32q0 21 20 41z" />
    <glyph glyph-name="Ucircumflex" unicode="&#xdb;" horiz-adv-x="718" 
d="M497 612v-1q0 35 21 56t56 21t56 -21t21 -56v-333q0 -63 -20 -118q-19 -53 -57 -91q-36 -36 -92 -58q-54 -21 -124 -21t-124 21q-56 22 -92 58q-38 37 -57 90q-20 54 -20 117v337q0 35 21 56t56 21t56 -21t21 -56v-312q0 -83 33 -121q33 -37 106 -37t106 38q33 37 33 123
v308zM515 817l-2 -3q11 -12 14 -18q5 -8 5 -18q0 -13 -11 -26q-11 -12 -27 -12q-7 0 -11 1q-5 1 -16 9l-101 68l-101 -68q-9 -5 -16 -7q-4 -1 -11 -1q-16 0 -27 12q-11 13 -11 26q0 10 5 18q3 6 14 18l108 116q8 8 17 14t24 6t24 -6q12 -8 17 -13z" />
    <glyph glyph-name="Udieresis" unicode="&#xdc;" horiz-adv-x="718" 
d="M497 612v-1q0 35 21 56t56 21t56 -21t21 -56v-333q0 -63 -20 -118q-19 -53 -57 -91q-36 -36 -92 -58q-54 -21 -124 -21t-124 21q-56 22 -92 58q-38 37 -57 90q-20 54 -20 117v337q0 35 21 56t56 21t56 -21t21 -56v-312q0 -83 33 -121q33 -37 106 -37t106 38q33 37 33 123
v308zM271 899l-1 -1q28 0 48 -18t20 -49q0 -35 -19 -51t-48 -16t-49 17q-19 16 -19 50q0 32 18 50t50 18zM446 898h1q29 0 48 -18q20 -18 20 -49q0 -34 -20 -51q-19 -16 -48 -16q-28 0 -48 17q-19 16 -19 50q0 31 18 49t48 18z" />
    <glyph glyph-name="Yacute" unicode="&#xdd;" horiz-adv-x="641" 
d="M466 645l-5 -1q13 22 29 33t44 11q12 0 27 -5q13 -4 24 -14t17 -21q6 -12 6 -26q0 -16 -8 -37q-8 -19 -15 -33l-189 -306v-169q0 -35 -21 -56t-56 -21t-56 21t-21 56v169l-200 326q-6 9 -9 21t-3 23q0 29 19 51t57 22q18 0 33 -7q17 -8 29 -27l154 -260zM330 935v1
q8 8 18 12q12 5 24 5q11 0 24 -5t21 -13q10 -10 14 -19q5 -12 5 -23q0 -35 -25 -51l-133 -86q-9 -6 -18 -10q-8 -3 -12 -3q-20 0 -33 15q-13 14 -13 32q0 21 20 41z" />
    <glyph glyph-name="Thorn" unicode="&#xde;" horiz-adv-x="637" 
d="M70 612h-1q0 35 21 56t56 21t56 -21t21 -56v-27h105q60 0 111 -17q49 -16 86 -47q35 -29 55 -74t20 -97q0 -54 -20 -100q-19 -43 -56 -76q-36 -32 -87 -48q-49 -16 -112 -16h-101v-32q0 -35 -21 -56t-56 -21t-56 21t-21 56v534zM225 447v-200h101q54 0 84 27t30 75
q0 47 -30 73q-29 25 -86 25h-99z" />
    <glyph glyph-name="germandbls" unicode="&#xdf;" horiz-adv-x="660" 
d="M65 481v-3q0 52 18 92t51 69q34 29 78 44q45 15 98 15q58 0 105 -18t78 -49t48 -72q17 -42 17 -87q0 -36 -15 -61t-60 -27h-18q-11 0 -18 -3q-8 -3 -13 -7q-6 -4 -6 -12q0 -14 15 -24t39 -21q6 -3 23.5 -10.5t27.5 -11.5q27 -12 51 -30t39 -45t15 -64q0 -40 -18 -72
q-18 -31 -46 -52q-29 -21 -64 -33q-36 -12 -73 -12q-35 0 -63 9q-30 10 -51 22q-21 13 -37 30q-14 16 -19 31q-1 1 -3 9q-1 5 -1 15q0 25 18 45t48 20q17 0 29 -6q11 -5 21 -14q11 -10 26 -21q12 -9 32 -9q17 0 30 9t13 27t-16 30q-16 11 -40 22q-24 10 -51 21t-51 27
q-25 17 -39 40q-15 24 -15 61q0 58 38 87t95 38q-1 40 -26 65q-24 24 -66 24q-43 0 -68 -25q-26 -26 -26 -64v-406q0 -34 -21 -54q-22 -20 -54 -20t-54 20q-21 20 -21 54v407z" />
    <glyph glyph-name="agrave" unicode="&#xe0;" horiz-adv-x="633" 
d="M563 179v-3q0 -23 6 -32t14 -9q17 0 27 -15q10 -14 10 -43q0 -79 -97 -79q-51 0 -78 27q-26 26 -34 62l-1 4q-22 -50 -63 -76q-40 -25 -96 -25q-43 0 -82 18q-38 18 -69 53q-30 34 -48 83q-18 48 -18 110q0 65 19 113q19 49 51 84t73 54t86 19q59 0 93 -24t54 -66v16
q0 29 21 47t55 18q35 0 56 -18t21 -46v-272zM301 125q23 0 42 9q21 10 35 25q15 17 24 40q9 24 9 55q0 61 -29 96t-81 35q-53 0 -81 -36q-29 -37 -29 -96q0 -30 9 -54q9 -23 24 -40q14 -15 35 -25q19 -9 42 -9zM417 629v-4q20 -20 20 -41q0 -18 -13 -32q-14 -15 -33 -15
q-5 0 -12 3q-9 4 -18 10l-133 86q-25 16 -25 51q0 11 5 23q4 10 14 20t21 14q13 5 24 5q15 0 24 -4q11 -5 18 -12z" />
    <glyph glyph-name="aacute" unicode="&#xe1;" horiz-adv-x="633" 
d="M563 179v-3q0 -23 6 -32t14 -9q17 0 27 -15q10 -14 10 -43q0 -79 -97 -79q-51 0 -78 27q-26 26 -34 62l-1 4q-22 -50 -63 -76q-40 -25 -96 -25q-43 0 -82 18q-38 18 -69 53q-30 34 -48 83q-18 48 -18 110q0 65 19 113q19 49 51 84t73 54t86 19q59 0 93 -24t54 -66v16
q0 29 21 47t55 18q35 0 56 -18t21 -46v-272zM301 125q23 0 42 9q21 10 35 25q15 17 24 40q9 24 9 55q0 61 -29 96t-81 35q-53 0 -81 -36q-29 -37 -29 -96q0 -30 9 -54q9 -23 24 -40q14 -15 35 -25q19 -9 42 -9zM311 733v1q7 8 18 12q12 5 24 5q11 0 24 -5t21 -13
q10 -10 14 -19q5 -12 5 -23q0 -35 -25 -51l-133 -86q-9 -6 -18 -10q-7 -3 -12 -3q-19 0 -33 15q-13 14 -13 32q0 21 20 41z" />
    <glyph glyph-name="acircumflex" unicode="&#xe2;" horiz-adv-x="633" 
d="M563 179v-3q0 -23 6 -32t14 -9q17 0 27 -15q10 -14 10 -43q0 -79 -97 -79q-51 0 -78 27q-26 26 -34 62l-1 4q-22 -50 -63 -76q-40 -25 -96 -25q-43 0 -82 18q-38 18 -69 53q-30 34 -48 83q-18 48 -18 110q0 65 19 113q19 49 51 84t73 54t86 19q59 0 93 -24t54 -66v16
q0 29 21 47t55 18q35 0 56 -18t21 -46v-272zM301 125q23 0 42 9q21 10 35 25q15 17 24 40q9 24 9 55q0 61 -29 96t-81 35q-53 0 -81 -36q-29 -37 -29 -96q0 -30 9 -54q9 -23 24 -40q14 -15 35 -25q19 -9 42 -9zM452 615l-2 -3q11 -12 14 -18q5 -8 5 -18q0 -13 -11 -26
q-10 -12 -27 -12q-7 0 -11 1q-5 1 -16 9l-101 68l-101 -68q-9 -5 -16 -7q-4 -1 -11 -1q-17 0 -27 12q-11 13 -11 26q0 10 5 18q3 6 14 18l108 116q8 8 17 14t24 6t24 -6q12 -8 17 -13z" />
    <glyph glyph-name="atilde" unicode="&#xe3;" horiz-adv-x="633" 
d="M563 179v-3q0 -23 6 -32t14 -9q17 0 27 -15q10 -14 10 -43q0 -79 -97 -79q-51 0 -78 27q-26 26 -34 62l-1 4q-22 -50 -63 -76q-40 -25 -96 -25q-43 0 -82 18q-38 18 -69 53q-30 34 -48 83q-18 48 -18 110q0 65 19 113q19 49 51 84t73 54t86 19q59 0 93 -24t54 -66v16
q0 29 21 47t55 18q35 0 56 -18t21 -46v-272zM301 125q23 0 42 9q21 10 35 25q15 17 24 40q9 24 9 55q0 61 -29 96t-81 35q-53 0 -81 -36q-29 -37 -29 -96q0 -30 9 -54q9 -23 24 -40q14 -15 35 -25q19 -9 42 -9zM240 717l-6 -2q23 0 43 -5q15 -4 33 -11q20 -8 30 -11
q17 -5 34 -5q12 0 21 3q8 3 18 14q6 8 14 14q7 6 21 6q20 0 35 -16t15 -42q0 -38 -25 -63q-27 -30 -66 -30q-27 0 -47 6q-23 7 -36 13q-4 2 -32 13q-15 6 -34 6q-29 0 -45 -22q-6 -6 -18 -13q-11 -6 -27 -6q-22 0 -34 15t-12 37q0 9 5 26q4 15 17 29q15 17 39 31
q22 13 57 13z" />
    <glyph glyph-name="adieresis" unicode="&#xe4;" horiz-adv-x="633" 
d="M563 179v-3q0 -23 6 -32t14 -9q17 0 27 -15q10 -14 10 -43q0 -79 -97 -79q-51 0 -78 27q-26 26 -34 62l-1 4q-22 -50 -63 -76q-40 -25 -96 -25q-43 0 -82 18q-38 18 -69 53q-30 34 -48 83q-18 48 -18 110q0 65 19 113q19 49 51 84t73 54t86 19q59 0 93 -24t54 -66v16
q0 29 21 47t55 18q35 0 56 -18t21 -46v-272zM301 125q23 0 42 9q21 10 35 25q15 17 24 40q9 24 9 55q0 61 -29 96t-81 35q-53 0 -81 -36q-29 -37 -29 -96q0 -30 9 -54q9 -23 24 -40q14 -15 35 -25q19 -9 42 -9zM218 697l-1 -1q29 0 48 -18q20 -18 20 -49q0 -35 -19 -51
t-48 -16t-49 17q-19 16 -19 50q0 32 18 50t50 18zM393 696h1q28 0 48 -18t20 -49q0 -34 -20 -51q-19 -16 -48 -16q-28 0 -48 17q-19 16 -19 50q0 31 18 49t48 18z" />
    <glyph glyph-name="aring" unicode="&#xe5;" horiz-adv-x="633" 
d="M563 179v-3q0 -23 6 -32t14 -9q17 0 27 -15q10 -14 10 -43q0 -79 -97 -79q-51 0 -78 27q-26 26 -34 62l-1 4q-22 -50 -63 -76q-40 -25 -96 -25q-43 0 -82 18q-38 18 -69 53q-30 34 -48 83q-18 48 -18 110q0 65 19 113q19 49 51 84t73 54t86 19q59 0 93 -24t54 -66v16
q0 29 21 47t55 18q35 0 56 -18t21 -46v-272zM301 125q23 0 42 9q21 10 35 25q15 17 24 40q9 24 9 55q0 61 -29 96t-81 35q-53 0 -81 -36q-29 -37 -29 -96q0 -30 9 -54q9 -23 24 -40q14 -15 35 -25q19 -9 42 -9zM296 786v-1q54 0 87 -34q33 -35 33 -90q0 -53 -33 -88
q-33 -34 -87 -34t-87 34q-33 35 -33 88q0 55 33 90t87 35zM296 701l-2 -1q-16 0 -27 -11q-10 -10 -10 -27q0 -16 11 -27q10 -10 27 -10q16 0 27 11t11 27q0 17 -10 27q-11 11 -27 11z" />
    <glyph glyph-name="ae" unicode="&#xe6;" horiz-adv-x="942" 
d="M543 441l-1 -3q23 45 56 65q34 20 75 20q52 0 93 -19q42 -20 72 -51q31 -32 47 -72q17 -42 17 -84q0 -36 -12 -60t-50 -24h-273q10 -45 41 -66q30 -21 71 -21q18 0 36 5q14 4 30 11q15 7 23 12q10 7 14 8q20 9 33 9q29 0 47 -21t18 -47q0 -20 -10 -34q-11 -16 -22 -24
q-29 -23 -73 -39t-106 -16q-75 0 -127 34t-81 93q-30 -59 -81 -93q-50 -34 -121 -34q-47 0 -87 18q-41 18 -71 53q-30 34 -48 83q-18 48 -18 110q0 65 19 113q20 49 51 84q32 35 73 54t86 19q65 0 105 -23t62 -57v6q0 29 15 47t41 18t41 -18t15 -46v-10zM300 125q22 0 42 9
q21 10 35 25q15 17 24 40q9 24 9 55q0 61 -29 96t-81 35t-81 -36q-29 -37 -29 -96q0 -30 9 -54q9 -23 24 -40q14 -15 35 -25q20 -9 42 -9zM666 384l1 -2q-41 0 -66 -21q-25 -20 -34 -62h187q0 15 -6 30q-6 16 -16 27q-11 13 -27 20q-18 8 -39 8z" />
    <glyph glyph-name="ccedilla" unicode="&#xe7;" horiz-adv-x="531" 
d="M428 188l-7 -2q11 0 22 -4q12 -4 21 -12q9 -7 15 -20q6 -12 6 -28q0 -39 -27 -66q-22 -22 -58 -42q-38 -21 -100 -24v-19q16 -3 29 -9q16 -7 26 -16q12 -10 19 -25q7 -14 7 -38q0 -28 -10 -48t-27 -34q-16 -13 -38 -21q-20 -7 -43 -7q-36 0 -51 12t-15 35q0 13 5 21
q4 7 12 12t15 6q10 2 14 2q34 0 34 16q0 10 -9 13t-30 6q-9 1 -13 5q-3 3 -3 17v76q-47 11 -80 34q-34 23 -60 59q-26 35 -39 78q-13 42 -13 93q0 55 20 104q20 48 54 84t81 57t101 21q56 0 107 -18q52 -18 86 -64q11 -16 16 -28q4 -11 4 -26q0 -18 -6 -30q-7 -13 -16 -20
q-11 -8 -22 -12t-22 -4q-19 0 -33 8t-21 15q-4 3 -13 12t-18 14q-13 7 -25 11q-17 5 -34 5q-25 0 -44 -11q-17 -10 -30 -29q-12 -18 -18 -42t-6 -48q0 -25 6 -47q6 -23 18 -41t30 -30t44 -12q25 0 47 11t44 30q13 11 27 16q12 4 21 4z" />
    <glyph glyph-name="egrave" unicode="&#xe8;" horiz-adv-x="565" 
d="M190 216l-3 -2q10 -45 41 -66q30 -21 71 -21q18 0 36 5q14 4 30 11q15 7 23 12q10 7 14 8q20 9 33 9q29 0 47 -21t18 -47q0 -20 -10 -34q-11 -16 -22 -24q-29 -23 -73 -39t-106 -16q-54 0 -102 20q-47 20 -81 55q-34 36 -54 84q-19 47 -19 107q0 54 20 105q20 50 54 86
q35 36 81 57t102 21q55 0 97 -19q44 -20 74 -51q31 -32 47 -72q17 -42 17 -84q0 -36 -12 -60t-50 -24h-273zM287 385l1 -2q-40 0 -66 -21q-25 -20 -34 -62h187q0 15 -6 30q-6 16 -16 27q-11 13 -27 20q-18 8 -39 8zM381 628v-4q20 -20 20 -41q0 -18 -13 -32q-14 -15 -33 -15
q-5 0 -12 3q-9 4 -18 10l-133 86q-25 16 -25 51q0 11 5 23q4 11 14 20q10 10 21 14q13 5 24 5q15 0 24 -4q11 -4 18 -12z" />
    <glyph glyph-name="eacute" unicode="&#xe9;" horiz-adv-x="565" 
d="M190 216l-3 -2q10 -45 41 -66q30 -21 71 -21q18 0 36 5q14 4 30 11q15 7 23 12q10 7 14 8q20 9 33 9q29 0 47 -21t18 -47q0 -20 -10 -34q-11 -16 -22 -24q-29 -23 -73 -39t-106 -16q-54 0 -102 20q-47 20 -81 55q-34 36 -54 84q-19 47 -19 107q0 54 20 105q20 50 54 86
q35 36 81 57t102 21q55 0 97 -19q44 -20 74 -51q31 -32 47 -72q17 -42 17 -84q0 -36 -12 -60t-50 -24h-273zM287 385l1 -2q-40 0 -66 -21q-25 -20 -34 -62h187q0 15 -6 30q-6 16 -16 27q-11 13 -27 20q-18 8 -39 8zM315 732v1q7 7 18 12q12 5 24 5q11 0 24 -5t21 -13
q10 -10 14 -19q5 -12 5 -23q0 -35 -25 -51l-133 -86q-9 -6 -18 -10q-7 -3 -12 -3q-19 0 -33 15q-13 14 -13 32q0 21 20 41z" />
    <glyph glyph-name="ecircumflex" unicode="&#xea;" horiz-adv-x="565" 
d="M190 216l-3 -2q10 -45 41 -66q30 -21 71 -21q18 0 36 5q14 4 30 11q15 7 23 12q10 7 14 8q20 9 33 9q29 0 47 -21t18 -47q0 -20 -10 -34q-11 -16 -22 -24q-29 -23 -73 -39t-106 -16q-54 0 -102 20q-47 20 -81 55q-34 36 -54 84q-19 47 -19 107q0 54 20 105q20 50 54 86
q35 36 81 57t102 21q55 0 97 -19q44 -20 74 -51q31 -32 47 -72q17 -42 17 -84q0 -36 -12 -60t-50 -24h-273zM287 385l1 -2q-40 0 -66 -21q-25 -20 -34 -62h187q0 15 -6 30q-6 16 -16 27q-11 13 -27 20q-18 8 -39 8zM436 614l-2 -3q11 -12 14 -18q5 -8 5 -18q0 -13 -11 -26
q-10 -12 -27 -12q-7 0 -11 1q-5 1 -16 9l-101 68l-101 -68q-9 -5 -16 -7q-4 -1 -11 -1q-17 0 -27 12q-11 13 -11 26q0 10 5 18q3 6 14 18l108 116q8 8 17 14t24 6t24 -6q12 -8 17 -13z" />
    <glyph glyph-name="edieresis" unicode="&#xeb;" horiz-adv-x="565" 
d="M190 216l-3 -2q10 -45 41 -66q30 -21 71 -21q18 0 36 5q14 4 30 11q15 7 23 12q10 7 14 8q20 9 33 9q29 0 47 -21t18 -47q0 -20 -10 -34q-11 -16 -22 -24q-29 -23 -73 -39t-106 -16q-54 0 -102 20q-47 20 -81 55q-34 36 -54 84q-19 47 -19 107q0 54 20 105q20 50 54 86
q35 36 81 57t102 21q55 0 97 -19q44 -20 74 -51q31 -32 47 -72q17 -42 17 -84q0 -36 -12 -60t-50 -24h-273zM287 385l1 -2q-40 0 -66 -21q-25 -20 -34 -62h187q0 15 -6 30q-6 16 -16 27q-11 13 -27 20q-18 8 -39 8zM202 696l-1 -1q29 0 48 -18q20 -18 20 -49q0 -35 -19 -51
t-48 -16t-49 17q-19 16 -19 50q0 32 18 50t50 18zM377 695h1q28 0 48 -18t20 -49q0 -34 -20 -51q-19 -16 -48 -16q-28 0 -48 17q-19 16 -19 50q0 31 18 49t48 18z" />
    <glyph glyph-name="igrave" unicode="&#xec;" horiz-adv-x="287" 
d="M65 441l2 -4q0 32 21 53t54 21t54 -21t21 -52v-256q0 -18 5 -33q4 -13 17 -13q20 0 27 -19q8 -21 8 -39q0 -34 -21 -57q-21 -22 -65 -22q-28 0 -50 9t-39 30q-16 20 -25 54q-9 33 -9 81v268zM227 628v-4q20 -20 20 -41q0 -18 -13 -32q-14 -15 -33 -15q-5 0 -12 3
q-9 4 -18 10l-133 86q-25 16 -25 51q0 11 5 23q4 11 14 20q10 10 21 14q13 5 24 5q15 0 24 -4q11 -4 18 -12z" />
    <glyph glyph-name="iacute" unicode="&#xed;" horiz-adv-x="287" 
d="M65 441l2 -4q0 32 21 53t54 21t54 -21t21 -52v-256q0 -18 5 -33q4 -13 17 -13q20 0 27 -19q8 -21 8 -39q0 -34 -21 -57q-21 -22 -65 -22q-28 0 -50 9t-39 30q-16 20 -25 54q-9 33 -9 81v268zM181 732v1q7 7 18 12q12 5 24 5q11 0 24 -5t21 -13q10 -10 14 -19q5 -12 5 -23
q0 -35 -25 -51l-133 -86q-9 -6 -18 -10q-7 -3 -12 -3q-19 0 -33 15q-13 14 -13 32q0 21 20 41z" />
    <glyph glyph-name="icircumflex" unicode="&#xee;" horiz-adv-x="287" 
d="M65 441l2 -4q0 32 21 53t54 21t54 -21t21 -52v-256q0 -18 5 -33q4 -13 17 -13q20 0 27 -19q8 -21 8 -39q0 -34 -21 -57q-21 -22 -65 -22q-28 0 -50 9t-39 30q-16 20 -25 54q-9 33 -9 81v268zM302 614l-2 -3q11 -12 14 -18q5 -8 5 -18q0 -13 -11 -26q-10 -12 -27 -12
q-7 0 -11 1q-5 1 -16 9l-101 68l-101 -68q-9 -5 -16 -7q-4 -1 -11 -1q-17 0 -27 12q-11 13 -11 26q0 10 5 18q3 6 14 18l108 116q8 8 17 14t24 6t24 -6q12 -8 17 -13z" />
    <glyph glyph-name="idieresis" unicode="&#xef;" horiz-adv-x="287" 
d="M65 441l2 -4q0 32 21 53t54 21t54 -21t21 -52v-256q0 -18 5 -33q4 -13 17 -13q20 0 27 -19q8 -21 8 -39q0 -34 -21 -57q-21 -22 -65 -22q-28 0 -50 9t-39 30q-16 20 -25 54q-9 33 -9 81v268zM58 696l-1 -1q29 0 48 -18q20 -18 20 -49q0 -35 -19 -51t-48 -16t-49 17
q-19 16 -19 50q0 32 18 50t50 18zM233 695h1q28 0 48 -18t20 -49q0 -34 -20 -51q-19 -16 -48 -16q-28 0 -48 17q-19 16 -19 50q0 31 18 49t48 18z" />
    <glyph glyph-name="eth" unicode="&#xf0;" horiz-adv-x="600" 
d="M436 593l-4 -2q22 -24 45 -57q22 -32 40 -73t30 -90q11 -47 13 -110q1 -3 1 -14q0 -55 -19 -102t-54 -82q-34 -34 -83 -54t-106 -20t-106 20t-83 54q-35 35 -54 82t-19 102q0 53 20 101q19 46 54 81t81 54q48 20 102 20h14q9 0 14 -1q-16 16 -33 30t-30 24q-33 25 -44 42
q-12 18 -12 35q0 11 5 24q4 11 14 21q9 9 21 15t27 6q20 0 33 -6t33 -18l14 -9l17 17q7 7 18 12q12 5 24 5q23 0 39 -16t16 -40q0 -23 -16 -39zM296 365h-2q-56 0 -81 -34q-26 -35 -26 -84q0 -23 6 -46q6 -22 20 -39t34 -27t48 -10q27 0 48 9q20 8 34 26q14 17 20 38t6 45
q0 25 -6 48t-19 39q-14 18 -34 26q-21 9 -48 9z" />
    <glyph glyph-name="ntilde" unicode="&#xf1;" horiz-adv-x="598" 
d="M65 450l-5 -6q0 10 5 23q4 11 14 21q9 9 24 15t35 6q40 0 57 -20t17 -42v-17q18 46 57 68q40 23 86 23q83 0 131 -53q48 -52 48 -152v-246q0 -31 -21 -52t-54 -21t-54 21t-21 53v189q0 64 -23 95q-23 30 -63 30q-38 0 -60 -31t-22 -97v-185q0 -31 -21 -52t-54 -21
q-31 0 -54 21q-22 21 -22 54v376zM218 714l-5 -2q23 0 43 -5q15 -4 33 -11q20 -8 30 -11q17 -5 34 -5q12 0 21 3q8 3 18 14q6 8 14 14t21 6q20 0 35 -16q15 -17 15 -42q0 -38 -25 -63q-27 -30 -66 -30q-28 0 -47 6q-23 7 -36 13q-4 2 -32 13q-15 6 -35 6q-29 0 -45 -22
q-6 -6 -18 -13q-11 -6 -27 -6q-22 0 -34 15t-12 37q0 9 5 26q4 15 17 29q15 17 39 31q22 13 57 13z" />
    <glyph glyph-name="ograve" unicode="&#xf2;" horiz-adv-x="600" 
d="M300 525h-2q58 0 106 -21q49 -21 83 -57q35 -36 54 -85q20 -51 20 -105q0 -58 -19 -106q-19 -49 -54 -85q-34 -36 -83 -57q-48 -21 -106 -21t-106 21q-49 21 -83 57q-35 36 -54 85q-19 48 -19 106q0 54 20 105q19 49 54 85q34 36 83 57q48 21 106 21zM298 387l-2 -3
q-28 0 -48 -10t-34 -27q-13 -16 -19 -39q-6 -22 -6 -50q0 -26 6 -50q6 -23 20 -42t34 -29q22 -11 48 -11t48 11q21 10 34 28q14 19 20 41t6 48q0 27 -6 51q-6 25 -19 42q-14 19 -34 29q-22 11 -48 11zM397 629v-4q20 -20 20 -41q0 -18 -13 -32q-14 -15 -33 -15q-5 0 -12 3
q-9 4 -18 10l-133 86q-25 16 -25 51q0 11 5 23q4 10 14 20t21 14q13 5 24 5q15 0 24 -4q11 -5 18 -12z" />
    <glyph glyph-name="oacute" unicode="&#xf3;" horiz-adv-x="600" 
d="M300 525h-2q58 0 106 -21q49 -21 83 -57q35 -36 54 -85q20 -51 20 -105q0 -58 -19 -106q-19 -49 -54 -85q-34 -36 -83 -57q-48 -21 -106 -21t-106 21q-49 21 -83 57q-35 36 -54 85q-19 48 -19 106q0 54 20 105q19 49 54 85q34 36 83 57q48 21 106 21zM298 387l-2 -3
q-28 0 -48 -10t-34 -27q-13 -16 -19 -39q-6 -22 -6 -50q0 -26 6 -50q6 -23 20 -42t34 -29q22 -11 48 -11t48 11q21 10 34 28q14 19 20 41t6 48q0 27 -6 51q-6 25 -19 42q-14 19 -34 29q-22 11 -48 11zM311 733v1q7 8 18 12q12 5 24 5q11 0 24 -5t21 -13q10 -10 14 -19
q5 -12 5 -23q0 -35 -25 -51l-133 -86q-9 -6 -18 -10q-7 -3 -12 -3q-19 0 -33 15q-13 14 -13 32q0 21 20 41z" />
    <glyph glyph-name="ocircumflex" unicode="&#xf4;" horiz-adv-x="600" 
d="M300 525h-2q58 0 106 -21q49 -21 83 -57q35 -36 54 -85q20 -51 20 -105q0 -58 -19 -106q-19 -49 -54 -85q-34 -36 -83 -57q-48 -21 -106 -21t-106 21q-49 21 -83 57q-35 36 -54 85q-19 48 -19 106q0 54 20 105q19 49 54 85q34 36 83 57q48 21 106 21zM298 387l-2 -3
q-28 0 -48 -10t-34 -27q-13 -16 -19 -39q-6 -22 -6 -50q0 -26 6 -50q6 -23 20 -42t34 -29q22 -11 48 -11t48 11q21 10 34 28q14 19 20 41t6 48q0 27 -6 51q-6 25 -19 42q-14 19 -34 29q-22 11 -48 11zM452 615l-2 -3q11 -12 14 -18q5 -8 5 -18q0 -13 -11 -26
q-10 -12 -27 -12q-7 0 -11 1q-5 1 -16 9l-101 68l-101 -68q-9 -5 -16 -7q-4 -1 -11 -1q-17 0 -27 12q-11 13 -11 26q0 10 5 18q3 6 14 18l108 116q8 8 17 14t24 6t24 -6q12 -8 17 -13z" />
    <glyph glyph-name="otilde" unicode="&#xf5;" horiz-adv-x="600" 
d="M300 525h-2q58 0 106 -21q49 -21 83 -57q35 -36 54 -85q20 -51 20 -105q0 -58 -19 -106q-19 -49 -54 -85q-34 -36 -83 -57q-48 -21 -106 -21t-106 21q-49 21 -83 57q-35 36 -54 85q-19 48 -19 106q0 54 20 105q19 49 54 85q34 36 83 57q48 21 106 21zM298 387l-2 -3
q-28 0 -48 -10t-34 -27q-13 -16 -19 -39q-6 -22 -6 -50q0 -26 6 -50q6 -23 20 -42t34 -29q22 -11 48 -11t48 11q21 10 34 28q14 19 20 41t6 48q0 27 -6 51q-6 25 -19 42q-14 19 -34 29q-22 11 -48 11zM220 717l-6 -2q23 0 43 -5q15 -4 33 -11q20 -8 30 -11q17 -5 34 -5
q12 0 21 3q8 3 18 14q6 8 14 14q7 6 21 6q20 0 35 -16t15 -42q0 -38 -25 -63q-27 -30 -66 -30q-27 0 -47 6q-23 7 -36 13q-4 2 -32 13q-15 6 -34 6q-29 0 -45 -22q-6 -6 -18 -13q-11 -6 -27 -6q-22 0 -34 15t-12 37q0 9 5 26q4 15 17 29q15 17 39 31q22 13 57 13z" />
    <glyph glyph-name="odieresis" unicode="&#xf6;" horiz-adv-x="600" 
d="M300 525h-2q58 0 106 -21q49 -21 83 -57q35 -36 54 -85q20 -51 20 -105q0 -58 -19 -106q-19 -49 -54 -85q-34 -36 -83 -57q-48 -21 -106 -21t-106 21q-49 21 -83 57q-35 36 -54 85q-19 48 -19 106q0 54 20 105q19 49 54 85q34 36 83 57q48 21 106 21zM298 387l-2 -3
q-28 0 -48 -10t-34 -27q-13 -16 -19 -39q-6 -22 -6 -50q0 -26 6 -50q6 -23 20 -42t34 -29q22 -11 48 -11t48 11q21 10 34 28q14 19 20 41t6 48q0 27 -6 51q-6 25 -19 42q-14 19 -34 29q-22 11 -48 11zM208 697l-1 -1q29 0 48 -18q20 -18 20 -49q0 -35 -19 -51t-48 -16
t-49 17q-19 16 -19 50q0 32 18 50t50 18zM383 696h1q28 0 48 -18t20 -49q0 -34 -20 -51q-19 -16 -48 -16q-28 0 -48 17q-19 16 -19 50q0 31 18 49t48 18z" />
    <glyph glyph-name="divide" unicode="&#xf7;" horiz-adv-x="628" 
d="M472 370q24 0 39 -16q15 -17 15 -40q0 -24 -15 -39t-39 -15h-316q-24 0 -39 16t-15 40t15 39t39 15h316zM311 215h-2q37 0 62 -22q26 -23 26 -63q0 -45 -26 -66q-25 -21 -62 -21q-38 0 -62 21t-24 63q0 40 24 64t64 24zM309 580h-2q37 0 62 -22q26 -23 26 -63
q0 -45 -26 -66q-25 -21 -62 -21q-38 0 -62 21t-24 63q0 40 24 64t64 24z" />
    <glyph glyph-name="oslash" unicode="&#xf8;" horiz-adv-x="600" 
d="M300 525l-3 -3q60 0 108 -22q10 13 23 18q11 4 23 4q23 0 38 -15t15 -35q0 -12 -3 -19q-3 -8 -7 -12l-1 -2q32 -35 50 -81q18 -47 18 -101q0 -58 -19 -106q-19 -49 -54 -85q-34 -36 -83 -57q-48 -21 -106 -21q-30 0 -57 6q-29 6 -52 16q-10 -11 -21 -16q-9 -4 -21 -4
q-20 0 -36 14q-15 14 -15 36q0 10 3 18t6 12q-33 36 -51 84t-18 103q0 54 20 105q19 49 54 85q34 36 83 57q48 21 106 21zM297 384q-28 0 -48 -10t-34 -27q-13 -16 -19 -39q-6 -22 -6 -50q0 -33 7 -54l125 177q-12 3 -25 3zM404 253l-1 -1q0 30 -7 51l-124 -177q3 -1 11 -1
h13q26 0 48 11q21 10 34 28q14 19 20 41q6 23 6 48z" />
    <glyph glyph-name="ugrave" unicode="&#xf9;" horiz-adv-x="577" 
d="M365 441q0 32 22 53q23 21 54 21t54 -21q22 -21 22 -53v-212q0 -54 -16 -96q-17 -44 -46 -75t-72 -49q-42 -18 -94 -18t-94 18q-43 18 -72 49t-46 75q-16 42 -16 96v212q0 32 22 53q23 21 54 21t54 -21q22 -21 22 -53v-216q0 -46 19 -71q20 -26 58 -26q39 0 57 26t18 71
v216zM369 632v-4q20 -20 20 -41q0 -18 -13 -32q-14 -15 -33 -15q-5 0 -12 3q-9 4 -18 10l-133 86q-25 16 -25 51q0 11 5 23q4 11 14 20q10 10 21 14q13 5 24 5q15 0 24 -4q11 -4 18 -12z" />
    <glyph glyph-name="uacute" unicode="&#xfa;" horiz-adv-x="577" 
d="M365 441q0 32 22 53q23 21 54 21t54 -21q22 -21 22 -53v-212q0 -54 -16 -96q-17 -44 -46 -75t-72 -49q-42 -18 -94 -18t-94 18q-43 18 -72 49t-46 75q-16 42 -16 96v212q0 32 22 53q23 21 54 21t54 -21q22 -21 22 -53v-216q0 -46 19 -71q20 -26 58 -26q39 0 57 26t18 71
v216zM323 736v1q7 7 18 12q12 5 24 5q11 0 24 -5t21 -13q10 -10 14 -19q5 -12 5 -23q0 -35 -25 -51l-133 -86q-9 -6 -18 -10q-7 -3 -12 -3q-19 0 -33 15q-13 14 -13 32q0 21 20 41z" />
    <glyph glyph-name="ucircumflex" unicode="&#xfb;" horiz-adv-x="577" 
d="M365 441q0 32 22 53q23 21 54 21t54 -21q22 -21 22 -53v-212q0 -54 -16 -96q-17 -44 -46 -75t-72 -49q-42 -18 -94 -18t-94 18q-43 18 -72 49t-46 75q-16 42 -16 96v212q0 32 22 53q23 21 54 21t54 -21q22 -21 22 -53v-216q0 -46 19 -71q20 -26 58 -26q39 0 57 26t18 71
v216zM444 618l-2 -3q11 -12 14 -18q5 -8 5 -18q0 -13 -11 -26q-10 -12 -27 -12q-7 0 -11 1q-5 1 -16 9l-101 68l-101 -68q-9 -5 -16 -7q-4 -1 -11 -1q-17 0 -27 12q-11 13 -11 26q0 10 5 18q3 6 14 18l108 116q8 8 17 14t24 6t24 -6q12 -8 17 -13z" />
    <glyph glyph-name="udieresis" unicode="&#xfc;" horiz-adv-x="577" 
d="M365 441q0 32 22 53q23 21 54 21t54 -21q22 -21 22 -53v-212q0 -54 -16 -96q-17 -44 -46 -75t-72 -49q-42 -18 -94 -18t-94 18q-43 18 -72 49t-46 75q-16 42 -16 96v212q0 32 22 53q23 21 54 21t54 -21q22 -21 22 -53v-216q0 -46 19 -71q20 -26 58 -26q39 0 57 26t18 71
v216zM200 700l-1 -1q29 0 48 -18q20 -18 20 -49q0 -35 -19 -51t-48 -16t-49 17q-19 16 -19 50q0 32 18 50t50 18zM375 699h1q28 0 48 -18t20 -49q0 -34 -20 -51q-19 -16 -48 -16q-28 0 -48 17q-19 16 -19 50q0 31 18 49t48 18z" />
    <glyph glyph-name="yacute" unicode="&#xfd;" horiz-adv-x="541" 
d="M196 -1l-4 -4l-166 402q-4 11 -6 21q-2 14 -2 18q0 35 25 54q26 20 58 20q24 0 42 -12q19 -13 26 -34l98 -286l110 283q8 20 21 35q14 15 42 15q33 0 53 -19q21 -20 21 -51q0 -13 -3 -27q-4 -16 -7 -23l-167 -402q-23 -53 -48 -87q-26 -35 -53 -56t-57 -30t-62 -9
q-47 0 -69 18t-22 50q0 30 18 51t54 21q39 0 62 10q25 11 35 39zM282 734v1q8 7 18 12q12 5 24 5q11 0 24 -5t21 -13q10 -10 14 -19q5 -12 5 -23q0 -35 -25 -51l-133 -86q-9 -6 -18 -10q-8 -3 -12 -3q-20 0 -33 15q-13 14 -13 32q0 21 20 41z" />
    <glyph glyph-name="thorn" unicode="&#xfe;" horiz-adv-x="628" 
d="M217 -116l-2 -1q0 -32 -21 -53t-53 -21q-31 0 -54 21q-22 21 -22 53v743q0 9 5 22q4 11 14 21q9 9 24 15t35 6q41 0 57 -19q17 -20 17 -45v-191q21 35 56 63q35 27 93 27q52 0 93 -19q42 -20 72 -54q29 -34 46 -84q17 -51 17 -109q0 -60 -16 -108t-47 -85t-73 -56
q-45 -20 -96 -20q-54 0 -91 27t-54 65v-198zM325 127l-1 -3q26 0 48 11q21 11 35 29q13 18 21 42q7 22 7 49q0 29 -7 51q-8 24 -21 42t-34 28q-20 10 -48 10t-48 -10q-21 -10 -34 -28t-21 -42q-7 -22 -7 -51q0 -54 28 -91t82 -37z" />
    <glyph glyph-name="ydieresis" unicode="&#xff;" horiz-adv-x="541" 
d="M196 -1l-4 -4l-166 402q-4 11 -6 21q-2 14 -2 18q0 35 25 54q26 20 58 20q24 0 42 -12q19 -13 26 -34l98 -286l110 283q8 20 21 35q14 15 42 15q33 0 53 -19q21 -20 21 -51q0 -13 -3 -27q-4 -16 -7 -23l-167 -402q-23 -53 -48 -87q-26 -35 -53 -56t-57 -30t-62 -9
q-47 0 -69 18t-22 50q0 30 18 51t54 21q39 0 62 10q25 11 35 39zM179 698l-1 -1q28 0 48 -18t20 -49q0 -35 -19 -51t-48 -16t-49 17q-19 16 -19 50q0 32 18 50t50 18zM354 697h1q29 0 48 -18q20 -18 20 -49q0 -34 -20 -51q-19 -16 -48 -16q-28 0 -48 17q-19 16 -19 50
q0 31 18 49t48 18z" />
    <glyph glyph-name="Amacron" unicode="&#x100;" 
d="M477 139l-264 -2l-35 -91q-10 -27 -28 -37q-17 -10 -43 -10q-36 0 -56 19q-21 20 -21 51q0 11 2 23q2 10 6 17l222 517q14 31 34 47q22 17 54 17t54 -17q21 -17 35 -47l222 -517q7 -13 7 -32q0 -35 -24 -56t-58 -21q-28 0 -45 12t-26 35zM263 265h163l-82 209zM451 914
q24 0 39 -18t15 -42t-15 -42t-39 -18h-208q-24 0 -39 18t-15 42t15 42t39 18h208z" />
    <glyph glyph-name="amacron" unicode="&#x101;" horiz-adv-x="633" 
d="M563 179v-3q0 -23 6 -32t14 -9q17 0 27 -15q10 -14 10 -43q0 -79 -97 -79q-51 0 -78 27q-26 26 -34 62l-1 4q-22 -50 -63 -76q-40 -25 -96 -25q-43 0 -82 18q-38 18 -69 53q-30 34 -48 83q-18 48 -18 110q0 65 19 113q19 49 51 84t73 54t86 19q59 0 93 -24t54 -66v16
q0 29 21 47t55 18q35 0 56 -18t21 -46v-272zM301 125q23 0 42 9q21 10 35 25q15 17 24 40q9 24 9 55q0 61 -29 96t-81 35q-53 0 -81 -36q-29 -37 -29 -96q0 -30 9 -54q9 -23 24 -40q14 -15 35 -25q19 -9 42 -9zM420 713q24 0 39 -18t15 -42t-15 -42t-39 -18h-208
q-24 0 -39 18t-15 42t15 42t39 18h208z" />
    <glyph glyph-name="Abreve" unicode="&#x102;" 
d="M477 139l-264 -2l-35 -91q-10 -27 -28 -37q-17 -10 -43 -10q-36 0 -56 19q-21 20 -21 51q0 11 2 23q2 10 6 17l222 517q14 31 34 47q22 17 54 17t54 -17q21 -17 35 -47l222 -517q7 -13 7 -32q0 -35 -24 -56t-58 -21q-28 0 -45 12t-26 35zM263 265h163l-82 209zM345 754h1
q-29 0 -55 10q-28 11 -48 28q-21 18 -33 42t-12 53q0 17 12 32t37 15q19 0 30 -10q13 -11 17 -27q9 -27 21 -36t32 -9t32 9t21 36q4 16 17 27q11 10 30 10q25 0 37 -15t12 -32q0 -30 -13 -53q-14 -25 -34 -42t-48 -28q-26 -10 -56 -10z" />
    <glyph glyph-name="abreve" unicode="&#x103;" horiz-adv-x="633" 
d="M563 179v-3q0 -23 6 -32t14 -9q17 0 27 -15q10 -14 10 -43q0 -79 -97 -79q-51 0 -78 27q-26 26 -34 62l-1 4q-22 -50 -63 -76q-40 -25 -96 -25q-43 0 -82 18q-38 18 -69 53q-30 34 -48 83q-18 48 -18 110q0 65 19 113q19 49 51 84t73 54t86 19q59 0 93 -24t54 -66v16
q0 29 21 47t55 18q35 0 56 -18t21 -46v-272zM301 125q23 0 42 9q21 10 35 25q15 17 24 40q9 24 9 55q0 61 -29 96t-81 35q-53 0 -81 -36q-29 -37 -29 -96q0 -30 9 -54q9 -23 24 -40q14 -15 35 -25q19 -9 42 -9zM314 553h1q-29 0 -55 10q-28 11 -48 28q-21 18 -33 42t-12 53
q0 17 12 32t37 15q19 0 30 -10q13 -11 17 -27q9 -27 21 -36t32 -9t32 9t21 36q4 16 17 27q11 10 30 10q25 0 37 -15t12 -32q0 -30 -13 -53q-14 -25 -34 -42t-48 -28q-26 -10 -56 -10z" />
    <glyph glyph-name="Aogonek" unicode="&#x104;" 
d="M477 139l-266 -4l-35 -91q-10 -27 -28 -37q-17 -10 -43 -10q-36 0 -56 19q-21 20 -21 51q0 11 2 23q2 10 6 17l222 517q14 31 34 47q22 17 54 17t54 -17q21 -17 35 -47l222 -517q7 -13 7 -32q0 -31 -18 -51t-46 -24q-23 -19 -35 -39q-12 -21 -12 -38q0 -10 9 -22
q9 -11 32 -13q27 -2 39 -15t12 -33q0 -28 -21 -40t-55 -12q-50 0 -84 25q-35 26 -35 76q0 38 24 71q25 34 60 56q-14 11 -21 31zM261 263h163l-82 209z" />
    <glyph glyph-name="aogonek" unicode="&#x105;" horiz-adv-x="633" 
d="M563 179v-1q0 -23 6 -32t14 -9q17 0 27 -15q10 -14 10 -43q0 -65 -65 -77q-23 -18 -36 -40t-13 -39q0 -10 9 -22q9 -11 32 -13q27 -2 39 -15t12 -33q0 -28 -21 -40t-55 -12q-50 0 -84 25q-35 26 -35 76q0 35 20 66t51 53q-27 10 -42 32q-15 21 -21 47l-1 4
q-22 -50 -63 -76q-40 -25 -96 -25q-43 0 -82 18q-38 18 -69 53q-30 34 -48 83q-18 48 -18 110q0 65 19 113q19 49 51 84t73 54t86 19q59 0 93 -24t54 -66v16q0 29 21 47t55 18q35 0 56 -18t21 -46v-272zM301 127q23 0 42 9q21 10 35 25q15 17 24 40q9 24 9 55q0 61 -29 96
t-81 35q-53 0 -81 -36q-29 -37 -29 -96q0 -30 9 -54q9 -23 24 -40q14 -15 35 -25q19 -9 42 -9z" />
    <glyph glyph-name="Cacute" unicode="&#x106;" horiz-adv-x="687" 
d="M521 470l-8 -6q-12 13 -33 34q-13 13 -32 25q-16 11 -36 15q-22 5 -46 5q-77 0 -122 -55q-45 -56 -45 -153q0 -92 47 -145q46 -52 134 -52q23 0 45 5q18 4 36 14q16 9 32 23q20 18 32 30q10 10 23 15q11 4 26 4q16 0 27 -7q12 -8 21 -18q10 -12 14 -22q5 -13 5 -23
q0 -13 -5 -31q-4 -16 -18 -33q-12 -15 -38 -37q-23 -20 -53 -35q-32 -16 -69 -26t-87 -10q-75 0 -134 25t-103 72q-43 46 -67 111t-24 144t24 145q25 68 67 113q44 47 104 74t134 27q60 0 105 -15q44 -15 77 -35t51 -40q21 -23 27 -31q8 -15 11 -27q3 -14 3 -27
q0 -20 -7 -33q-8 -14 -18 -23q-10 -8 -24 -13q-12 -4 -24 -4q-15 0 -27 4q-14 4 -25 16zM380 930v1q8 7 18 12q12 5 24 5q11 0 24 -5t21 -13q10 -10 14 -19q5 -12 5 -23q0 -35 -25 -51l-133 -86q-9 -6 -18 -10q-8 -3 -12 -3q-20 0 -33 15q-13 14 -13 32q0 21 20 41z" />
    <glyph glyph-name="cacute" unicode="&#x107;" horiz-adv-x="531" 
d="M428 188l-5 -2q11 0 22 -4q12 -4 21 -12q9 -7 15 -20q6 -12 6 -28q0 -39 -27 -66q-11 -11 -26 -23q-13 -11 -36 -22q-19 -9 -50 -16q-28 -6 -64 -6q-58 0 -105 21t-80 57t-51 85q-18 50 -18 106q0 55 20 104q20 48 54 84t81 57t101 21q56 0 107 -18q52 -18 86 -64
q11 -16 16 -28q4 -11 4 -26q0 -18 -6 -30q-7 -13 -16 -20q-11 -8 -22 -12t-22 -4q-19 0 -33 8t-21 15q-4 3 -13 12t-18 14q-13 7 -25 11q-17 5 -34 5q-25 0 -44 -11q-17 -10 -30 -29q-12 -18 -18 -42t-6 -48q0 -25 6 -47q6 -23 18 -41t30 -30t44 -12q25 0 47 11t44 30
q13 11 27 16q12 4 21 4zM295 734v1q7 7 18 12q12 5 24 5q11 0 24 -5t21 -13q10 -10 14 -19q5 -12 5 -23q0 -35 -25 -51l-133 -86q-9 -6 -18 -10q-7 -3 -12 -3q-19 0 -33 15q-13 14 -13 32q0 21 20 41z" />
    <glyph glyph-name="Ccircumflex" unicode="&#x108;" horiz-adv-x="687" 
d="M521 470l-8 -6q-12 13 -33 34q-13 13 -32 25q-16 11 -36 15q-22 5 -46 5q-77 0 -122 -55q-45 -56 -45 -153q0 -92 47 -145q46 -52 134 -52q23 0 45 5q18 4 36 14q16 9 32 23q20 18 32 30q10 10 23 15q11 4 26 4q16 0 27 -7q12 -8 21 -18q10 -12 14 -22q5 -13 5 -23
q0 -13 -5 -31q-4 -16 -18 -33q-12 -15 -38 -37q-23 -20 -53 -35q-32 -16 -69 -26t-87 -10q-75 0 -134 25t-103 72q-43 46 -67 111t-24 144t24 145q25 68 67 113q44 47 104 74t134 27q60 0 105 -15q44 -15 77 -35t51 -40q21 -23 27 -31q8 -15 11 -27q3 -14 3 -27
q0 -20 -7 -33q-8 -14 -18 -23q-10 -8 -24 -13q-12 -4 -24 -4q-15 0 -27 4q-14 4 -25 16zM521 812l-2 -3q11 -12 14 -18q5 -8 5 -18q0 -13 -11 -26q-11 -12 -27 -12q-7 0 -11 1q-5 1 -16 9l-101 68l-101 -68q-9 -5 -16 -7q-4 -1 -11 -1q-16 0 -27 12q-11 13 -11 26q0 10 5 18
q3 6 14 18l108 116q8 8 17 14t24 6t24 -6q12 -8 17 -13z" />
    <glyph glyph-name="ccircumflex" unicode="&#x109;" horiz-adv-x="531" 
d="M428 188l-5 -2q11 0 22 -4q12 -4 21 -12q9 -7 15 -20q6 -12 6 -28q0 -39 -27 -66q-11 -11 -26 -23q-13 -11 -36 -22q-19 -9 -50 -16q-28 -6 -64 -6q-58 0 -105 21t-80 57t-51 85q-18 50 -18 106q0 55 20 104q20 48 54 84t81 57t101 21q56 0 107 -18q52 -18 86 -64
q11 -16 16 -28q4 -11 4 -26q0 -18 -6 -30q-7 -13 -16 -20q-11 -8 -22 -12t-22 -4q-19 0 -33 8t-21 15q-4 3 -13 12t-18 14q-13 7 -25 11q-17 5 -34 5q-25 0 -44 -11q-17 -10 -30 -29q-12 -18 -18 -42t-6 -48q0 -25 6 -47q6 -23 18 -41t30 -30t44 -12q25 0 47 11t44 30
q13 11 27 16q12 4 21 4zM436 616l-2 -3q11 -12 14 -18q5 -8 5 -18q0 -13 -11 -26q-10 -12 -27 -12q-7 0 -11 1q-5 1 -16 9l-101 68l-101 -68q-9 -5 -16 -7q-4 -1 -11 -1q-17 0 -27 12q-11 13 -11 26q0 10 5 18q3 6 14 18l108 116q8 8 17 14t24 6t24 -6q12 -8 17 -13z" />
    <glyph glyph-name="Cdotaccent" unicode="&#x10a;" horiz-adv-x="687" 
d="M521 470l-8 -6q-12 13 -33 34q-13 13 -32 25q-16 11 -36 15q-22 5 -46 5q-77 0 -122 -55q-45 -56 -45 -153q0 -92 47 -145q46 -52 134 -52q23 0 45 5q18 4 36 14q16 9 32 23q20 18 32 30q10 10 23 15q11 4 26 4q16 0 27 -7q12 -8 21 -18q10 -12 14 -22q5 -13 5 -23
q0 -13 -5 -31q-4 -16 -18 -33q-12 -15 -38 -37q-23 -20 -53 -35q-32 -16 -69 -26t-87 -10q-75 0 -134 25t-103 72q-43 46 -67 111t-24 144t24 145q25 68 67 113q44 47 104 74t134 27q60 0 105 -15q44 -15 77 -35t51 -40q21 -23 27 -31q8 -15 11 -27q3 -14 3 -27
q0 -20 -7 -33q-8 -14 -18 -23q-10 -8 -24 -13q-12 -4 -24 -4q-15 0 -27 4q-14 4 -25 16zM364 937l2 -1q37 0 63 -23q25 -22 25 -63q0 -46 -25 -65q-26 -20 -63 -20q-38 0 -63 21t-25 63q0 40 24 64t62 24z" />
    <glyph glyph-name="cdotaccent" unicode="&#x10b;" horiz-adv-x="531" 
d="M428 188l-5 -2q11 0 22 -4q12 -4 21 -12q9 -7 15 -20q6 -12 6 -28q0 -39 -27 -66q-11 -11 -26 -23q-13 -11 -36 -22q-19 -9 -50 -16q-28 -6 -64 -6q-58 0 -105 21t-80 57t-51 85q-18 50 -18 106q0 55 20 104q20 48 54 84t81 57t101 21q56 0 107 -18q52 -18 86 -64
q11 -16 16 -28q4 -11 4 -26q0 -18 -6 -30q-7 -13 -16 -20q-11 -8 -22 -12t-22 -4q-19 0 -33 8t-21 15q-4 3 -13 12t-18 14q-13 7 -25 11q-17 5 -34 5q-25 0 -44 -11q-17 -10 -30 -29q-12 -18 -18 -42t-6 -48q0 -25 6 -47q6 -23 18 -41t30 -30t44 -12q25 0 47 11t44 30
q13 11 27 16q12 4 21 4zM285 741l2 -1q37 0 63 -23q25 -22 25 -63q0 -46 -25 -65q-26 -20 -63 -20t-63 21q-25 21 -25 63q0 40 24 64t62 24z" />
    <glyph glyph-name="Ccaron" unicode="&#x10c;" horiz-adv-x="687" 
d="M521 470l-8 -6q-12 13 -33 34q-13 13 -32 25q-16 11 -36 15q-22 5 -46 5q-77 0 -122 -55q-45 -56 -45 -153q0 -92 47 -145q46 -52 134 -52q23 0 45 5q18 4 36 14q16 9 32 23q20 18 32 30q10 10 23 15q11 4 26 4q16 0 27 -7q12 -8 21 -18q10 -12 14 -22q5 -13 5 -23
q0 -13 -5 -31q-4 -16 -18 -33q-12 -15 -38 -37q-23 -20 -53 -35q-32 -16 -69 -26t-87 -10q-75 0 -134 25t-103 72q-43 46 -67 111t-24 144t24 145q25 68 67 113q44 47 104 74t134 27q60 0 105 -15q44 -15 77 -35t51 -40q21 -23 27 -31q8 -15 11 -27q3 -14 3 -27
q0 -20 -7 -33q-8 -14 -18 -23q-10 -8 -24 -13q-12 -4 -24 -4q-15 0 -27 4q-14 4 -25 16zM415 756v-3q-5 -5 -17 -13q-9 -6 -24 -6t-24 6t-17 14l-108 116q-18 20 -18 36q0 13 11 26q10 12 27 12q7 0 11 -1q7 -2 16 -7l101 -68l101 68q11 8 16 9q4 1 11 1q17 0 27 -12
q11 -13 11 -26q0 -16 -18 -36z" />
    <glyph glyph-name="ccaron" unicode="&#x10d;" horiz-adv-x="531" 
d="M428 188l-5 -2q11 0 22 -4q12 -4 21 -12q9 -7 15 -20q6 -12 6 -28q0 -39 -27 -66q-11 -11 -26 -23q-13 -11 -36 -22q-19 -9 -50 -16q-28 -6 -64 -6q-58 0 -105 21t-80 57t-51 85q-18 50 -18 106q0 55 20 104q20 48 54 84t81 57t101 21q56 0 107 -18q52 -18 86 -64
q11 -16 16 -28q4 -11 4 -26q0 -18 -6 -30q-7 -13 -16 -20q-11 -8 -22 -12t-22 -4q-19 0 -33 8t-21 15q-4 3 -13 12t-18 14q-13 7 -25 11q-17 5 -34 5q-25 0 -44 -11q-17 -10 -30 -29q-12 -18 -18 -42t-6 -48q0 -25 6 -47q6 -23 18 -41t30 -30t44 -12q25 0 47 11t44 30
q13 11 27 16q12 4 21 4zM330 560v-3q-5 -5 -17 -13q-9 -6 -24 -6t-24 6t-17 14l-108 116q-18 20 -18 36q0 13 11 26q11 12 27 12q7 0 11 -1q7 -2 16 -7l101 -68l101 68q11 8 16 9q4 1 11 1q16 0 27 -12q11 -13 11 -26q0 -16 -18 -36z" />
    <glyph glyph-name="Dcaron" unicode="&#x10e;" horiz-adv-x="702" 
d="M342 690l2 1q70 0 129 -24t99 -69t63 -108q23 -64 23 -142t-24 -142t-66 -109t-100 -70q-57 -25 -126 -25h-194q-42 0 -60 21t-18 56v534q0 36 19 56q19 21 60 21h193zM333 139v-1q83 0 125 54t42 155t-43 153q-44 53 -129 53h-100v-414h105zM353 762v-3q-5 -5 -17 -13
q-9 -6 -24 -6t-24 6t-17 14l-108 116q-18 20 -18 36q0 13 11 26q10 12 27 12q7 0 11 -1q7 -2 16 -7l101 -68l101 68q11 8 16 9q4 1 11 1q17 0 27 -12q11 -13 11 -26q0 -16 -18 -36z" />
    <glyph glyph-name="dcaron" unicode="&#x10f;" horiz-adv-x="712" 
d="M411 616v-2q0 32 22 53q23 21 54 21t54 -21q22 -21 22 -53v-536q0 -43 -21 -61t-57 -18q-38 0 -56 22q-18 23 -18 52v18q-23 -50 -61 -75q-40 -26 -94 -26q-42 0 -84 17q-39 16 -70 50q-30 33 -48 83t-18 114q0 65 19 115q20 52 51 86q32 35 74 53t88 18q61 0 93 -25
q34 -26 50 -66v181zM301 126q23 0 42 9q21 10 35 25q15 17 24 40q9 24 9 55q0 62 -31 96q-32 35 -79 35q-53 0 -81 -36q-29 -37 -29 -96q0 -30 9 -54q9 -23 24 -40q14 -15 35 -25q19 -9 42 -9zM753 648l-2 -1q0 -48 -13 -78q-14 -31 -31 -49q-19 -19 -39 -26q-22 -8 -37 -8
q-20 0 -30 10q-11 11 -11 25q0 11 6 21t17 15q45 18 45 48q-31 7 -43 26q-12 18 -12 40q0 35 21 54q22 20 47 20q34 0 58 -25q24 -26 24 -72z" />
    <glyph glyph-name="Dcroat" unicode="&#x110;" horiz-adv-x="702" 
d="M342 690l1 1q71 0 129 -24t99 -69t63 -108q23 -64 23 -142t-24 -142t-66 -109t-100 -70q-57 -25 -126 -25h-194q-42 0 -60 21t-18 56v208h-8q-31 0 -54 20q-22 19 -22 54q0 34 23 54t54 20h8v178q0 36 19 56q19 21 60 21h193zM332 139l-1 -3q83 0 125 54t42 155t-43 153
q-44 53 -129 53h-100v-118h58q32 0 54 -19q23 -20 23 -54q0 -35 -22 -54t-54 -19h-58v-148h105z" />
    <glyph glyph-name="dcroat" unicode="&#x111;" horiz-adv-x="628" 
d="M422 656v-2q10 16 27 25t38 9t38 -9t27 -25h16q24 0 39 -18t15 -42t-15 -42t-39 -18h-5v-456q0 -43 -21 -61t-57 -18q-38 0 -56 22q-18 23 -18 52v18q-23 -50 -61 -75q-40 -26 -94 -26q-42 0 -84 17q-39 16 -70 50q-30 33 -48 83t-18 114q0 65 19 115q20 52 51 86
q32 35 74 53t88 18q61 0 93 -25q34 -26 50 -66v101h-41q-24 0 -39 18t-15 42t15 42t39 18h52zM301 126q23 0 42 9q21 10 35 25q15 17 24 40q9 24 9 55q0 62 -31 96q-32 35 -79 35q-53 0 -81 -36q-29 -37 -29 -96q0 -30 9 -54q9 -23 24 -40q14 -15 35 -25q19 -9 42 -9z" />
    <glyph glyph-name="Emacron" unicode="&#x112;" horiz-adv-x="606" 
d="M504 138l-4 -4q34 0 54 -18q19 -18 19 -50t-19 -50q-20 -18 -54 -18h-356q-38 0 -57 21q-20 22 -20 56v534q0 35 21 56t59 21h354q35 0 54 -18q20 -18 20 -50t-19 -50q-20 -18 -54 -18h-277v-134h167q35 0 56 -18t21 -50t-21 -50t-55 -18h-167v-142h278zM423 912
q24 0 39 -18t15 -42t-15 -42t-39 -18h-208q-24 0 -39 18t-15 42t15 42t39 18h208z" />
    <glyph glyph-name="emacron" unicode="&#x113;" horiz-adv-x="565" 
d="M190 216l-3 -2q10 -45 41 -66q30 -21 71 -21q18 0 36 5q14 4 30 11q15 7 23 12q10 7 14 8q20 9 33 9q29 0 47 -21t18 -47q0 -20 -10 -34q-11 -16 -22 -24q-29 -23 -73 -39t-106 -16q-54 0 -102 20q-47 20 -81 55q-34 36 -54 84q-19 47 -19 107q0 54 20 105q20 50 54 86
q35 36 81 57t102 21q55 0 97 -19q44 -20 74 -51q31 -32 47 -72q17 -42 17 -84q0 -36 -12 -60t-50 -24h-273zM287 385l1 -2q-40 0 -66 -21q-25 -20 -34 -62h187q0 15 -6 30q-6 16 -16 27q-11 13 -27 20q-18 8 -39 8zM384 712q24 0 39 -18t15 -42t-15 -42t-39 -18h-208
q-24 0 -39 18t-15 42t15 42t39 18h208z" />
    <glyph glyph-name="Ebreve" unicode="&#x114;" horiz-adv-x="606" 
d="M504 138l-4 -4q34 0 54 -18q19 -18 19 -50t-19 -50q-20 -18 -54 -18h-356q-38 0 -57 21q-20 22 -20 56v534q0 35 21 56t59 21h354q35 0 54 -18q20 -18 20 -50t-19 -50q-20 -18 -54 -18h-277v-134h167q35 0 56 -18t21 -50t-21 -50t-55 -18h-167v-142h278zM317 752h1
q-29 0 -55 10q-28 11 -48 28q-21 18 -33 42t-12 53q0 17 12 32t37 15q19 0 30 -10q13 -11 17 -27q9 -27 21 -36t32 -9t32 9t21 36q4 16 17 27q11 10 30 10q25 0 37 -15t12 -32q0 -30 -13 -53q-14 -25 -34 -42t-48 -28q-26 -10 -56 -10z" />
    <glyph glyph-name="ebreve" unicode="&#x115;" horiz-adv-x="565" 
d="M190 216l-3 -2q10 -45 41 -66q30 -21 71 -21q18 0 36 5q14 4 30 11q15 7 23 12q10 7 14 8q20 9 33 9q29 0 47 -21t18 -47q0 -20 -10 -34q-11 -16 -22 -24q-29 -23 -73 -39t-106 -16q-54 0 -102 20q-47 20 -81 55q-34 36 -54 84q-19 47 -19 107q0 54 20 105q20 50 54 86
q35 36 81 57t102 21q55 0 97 -19q44 -20 74 -51q31 -32 47 -72q17 -42 17 -84q0 -36 -12 -60t-50 -24h-273zM287 385l1 -2q-40 0 -66 -21q-25 -20 -34 -62h187q0 15 -6 30q-6 16 -16 27q-11 13 -27 20q-18 8 -39 8zM288 552h2q-30 0 -56 10q-28 11 -48 28q-21 18 -33 42
t-12 53q0 17 12 32t37 15q19 0 30 -10q13 -11 17 -27q9 -27 21 -36t32 -9t32 9t21 36q4 16 17 27q11 10 30 10q25 0 37 -15t12 -32q0 -30 -13 -53q-14 -25 -34 -42t-48 -28q-26 -10 -56 -10z" />
    <glyph glyph-name="Edotaccent" unicode="&#x116;" horiz-adv-x="606" 
d="M504 138l-4 -4q34 0 54 -18q19 -18 19 -50t-19 -50q-20 -18 -54 -18h-356q-38 0 -57 21q-20 22 -20 56v534q0 35 21 56t59 21h354q35 0 54 -18q20 -18 20 -50t-19 -50q-20 -18 -54 -18h-277v-134h167q35 0 56 -18t21 -50t-21 -50t-55 -18h-167v-142h278zM318 939l2 -1
q37 0 63 -23q25 -22 25 -63q0 -46 -25 -65q-26 -20 -63 -20q-38 0 -63 21t-25 63q0 40 24 64t62 24z" />
    <glyph glyph-name="edotaccent" unicode="&#x117;" horiz-adv-x="565" 
d="M190 216l-3 -2q10 -45 41 -66q30 -21 71 -21q18 0 36 5q14 4 30 11q15 7 23 12q10 7 14 8q20 9 33 9q29 0 47 -21t18 -47q0 -20 -10 -34q-11 -16 -22 -24q-29 -23 -73 -39t-106 -16q-54 0 -102 20q-47 20 -81 55q-34 36 -54 84q-19 47 -19 107q0 54 20 105q20 50 54 86
q35 36 81 57t102 21q55 0 97 -19q44 -20 74 -51q31 -32 47 -72q17 -42 17 -84q0 -36 -12 -60t-50 -24h-273zM287 385l1 -2q-40 0 -66 -21q-25 -20 -34 -62h187q0 15 -6 30q-6 16 -16 27q-11 13 -27 20q-18 8 -39 8zM289 739l2 -1q37 0 63 -23q25 -22 25 -63q0 -46 -25 -65
q-26 -20 -63 -20t-63 21q-25 21 -25 63q0 40 24 64t62 24z" />
    <glyph glyph-name="Eogonek" unicode="&#x118;" horiz-adv-x="606" 
d="M504 138l-4 -4q34 0 54 -18q19 -18 19 -50t-19 -50q-20 -18 -54 -18h-5q-22 -17 -34 -39q-12 -21 -12 -38q0 -10 9 -22q9 -11 32 -13q27 -2 39 -15t12 -33q0 -28 -21 -40t-55 -12q-50 0 -84 25q-35 26 -35 76q0 31 17 60q16 28 44 51h-263q-38 0 -57 21q-20 22 -20 56
v534q0 35 21 56t59 21h354q35 0 54 -18q20 -18 20 -50t-19 -50q-20 -18 -54 -18h-277v-134h167q35 0 56 -18t21 -50t-21 -50t-55 -18h-167v-142h278z" />
    <glyph glyph-name="eogonek" unicode="&#x119;" horiz-adv-x="565" 
d="M190 216l-3 -5q10 -45 41 -66q30 -21 71 -21q18 0 36 5q14 4 30 11q15 7 23 12q10 7 14 8q20 9 33 9q29 0 47 -21t18 -47q0 -20 -10 -34q-11 -16 -22 -24q-10 -7 -24 -15q-16 -9 -30 -14q-32 -20 -48 -45q-17 -26 -17 -45q0 -10 9 -22q9 -11 32 -13q27 -1 39 -15t12 -33
q0 -28 -21 -40t-55 -12q-50 0 -84 25q-35 26 -35 76q0 28 14 54t36 47h-7q-54 0 -102 20q-47 20 -81 55q-34 36 -54 84q-19 47 -19 107q0 54 20 105q20 50 54 86q35 36 81 57t102 21q55 0 97 -19q44 -20 74 -51q31 -32 47 -72q17 -42 17 -84q0 -36 -12 -60t-50 -24h-273z
M287 382l1 -2q-40 0 -66 -21q-25 -20 -34 -62h187q0 15 -6 30q-6 16 -16 27q-11 13 -27 20q-18 8 -39 8z" />
    <glyph glyph-name="Ecaron" unicode="&#x11a;" horiz-adv-x="606" 
d="M504 138l-4 -4q34 0 54 -18q19 -18 19 -50t-19 -50q-20 -18 -54 -18h-356q-38 0 -57 21q-20 22 -20 56v534q0 35 21 56t59 21h354q35 0 54 -18q20 -18 20 -50t-19 -50q-20 -18 -54 -18h-277v-134h167q35 0 56 -18t21 -50t-21 -50t-55 -18h-167v-142h278zM369 758v-3
q-5 -5 -17 -13q-9 -6 -24 -6t-24 6t-17 14l-108 116q-18 20 -18 36q0 13 11 26q10 12 27 12q7 0 11 -1q7 -2 16 -7l101 -68l101 68q11 8 16 9q4 1 11 1q17 0 27 -12q11 -13 11 -26q0 -16 -18 -36z" />
    <glyph glyph-name="ecaron" unicode="&#x11b;" horiz-adv-x="565" 
d="M190 216l-3 -2q10 -45 41 -66q30 -21 71 -21q18 0 36 5q14 4 30 11q15 7 23 12q10 7 14 8q20 9 33 9q29 0 47 -21t18 -47q0 -20 -10 -34q-11 -16 -22 -24q-29 -23 -73 -39t-106 -16q-54 0 -102 20q-47 20 -81 55q-34 36 -54 84q-19 47 -19 107q0 54 20 105q20 50 54 86
q35 36 81 57t102 21q55 0 97 -19q44 -20 74 -51q31 -32 47 -72q17 -42 17 -84q0 -36 -12 -60t-50 -24h-273zM287 385l1 -2q-40 0 -66 -21q-25 -20 -34 -62h187q0 15 -6 30q-6 16 -16 27q-11 13 -27 20q-18 8 -39 8zM330 558v-3q-5 -5 -17 -13q-9 -6 -24 -6t-24 6t-17 14
l-108 116q-18 20 -18 36q0 13 11 26q11 12 27 12q7 0 11 -1q7 -2 16 -7l101 -68l101 68q11 8 16 9q4 1 11 1q16 0 27 -12q11 -13 11 -26q0 -16 -18 -36z" />
    <glyph glyph-name="Gcircumflex" unicode="&#x11c;" horiz-adv-x="730" 
d="M591 383l-2 -4q55 0 75 -26t20 -69q0 -62 -21 -116t-61 -94t-99 -63q-60 -23 -132 -23t-131 25q-61 26 -104 72q-44 47 -69 111q-25 63 -25 144t26 148q25 66 71 113q45 47 106 72q63 26 132 26q71 0 123 -18t107 -65q27 -22 36 -44q9 -21 9 -41q1 -34 -20 -54
q-22 -20 -49 -20q-16 0 -35 8q-18 7 -33 24q-22 24 -54 43q-32 18 -79 18q-86 0 -132 -55t-46 -153q0 -45 14 -84q13 -37 38 -63q24 -25 57 -39q34 -14 71 -14q62 0 99 26q36 25 42 77h-100q-35 0 -56 18t-21 50q0 31 21 51q20 19 56 19h166zM529 814l-2 -3q11 -12 14 -18
q5 -8 5 -18q0 -13 -11 -26q-11 -12 -27 -12q-7 0 -11 1q-5 1 -16 9l-101 68l-101 -68q-9 -5 -16 -7q-4 -1 -11 -1q-16 0 -27 12q-11 13 -11 26q0 10 5 18q3 6 14 18l108 116q8 8 17 14t24 6t24 -6q12 -8 17 -13z" />
    <glyph glyph-name="gcircumflex" unicode="&#x11d;" horiz-adv-x="623" 
d="M563 52l5 -3q0 -59 -21 -106q-21 -46 -57 -79q-35 -32 -85 -49q-51 -17 -108 -17q-39 0 -75 6q-34 6 -64 20q-19 10 -28 24t-9 33q0 30 16 47q17 18 42 18q17 0 30 -3l27 -6q14 -3 30 -6t41 -3t45 9t33 24t21 36q7 20 7 44v47q-25 -50 -65 -76q-38 -25 -95 -25
q-43 0 -82 18q-40 18 -69 52q-30 35 -48 84q-18 50 -18 112q0 63 20 115t51 86q32 35 72 53q41 18 84 18q30 0 56 -8q23 -7 42 -20q17 -12 30 -29q13 -18 20 -33v16q0 28 20 46q19 18 56 18q43 0 59 -19q17 -20 17 -45v-399zM306 125q22 0 42 9q21 10 35 25q15 17 24 40
q9 24 9 55q0 61 -29 96t-81 35t-81 -36q-29 -37 -29 -96q0 -30 9 -54q9 -23 24 -40q14 -15 35 -25q20 -9 42 -9zM472 615l-2 -3q11 -12 14 -18q5 -8 5 -18q0 -13 -11 -26q-10 -12 -27 -12q-7 0 -11 1q-5 1 -16 9l-101 68l-101 -68q-9 -5 -16 -7q-4 -1 -11 -1q-17 0 -27 12
q-11 13 -11 26q0 10 5 18q3 6 14 18l108 116q8 8 17 14t24 6t24 -6q12 -8 17 -13z" />
    <glyph glyph-name="Gbreve" unicode="&#x11e;" horiz-adv-x="730" 
d="M591 383l-2 -4q55 0 75 -26t20 -69q0 -62 -21 -116t-61 -94t-99 -63q-60 -23 -132 -23t-131 25q-61 26 -104 72q-44 47 -69 111q-25 63 -25 144t26 148q25 66 71 113q45 47 106 72q63 26 132 26q71 0 123 -18t107 -65q27 -22 36 -44q9 -21 9 -41q1 -34 -20 -54
q-22 -20 -49 -20q-16 0 -35 8q-18 7 -33 24q-22 24 -54 43q-32 18 -79 18q-86 0 -132 -55t-46 -153q0 -45 14 -84q13 -37 38 -63q24 -25 57 -39q34 -14 71 -14q62 0 99 26q36 25 42 77h-100q-35 0 -56 18t-21 50q0 31 21 51q20 19 56 19h166zM371 752h1q-29 0 -55 10
q-28 11 -48 28q-21 18 -33 42t-12 53q0 17 12 32t37 15q19 0 30 -10q13 -11 17 -27q9 -27 21 -36t32 -9t32 9t21 36q4 16 17 27q11 10 30 10q25 0 37 -15t12 -32q0 -30 -13 -53q-14 -25 -34 -42t-48 -28q-26 -10 -56 -10z" />
    <glyph glyph-name="gbreve" unicode="&#x11f;" horiz-adv-x="623" 
d="M563 52l5 -3q0 -59 -21 -106q-21 -46 -57 -79q-35 -32 -85 -49q-51 -17 -108 -17q-39 0 -75 6q-34 6 -64 20q-19 10 -28 24t-9 33q0 30 16 47q17 18 42 18q17 0 30 -3l27 -6q14 -3 30 -6t41 -3t45 9t33 24t21 36q7 20 7 44v47q-25 -50 -65 -76q-38 -25 -95 -25
q-43 0 -82 18q-40 18 -69 52q-30 35 -48 84q-18 50 -18 112q0 63 20 115t51 86q32 35 72 53q41 18 84 18q30 0 56 -8q23 -7 42 -20q17 -12 30 -29q13 -18 20 -33v16q0 28 20 46q19 18 56 18q43 0 59 -19q17 -20 17 -45v-399zM306 125q22 0 42 9q21 10 35 25q15 17 24 40
q9 24 9 55q0 61 -29 96t-81 35t-81 -36q-29 -37 -29 -96q0 -30 9 -54q9 -23 24 -40q14 -15 35 -25q20 -9 42 -9zM314 553h1q-29 0 -55 10q-28 11 -48 28q-21 18 -33 42t-12 53q0 17 12 32t37 15q19 0 30 -10q13 -11 17 -27q9 -27 21 -36t32 -9t32 9t21 36q4 16 17 27
q11 10 30 10q25 0 37 -15t12 -32q0 -30 -13 -53q-14 -25 -34 -42t-48 -28q-26 -10 -56 -10z" />
    <glyph glyph-name="Gdotaccent" unicode="&#x120;" horiz-adv-x="730" 
d="M591 383l-2 -4q55 0 75 -26t20 -69q0 -62 -21 -116t-61 -94t-99 -63q-60 -23 -132 -23t-131 25q-61 26 -104 72q-44 47 -69 111q-25 63 -25 144t26 148q25 66 71 113q45 47 106 72q63 26 132 26q71 0 123 -18t107 -65q27 -22 36 -44q9 -21 9 -41q1 -34 -20 -54
q-22 -20 -49 -20q-16 0 -35 8q-18 7 -33 24q-22 24 -54 43q-32 18 -79 18q-86 0 -132 -55t-46 -153q0 -45 14 -84q13 -37 38 -63q24 -25 57 -39q34 -14 71 -14q62 0 99 26q36 25 42 77h-100q-35 0 -56 18t-21 50q0 31 21 51q20 19 56 19h166zM372 939l2 -1q37 0 63 -23
q25 -22 25 -63q0 -46 -25 -65q-26 -20 -63 -20q-38 0 -63 21t-25 63q0 40 24 64t62 24z" />
    <glyph glyph-name="gdotaccent" unicode="&#x121;" horiz-adv-x="623" 
d="M563 52l5 -3q0 -59 -21 -106q-21 -46 -57 -79q-35 -32 -85 -49q-51 -17 -108 -17q-39 0 -75 6q-34 6 -64 20q-19 10 -28 24t-9 33q0 30 16 47q17 18 42 18q17 0 30 -3l27 -6q14 -3 30 -6t41 -3t45 9t33 24t21 36q7 20 7 44v47q-25 -50 -65 -76q-38 -25 -95 -25
q-43 0 -82 18q-40 18 -69 52q-30 35 -48 84q-18 50 -18 112q0 63 20 115t51 86q32 35 72 53q41 18 84 18q30 0 56 -8q23 -7 42 -20q17 -12 30 -29q13 -18 20 -33v16q0 28 20 46q19 18 56 18q43 0 59 -19q17 -20 17 -45v-399zM306 125q22 0 42 9q21 10 35 25q15 17 24 40
q9 24 9 55q0 61 -29 96t-81 35t-81 -36q-29 -37 -29 -96q0 -30 9 -54q9 -23 24 -40q14 -15 35 -25q20 -9 42 -9zM315 740l2 -1q37 0 63 -23q25 -22 25 -63q0 -46 -25 -65q-26 -20 -63 -20t-63 21q-25 21 -25 63q0 40 24 64t62 24z" />
    <glyph glyph-name="Gcommaaccent" unicode="&#x122;" horiz-adv-x="730" 
d="M591 383l-2 -4q55 0 75 -26t20 -69q0 -62 -21 -116t-61 -94t-99 -63q-60 -23 -132 -23t-131 25q-61 26 -104 72q-44 47 -69 111q-25 63 -25 144t26 148q25 66 71 113q45 47 106 72q63 26 132 26q71 0 123 -18t107 -65q27 -22 36 -44q9 -21 9 -41q1 -34 -20 -54
q-22 -20 -49 -20q-16 0 -35 8q-18 7 -33 24q-22 24 -54 43q-32 18 -79 18q-86 0 -132 -55t-46 -153q0 -45 14 -84q13 -37 38 -63q24 -25 57 -39q34 -14 71 -14q62 0 99 26q36 25 42 77h-100q-35 0 -56 18t-21 50q0 31 21 51q20 19 56 19h166zM443 -154l-2 -1q0 -48 -13 -78
q-14 -31 -31 -49q-19 -19 -39 -26q-22 -8 -37 -8q-20 0 -30 10q-11 11 -11 25q0 11 6 21t17 15q45 18 45 48q-31 7 -43 26q-12 18 -12 40q0 35 21 54q22 20 47 20q34 0 58 -25q24 -26 24 -72z" />
    <glyph glyph-name="gcommaaccent" unicode="&#x123;" horiz-adv-x="623" 
d="M563 52l5 -3q0 -59 -21 -106q-21 -46 -57 -79q-35 -32 -85 -49q-51 -17 -108 -17q-39 0 -75 6q-34 6 -64 20q-19 10 -28 24t-9 33q0 30 16 47q17 18 42 18q17 0 30 -3l27 -6q14 -3 30 -6t41 -3t45 9t33 24t21 36q7 20 7 44v47q-25 -50 -65 -76q-38 -25 -95 -25
q-43 0 -82 18q-40 18 -69 52q-30 35 -48 84q-18 50 -18 112q0 63 20 115t51 86q32 35 72 53q41 18 84 18q30 0 56 -8q23 -7 42 -20q17 -12 30 -29q13 -18 20 -33v16q0 28 20 46q19 18 56 18q43 0 59 -19q17 -20 17 -45v-399zM306 125q22 0 42 9q21 10 35 25q15 17 24 40
q9 24 9 55q0 61 -29 96t-81 35t-81 -36q-29 -37 -29 -96q0 -30 9 -54q9 -23 24 -40q14 -15 35 -25q20 -9 42 -9zM232 653l1 -2q0 48 13 78q13 32 32 50q19 19 39 26q22 8 37 8q20 0 30 -10q11 -11 11 -25q0 -10 -6 -21q-6 -10 -17 -15q-45 -18 -45 -48q31 -7 43 -25t12 -40
q0 -35 -21 -54q-22 -20 -47 -20q-34 0 -58 26q-24 25 -24 72z" />
    <glyph glyph-name="Hcircumflex" unicode="&#x124;" horiz-adv-x="707" 
d="M481 612q0 35 21 56t56 21t56 -21t21 -56v-534q0 -35 -21 -56t-56 -21t-56 21t-21 56v208h-255v-208q0 -35 -21 -56t-56 -21t-56 21t-21 56v534q0 35 21 56t56 21t56 -21t21 -56v-188h255v188zM509 818l-2 -3q11 -12 14 -18q5 -8 5 -18q0 -13 -11 -26q-11 -12 -27 -12
q-7 0 -11 1q-5 1 -16 9l-101 68l-101 -68q-9 -5 -16 -7q-4 -1 -11 -1q-16 0 -27 12q-11 13 -11 26q0 10 5 18q3 6 14 18l108 116q8 8 17 14t24 6t24 -6q12 -8 17 -13z" />
    <glyph glyph-name="hcircumflex" unicode="&#x125;" horiz-adv-x="598" 
d="M217 435l-3 -1q19 43 54 67q34 24 86 24q85 0 133 -54t48 -151v-246q0 -32 -22 -53q-23 -21 -54 -21t-54 21q-22 21 -22 53v189q0 64 -23 95q-22 30 -63 30q-40 0 -61 -31t-21 -99v-184q0 -32 -22 -53q-23 -21 -54 -21t-54 21q-22 21 -22 53v542q0 31 20 53q19 21 57 21
t57 -21q20 -22 20 -53v-181zM412 797l-2 -3q11 -12 14 -18q5 -8 5 -18q0 -13 -11 -26q-10 -12 -27 -12q-7 0 -11 1q-5 1 -16 9l-101 68l-101 -68q-9 -5 -16 -7q-4 -1 -11 -1q-17 0 -27 12q-11 13 -11 26q0 10 5 18q3 6 14 18l108 116q8 8 17 14t24 6t24 -6q12 -8 17 -13z
" />
    <glyph glyph-name="Hbar" unicode="&#x126;" horiz-adv-x="707" 
d="M70 607v5q0 35 21 56t56 21t56 -21t21 -56v-5h255v5q0 35 21 56t56 21t56 -21t21 -56v-5h10q24 0 39 -18t15 -42t-15 -42t-39 -18h-10v-409q0 -35 -21 -56t-56 -21t-56 21t-21 56v208h-255v-208q0 -35 -21 -56t-56 -21t-56 21t-21 56v409h-11q-24 0 -39 18t-15 42t15 42
t39 18h11zM481 487h-255v-63h255v63z" />
    <glyph glyph-name="hbar" unicode="&#x127;" horiz-adv-x="598" 
d="M74 656l-1 -1q19 34 67 34q47 0 66 -34h56q24 0 39 -18t15 -42t-15 -42t-39 -18h-46v-101q19 43 54 67q34 24 86 24q85 0 133 -54t48 -151v-246q0 -32 -22 -53q-23 -21 -54 -21t-54 21q-22 21 -22 53v189q0 64 -23 95q-22 30 -63 30q-40 0 -61 -31t-21 -99v-184
q0 -32 -22 -53q-23 -21 -54 -21t-54 21q-22 21 -22 53v462q-24 0 -39 18t-15 42t15 42t39 18h9z" />
    <glyph glyph-name="Itilde" unicode="&#x128;" horiz-adv-x="296" 
d="M70 612q0 35 21 56t56 21t56 -21t21 -56v-534q0 -35 -21 -56t-56 -21t-56 21t-21 56v534zM72 920l-6 -2q23 0 43 -5q15 -4 33 -11q20 -8 30 -11q17 -5 34 -5q12 0 21 3q8 3 18 14q6 8 14 14q7 6 21 6q20 0 35 -16q15 -17 15 -42q0 -38 -25 -63q-27 -30 -66 -30
q-27 0 -47 6q-23 7 -36 13q-4 2 -32 13q-15 6 -34 6q-29 0 -45 -22q-6 -6 -18 -13q-11 -6 -27 -6q-22 0 -34 15t-12 37q0 9 5 26q4 15 17 29q15 17 39 31q22 13 57 13z" />
    <glyph glyph-name="itilde" unicode="&#x129;" horiz-adv-x="287" 
d="M65 441l2 -4q0 32 21 53t54 21t54 -21t21 -52v-256q0 -18 5 -33q4 -13 17 -13q20 0 27 -19q8 -21 8 -39q0 -34 -21 -57q-21 -22 -65 -22q-28 0 -50 9t-39 30q-16 20 -25 54q-9 33 -9 81v268zM70 716l-6 -2q23 0 43 -5q15 -4 33 -11q20 -8 30 -11q17 -5 34 -5q12 0 21 3
q8 3 18 14q6 8 14 14q7 6 21 6q20 0 35 -16q15 -17 15 -42q0 -38 -25 -63q-27 -30 -66 -30q-27 0 -47 6q-23 7 -36 13q-4 2 -32 13q-15 6 -34 6q-29 0 -45 -22q-6 -6 -18 -13q-11 -6 -27 -6q-22 0 -34 15t-12 37q0 9 5 26q4 15 17 29q15 17 39 31q22 13 57 13z" />
    <glyph glyph-name="Imacron" unicode="&#x12a;" horiz-adv-x="296" 
d="M70 612q0 35 21 56t56 21t56 -21t21 -56v-534q0 -35 -21 -56t-56 -21t-56 21t-21 56v534zM252 916q24 0 39 -18t15 -42t-15 -42t-39 -18h-208q-24 0 -39 18t-15 42t15 42t39 18h208z" />
    <glyph glyph-name="imacron" unicode="&#x12b;" horiz-adv-x="287" 
d="M65 441l2 -4q0 32 21 53t54 21t54 -21t21 -52v-256q0 -18 5 -33q4 -13 17 -13q20 0 27 -19q8 -21 8 -39q0 -34 -21 -57q-21 -22 -65 -22q-28 0 -50 9t-39 30q-16 20 -25 54q-9 33 -9 81v268zM250 712q24 0 39 -18t15 -42t-15 -42t-39 -18h-208q-24 0 -39 18t-15 42t15 42
t39 18h208z" />
    <glyph glyph-name="Ibreve" unicode="&#x12c;" horiz-adv-x="296" 
d="M70 612q0 35 21 56t56 21t56 -21t21 -56v-534q0 -35 -21 -56t-56 -21t-56 21t-21 56v534zM146 756h1q-29 0 -55 10q-28 11 -48 28q-21 18 -33 42t-12 53q0 17 12 32t37 15q19 0 30 -10q13 -11 17 -27q9 -27 21 -36t32 -9t32 9t21 36q4 16 17 27q11 10 30 10q25 0 37 -15
t12 -32q0 -30 -13 -53q-14 -25 -34 -42t-48 -28q-26 -10 -56 -10z" />
    <glyph glyph-name="ibreve" unicode="&#x12d;" horiz-adv-x="287" 
d="M65 441l2 -4q0 32 21 53t54 21t54 -21t21 -52v-256q0 -18 5 -33q4 -13 17 -13q20 0 27 -19q8 -21 8 -39q0 -34 -21 -57q-21 -22 -65 -22q-28 0 -50 9t-39 30q-16 20 -25 54q-9 33 -9 81v268zM144 552h1q-29 0 -55 10q-28 11 -48 28q-21 18 -33 42t-12 53q0 17 12 32
t37 15q19 0 30 -10q13 -11 17 -27q9 -27 21 -36t32 -9t32 9t21 36q4 16 17 27q11 10 30 10q25 0 37 -15t12 -32q0 -30 -13 -53q-14 -25 -34 -42t-48 -28q-26 -10 -56 -10z" />
    <glyph glyph-name="Iogonek" unicode="&#x12e;" horiz-adv-x="296" 
d="M70 612l2 -1q0 35 21 56t56 21t56 -21t21 -56v-534q0 -31 -18 -52q-17 -20 -47 -25q-22 -17 -34 -39q-12 -21 -12 -38q0 -10 9 -22q9 -11 32 -13q27 -2 39 -15t12 -33q0 -28 -21 -40t-55 -12q-50 0 -84 25q-35 26 -35 76q0 39 24 72q25 34 60 56q-26 21 -26 61v534z" />
    <glyph glyph-name="iogonek" unicode="&#x12f;" horiz-adv-x="287" 
d="M65 441l2 -5q0 32 21 53t54 21t54 -21t21 -52v-256q0 -18 5 -33q4 -13 17 -13q20 0 27 -19q8 -21 8 -39q0 -32 -16 -52q-17 -21 -49 -27q-23 -19 -35 -39q-12 -21 -12 -38q0 -10 9 -22q9 -11 32 -13q27 -2 39 -15t12 -33q0 -28 -21 -40t-55 -12q-50 0 -84 25
q-35 26 -35 76q0 37 21 69q21 31 53 54q-32 15 -50 54t-18 109v268zM145 738l2 -1q37 0 63 -23q25 -22 25 -63q0 -46 -25 -65q-26 -20 -63 -20t-63 21q-25 21 -25 63q0 40 24 64t62 24z" />
    <glyph glyph-name="Idotaccent" unicode="&#x130;" horiz-adv-x="296" 
d="M70 612q0 35 21 56t56 21t56 -21t21 -56v-534q0 -35 -21 -56t-56 -21t-56 21t-21 56v534zM147 943l2 -1q37 0 63 -23q25 -22 25 -63q0 -46 -25 -65q-26 -20 -63 -20t-63 21q-25 21 -25 63q0 40 24 64t62 24z" />
    <glyph glyph-name="dotlessi" unicode="&#x131;" horiz-adv-x="287" 
d="M65 441l2 -4q0 32 21 53t54 21t54 -21t21 -52v-256q0 -18 5 -33q4 -13 17 -13q20 0 27 -19q8 -21 8 -39q0 -34 -21 -57q-21 -22 -65 -22q-28 0 -50 9t-39 30q-16 20 -25 54q-9 33 -9 81v268z" />
    <glyph glyph-name="IJ" unicode="&#x132;" horiz-adv-x="909" 
d="M70 612q0 35 21 56t56 21t56 -21t21 -56v-534q0 -35 -21 -56t-56 -21t-56 21t-21 56v534zM688 613l-1 -4q0 35 21 56t56 21t56 -21t21 -56v-359q0 -69 -22 -117q-22 -49 -59 -81t-84 -47q-48 -15 -97 -15q-46 0 -85 11q-36 10 -66 29q-28 18 -48 42q-20 25 -35 50
q-13 24 -17 42q-5 22 -5 30q0 21 9 36t21 24q13 10 27 14q13 4 27 4q24 0 38 -13q16 -14 29 -39q20 -42 45 -60t63 -18q17 0 39 5q19 4 34 18t24 34q9 21 9 53v361z" />
    <glyph glyph-name="ij" unicode="&#x133;" horiz-adv-x="569" 
d="M143 700l-3 1q34 0 57 -21t23 -58q0 -40 -23 -58q-22 -18 -56 -18q-33 0 -55 19t-22 57q0 36 22 57t57 21zM62 442l2 -4q0 32 21 53t54 21t54 -21t21 -52v-256q0 -18 5 -33q4 -13 17 -13q20 0 27 -19q8 -21 8 -39q0 -35 -21 -57t-65 -22q-27 0 -50 9t-39 30
q-16 20 -25 54q-9 33 -9 81v268zM351 438l-2 -1q0 32 22 53q23 21 54 21t54 -21q22 -21 22 -53v-418q0 -101 -44 -157q-43 -55 -131 -55q-55 0 -78 22q-24 23 -24 51t17 48q16 19 51 19q20 0 32 6t18 17q5 9 7 26q2 20 2 34v408zM424 696l-3 1q35 0 57 -21q23 -21 23 -58
q0 -40 -23 -58q-22 -18 -56 -18q-33 0 -55 19t-22 57q0 36 22 57q23 21 57 21z" />
    <glyph glyph-name="Jcircumflex" unicode="&#x134;" horiz-adv-x="613" 
d="M392 613l-1 -4q0 35 21 56t56 21t56 -21t21 -56v-359q0 -69 -22 -117q-22 -49 -59 -81t-84 -47q-48 -15 -97 -15q-46 0 -85 11q-36 10 -66 29q-28 18 -48 42q-20 25 -35 50q-13 24 -17 42q-5 22 -5 30q0 21 9 36t21 24q13 10 27 14q13 4 27 4q24 0 38 -13q16 -14 29 -39
q20 -42 45 -60t63 -18q17 0 39 5q19 4 34 18t24 34q9 21 9 53v361zM611 814l-2 -3q11 -12 14 -18q5 -8 5 -18q0 -13 -11 -26q-11 -12 -27 -12q-7 0 -11 1q-5 1 -16 9l-101 68l-101 -68q-9 -5 -16 -7q-4 -1 -11 -1q-16 0 -27 12q-11 13 -11 26q0 10 5 18q3 6 14 18l108 116
q8 8 17 14t24 6t24 -6q12 -8 17 -13z" />
    <glyph glyph-name="jcircumflex" unicode="&#x135;" horiz-adv-x="282" 
d="M65 441l-2 -1q0 32 22 53q23 21 54 21t54 -21q22 -21 22 -53v-418q0 -101 -44 -157q-43 -55 -131 -55q-55 0 -78 22q-24 22 -24 51q0 28 17 48q16 19 51 19q20 0 32 6t18 17q5 9 7 26q2 20 2 34v408zM295 617l-2 -3q11 -12 14 -18q5 -8 5 -18q0 -13 -11 -26
q-11 -12 -27 -12q-7 0 -11 1q-5 1 -16 9l-101 68l-101 -68q-9 -5 -16 -7q-4 -1 -11 -1q-16 0 -27 12q-11 13 -11 26q0 10 5 18q3 6 14 18l108 116q8 8 17 14t24 6t24 -6q12 -8 17 -13z" />
    <glyph glyph-name="Kcommaaccent" unicode="&#x136;" horiz-adv-x="638" 
d="M575 144l-2 -2q21 -24 26 -37q6 -15 6 -28q0 -18 -8 -34q-7 -15 -19 -25q-12 -11 -25 -15q-12 -4 -24 -4q-38 0 -62 27l-201 229l-42 -47v-128q0 -34 -21 -57t-56 -23t-56 23t-21 57v528q0 34 21 57t56 23t56 -23t21 -57v-196l220 247q14 13 27 21q14 8 36 8q32 0 53 -21
t21 -47q0 -14 -3 -27q-3 -12 -17 -28l-180 -200zM407 -152l-2 -1q0 -48 -13 -78q-14 -31 -31 -49q-19 -19 -39 -26q-22 -8 -37 -8q-20 0 -30 10q-11 11 -11 25q0 11 6 21t17 15q45 18 45 48q-31 7 -43 26q-12 18 -12 40q0 35 21 54q22 20 47 20q34 0 58 -25q24 -26 24 -72z
" />
    <glyph glyph-name="kcommaaccent" unicode="&#x137;" horiz-adv-x="561" 
d="M366 279l138 -156q13 -15 17 -21q9 -12 9 -33q0 -18 -7 -31t-18 -22q-10 -9 -23 -12q-12 -3 -23 -3q-17 0 -29 6t-26 20l-144 162l-43 -36v-79q0 -32 -19 -52q-20 -21 -57 -21t-57 21q-19 20 -19 53v542q0 32 18 53t57 21t57 -21t18 -52v-287l174 150q14 11 32 24
q16 11 35 11q32 0 50 -21t18 -46q0 -22 -8 -36q-7 -13 -21 -25zM358 -148l-2 -1q0 -48 -13 -78q-13 -32 -31 -49q-19 -19 -39 -26q-22 -8 -37 -8q-20 0 -30 10q-11 11 -11 25q0 11 6 21t17 15q45 18 45 48q-31 7 -43 26q-12 18 -12 40q0 35 21 54q22 20 47 20q34 0 58 -25
q24 -26 24 -72z" />
    <glyph glyph-name="Lacute" unicode="&#x139;" horiz-adv-x="564" 
d="M149 0l1 -1q-37 0 -58 21t-21 56v534q0 35 21 56t56 21t56 -21t21 -56v-474h241q35 0 56 -18t21 -50t-21 -50t-55 -18h-318zM218 935v1q8 8 18 12q12 5 24 5q11 0 24 -5t21 -13q10 -10 14 -19q5 -12 5 -23q0 -35 -25 -51l-133 -86q-9 -6 -18 -10q-8 -3 -12 -3
q-20 0 -33 15q-13 14 -13 32q0 21 20 41z" />
    <glyph glyph-name="lacute" unicode="&#x13a;" horiz-adv-x="287" 
d="M65 616l2 -4q0 32 21 53t54 21t54 -21t21 -52v-431q0 -18 5 -33q4 -13 17 -13q20 0 27 -19q8 -21 8 -39q0 -34 -21 -57q-21 -22 -65 -22q-28 0 -50 9t-39 30q-16 20 -25 54q-9 33 -9 81v443zM181 912v1q7 7 18 12q12 5 24 5q11 0 24 -5t21 -13q10 -10 14 -19q5 -12 5 -23
q0 -35 -25 -51l-133 -86q-9 -6 -18 -10q-7 -3 -12 -3q-19 0 -33 15q-13 14 -13 32q0 21 20 41z" />
    <glyph glyph-name="Lcommaaccent" unicode="&#x13b;" horiz-adv-x="564" 
d="M149 0l1 -1q-37 0 -58 21t-21 56v534q0 35 21 56t56 21t56 -21t21 -56v-474h241q35 0 56 -18t21 -50t-21 -50t-55 -18h-318zM383 -151l-2 -1q0 -48 -13 -78q-14 -32 -31 -49q-19 -19 -39 -26q-22 -8 -37 -8q-20 0 -30 10q-11 11 -11 25q0 10 6 21q6 10 17 15q45 18 45 48
q-31 7 -43 26q-12 18 -12 40q0 34 21 54q22 20 47 20q34 0 58 -25t24 -72z" />
    <glyph glyph-name="lcommaaccent" unicode="&#x13c;" horiz-adv-x="287" 
d="M65 616l2 -4q0 32 21 53t54 21t54 -21t21 -52v-431q0 -18 5 -33q4 -13 17 -13q20 0 27 -19q8 -21 8 -39q0 -34 -21 -57q-21 -22 -65 -22q-28 0 -50 9t-39 30q-16 20 -25 54q-9 33 -9 81v443zM235 -154l-2 -1q0 -48 -13 -78q-14 -32 -31 -49q-19 -19 -39 -26
q-22 -8 -37 -8q-20 0 -30 10q-11 11 -11 25q0 11 6 21t17 15q45 18 45 48q-31 7 -43 26q-12 18 -12 40q0 35 21 54q22 20 47 20q34 0 58 -25q24 -26 24 -72z" />
    <glyph glyph-name="Lcaron" unicode="&#x13d;" horiz-adv-x="564" 
d="M149 0l1 -1q-37 0 -58 21t-21 56v534q0 35 21 56t56 21t56 -21t21 -56v-474h241q35 0 56 -18t21 -50t-21 -50t-55 -18h-318zM453 649l-2 -1q0 -48 -13 -78q-13 -32 -31 -49q-19 -19 -39 -26q-22 -8 -37 -8q-20 0 -30 10q-11 11 -11 25q0 10 6 21q6 10 17 15q45 18 45 48
q-31 7 -43 26q-12 18 -12 40q0 34 21 54q22 20 47 20q34 0 58 -25t24 -72z" />
    <glyph glyph-name="lcaron" unicode="&#x13e;" horiz-adv-x="371" 
d="M65 616l2 -4q0 32 21 53t54 21t54 -21t21 -52v-431q0 -18 5 -33q4 -13 17 -13q20 0 27 -19q8 -21 8 -39q0 -34 -21 -57q-21 -22 -65 -22q-28 0 -50 9t-39 30q-16 20 -25 54q-9 33 -9 81v443zM414 646l-2 -1q0 -48 -13 -78q-13 -31 -31 -49q-19 -19 -39 -26q-22 -8 -37 -8
q-20 0 -30 10q-11 11 -11 25q0 11 6 21t17 15q45 18 45 48q-31 7 -43 26q-12 18 -12 40q0 35 21 54q22 20 47 20q34 0 58 -25q24 -26 24 -72z" />
    <glyph glyph-name="Ldot" unicode="&#x13f;" horiz-adv-x="564" 
d="M149 0l1 -1q-37 0 -58 21t-21 56v534q0 35 21 56t56 21t56 -21t21 -56v-474h241q35 0 56 -18t21 -50t-21 -50t-55 -18h-318zM422 443l2 -1q37 0 63 -23q25 -22 25 -63q0 -46 -25 -65q-26 -20 -63 -20q-38 0 -63 21t-25 63q0 40 24 64t62 24z" />
    <glyph glyph-name="ldot" unicode="&#x140;" horiz-adv-x="383" 
d="M65 616l2 -4q0 32 21 53t54 21t54 -21t21 -52v-431q0 -18 5 -33q4 -13 17 -13q20 0 27 -19q8 -21 8 -39q0 -34 -21 -57q-21 -22 -65 -22q-28 0 -50 9t-39 30q-16 20 -25 54q-9 33 -9 81v443zM337 440l2 -1q37 0 63 -23q25 -22 25 -63q0 -46 -25 -65q-26 -20 -63 -20
t-63 21q-25 21 -25 63q0 40 24 64t62 24z" />
    <glyph glyph-name="Lslash" unicode="&#x141;" horiz-adv-x="564" 
d="M226 339l2 -203h241q35 0 56 -18t21 -50t-21 -50t-55 -18h-318q-37 0 -58 21t-21 56v172l-9 -5q-7 -3 -19 -7q-9 -3 -16 -3q-29 0 -42 18q-13 17 -13 41q0 13 6 25q6 11 24 22l69 39v231q0 35 21 56t56 21t56 -21t21 -56v-144l88 50q16 8 32 8q26 0 39 -16q14 -17 14 -36
q0 -14 -6 -27t-22 -22z" />
    <glyph glyph-name="lslash" unicode="&#x142;" horiz-adv-x="287" 
d="M217 341l1 -161q0 -18 5 -33q4 -13 17 -13q20 0 27 -19q8 -21 8 -39q0 -34 -21 -57q-21 -22 -65 -22q-28 0 -50 9q-23 9 -39 30q-16 20 -25 54q-9 33 -9 81v83l-11 -6q-15 -9 -31 -9q-23 0 -39 16t-16 40q0 16 7 29q8 14 22 21l69 38v231q0 32 21 53t54 21t54 -21t21 -52
v-146l31 17q13 7 30 7q22 0 39 -15t17 -40q0 -14 -7 -27q-8 -14 -22 -21z" />
    <glyph glyph-name="Nacute" unicode="&#x143;" 
d="M470 614l-5 -3q0 35 23 56q22 21 56 21t56 -21q23 -21 23 -55v-538q0 -31 -20 -54q-19 -22 -54 -22q-21 0 -39 8q-16 7 -31 27l-255 334v-293q0 -34 -22 -55t-55 -21t-55 21t-22 56v529q0 19 4 32q4 14 14 27q8 11 24 19q14 7 36 7q20 0 35 -7q17 -8 30 -27l257 -360v319
zM358 933v1q8 8 18 12q12 5 24 5q11 0 24 -5t21 -13q10 -10 14 -19q5 -12 5 -23q0 -35 -25 -51l-133 -86q-9 -6 -18 -10q-8 -3 -12 -3q-20 0 -33 15q-13 14 -13 32q0 21 20 41z" />
    <glyph glyph-name="nacute" unicode="&#x144;" horiz-adv-x="598" 
d="M65 450l-5 -6q0 10 5 23q4 11 14 21q9 9 24 15t35 6q40 0 57 -20t17 -42v-17q18 46 57 68q40 23 86 23q83 0 131 -53q48 -52 48 -152v-246q0 -31 -21 -52t-54 -21t-54 21t-21 53v189q0 64 -23 95q-23 30 -63 30q-38 0 -60 -31t-22 -97v-185q0 -31 -21 -52t-54 -21
q-31 0 -54 21q-22 21 -22 54v376zM309 730v1q7 7 18 12q12 5 24 5q11 0 24 -5t21 -13q10 -10 14 -19q5 -12 5 -23q0 -35 -25 -51l-133 -86q-9 -6 -18 -10q-7 -3 -12 -3q-19 0 -33 15q-13 14 -13 32q0 21 20 41z" />
    <glyph glyph-name="Ncommaaccent" unicode="&#x145;" 
d="M470 614l-5 -3q0 35 23 56q22 21 56 21t56 -21q23 -21 23 -55v-538q0 -31 -20 -54q-19 -22 -54 -22q-21 0 -39 8q-16 7 -31 27l-255 334v-293q0 -34 -22 -55t-55 -21t-55 21t-22 56v529q0 19 4 32q4 14 14 27q8 11 24 19q14 7 36 7q20 0 35 -7q17 -8 30 -27l257 -360v319
zM413 -153l-2 -1q0 -48 -13 -78q-14 -32 -31 -49q-19 -19 -39 -26q-22 -8 -37 -8q-20 0 -30 10q-11 11 -11 25q0 10 6 21q6 10 17 15q45 18 45 48q-31 7 -43 26q-12 18 -12 40q0 34 21 54q22 20 47 20q34 0 58 -25t24 -72z" />
    <glyph glyph-name="ncommaaccent" unicode="&#x146;" horiz-adv-x="598" 
d="M65 450l-5 -6q0 10 5 23q4 11 14 21q9 9 24 15t35 6q40 0 57 -20t17 -42v-17q18 46 57 68q40 23 86 23q83 0 131 -53q48 -52 48 -152v-246q0 -31 -21 -52t-54 -21t-54 21t-21 53v189q0 64 -23 95q-23 30 -63 30q-38 0 -60 -31t-22 -97v-185q0 -31 -21 -52t-54 -21
q-31 0 -54 21q-22 21 -22 54v376zM364 -156l-2 -1q0 -48 -13 -78q-13 -31 -31 -49q-19 -19 -39 -26q-22 -8 -37 -8q-20 0 -30 10q-11 11 -11 25q0 11 6 21t17 15q45 18 45 48q-31 7 -43 26q-12 18 -12 40q0 35 21 54q22 20 47 20q34 0 58 -25q24 -26 24 -72z" />
    <glyph glyph-name="Ncaron" unicode="&#x147;" 
d="M470 614l-5 -3q0 35 23 56q22 21 56 21t56 -21q23 -21 23 -55v-538q0 -31 -20 -54q-19 -22 -54 -22q-21 0 -39 8q-16 7 -31 27l-255 334v-293q0 -34 -22 -55t-55 -21t-55 21t-22 56v529q0 19 4 32q4 14 14 27q8 11 24 19q14 7 36 7q20 0 35 -7q17 -8 30 -27l257 -360v319
zM393 759v-3q-5 -5 -17 -13q-9 -6 -24 -6t-24 6t-17 14l-108 116q-18 19 -18 36q0 13 11 26q10 12 27 12q7 0 11 -1q7 -2 16 -7l101 -68l101 68q11 8 16 9q4 1 11 1q17 0 27 -12q11 -13 11 -26q0 -17 -18 -36z" />
    <glyph glyph-name="ncaron" unicode="&#x148;" horiz-adv-x="598" 
d="M65 450l-5 -6q0 10 5 23q4 11 14 21q9 9 24 15t35 6q40 0 57 -20t17 -42v-17q18 46 57 68q40 23 86 23q83 0 131 -53q48 -52 48 -152v-246q0 -31 -21 -52t-54 -21t-54 21t-21 53v189q0 64 -23 95q-23 30 -63 30q-38 0 -60 -31t-22 -97v-185q0 -31 -21 -52t-54 -21
q-31 0 -54 21q-22 21 -22 54v376zM344 556v-3q-5 -5 -17 -13q-9 -6 -24 -6t-24 6t-17 14l-108 116q-18 20 -18 36q0 13 11 26q11 12 27 12q7 0 11 -1q7 -2 16 -7l101 -68l101 68q11 8 16 9q4 1 11 1q16 0 27 -12q11 -13 11 -26q0 -16 -18 -36z" />
    <glyph glyph-name="Omacron" unicode="&#x14c;" horiz-adv-x="752" 
d="M376 700q75 0 135 -25q61 -25 105 -72q45 -48 68 -112q24 -66 24 -147t-24 -147q-23 -64 -68 -112q-44 -47 -105 -72q-60 -25 -135 -25t-134 25q-61 26 -104 72q-45 48 -68 112q-24 66 -24 147t24 147q23 64 68 112q43 46 104 72q59 25 134 25zM376 548q-76 0 -123 -54
q-47 -55 -47 -149t47 -149q47 -54 123 -54t123 54q47 55 47 149t-47 149q-47 54 -123 54zM480 916q24 0 39 -18t15 -42t-15 -42t-39 -18h-208q-24 0 -39 18t-15 42t15 42t39 18h208z" />
    <glyph glyph-name="omacron" unicode="&#x14d;" horiz-adv-x="600" 
d="M300 525h-2q58 0 106 -21q49 -21 83 -57q35 -36 54 -85q20 -51 20 -105q0 -58 -19 -106q-19 -49 -54 -85q-34 -36 -83 -57q-48 -21 -106 -21t-106 21q-49 21 -83 57q-35 36 -54 85q-19 48 -19 106q0 54 20 105q19 49 54 85q34 36 83 57q48 21 106 21zM298 387l-2 -3
q-28 0 -48 -10t-34 -27q-13 -16 -19 -39q-6 -22 -6 -50q0 -26 6 -50q6 -23 20 -42t34 -29q22 -11 48 -11t48 11q21 10 34 28q14 19 20 41t6 48q0 27 -6 51q-6 25 -19 42q-14 19 -34 29q-22 11 -48 11zM400 713q24 0 39 -18t15 -42t-15 -42t-39 -18h-208q-24 0 -39 18t-15 42
t15 42t39 18h208z" />
    <glyph glyph-name="Obreve" unicode="&#x14e;" horiz-adv-x="752" 
d="M376 700q75 0 135 -25q61 -25 105 -72q45 -48 68 -112q24 -66 24 -147t-24 -147q-23 -64 -68 -112q-44 -47 -105 -72q-60 -25 -135 -25t-134 25q-61 26 -104 72q-45 48 -68 112q-24 66 -24 147t24 147q23 64 68 112q43 46 104 72q59 25 134 25zM376 548q-76 0 -123 -54
q-47 -55 -47 -149t47 -149q47 -54 123 -54t123 54q47 55 47 149t-47 149q-47 54 -123 54zM374 756h1q-29 0 -55 10q-28 11 -48 28q-21 18 -33 42t-12 53q0 17 12 32t37 15q19 0 30 -10q13 -11 17 -27q9 -27 21 -36t32 -9t32 9t21 36q4 16 17 27q11 10 30 10q25 0 37 -15
t12 -32q0 -30 -13 -53q-14 -25 -34 -42t-48 -28q-26 -10 -56 -10z" />
    <glyph glyph-name="obreve" unicode="&#x14f;" horiz-adv-x="600" 
d="M300 525h-2q58 0 106 -21q49 -21 83 -57q35 -36 54 -85q20 -51 20 -105q0 -58 -19 -106q-19 -49 -54 -85q-34 -36 -83 -57q-48 -21 -106 -21t-106 21q-49 21 -83 57q-35 36 -54 85q-19 48 -19 106q0 54 20 105q19 49 54 85q34 36 83 57q48 21 106 21zM298 387l-2 -3
q-28 0 -48 -10t-34 -27q-13 -16 -19 -39q-6 -22 -6 -50q0 -26 6 -50q6 -23 20 -42t34 -29q22 -11 48 -11t48 11q21 10 34 28q14 19 20 41t6 48q0 27 -6 51q-6 25 -19 42q-14 19 -34 29q-22 11 -48 11zM294 553h1q-29 0 -55 10q-28 11 -48 28q-21 18 -33 42t-12 53
q0 17 12 32t37 15q19 0 30 -10q13 -11 17 -27q9 -27 21 -36t32 -9t32 9t21 36q4 16 17 27q11 10 30 10q25 0 37 -15t12 -32q0 -30 -13 -53q-14 -25 -34 -42t-48 -28q-26 -10 -56 -10z" />
    <glyph glyph-name="Ohungarumlaut" unicode="&#x150;" horiz-adv-x="752" 
d="M376 700q75 0 135 -25q61 -25 105 -72q45 -48 68 -112q24 -66 24 -147t-24 -147q-23 -64 -68 -112q-44 -47 -105 -72q-60 -25 -135 -25t-134 25q-61 26 -104 72q-45 48 -68 112q-24 66 -24 147t24 147q23 64 68 112q43 46 104 72q59 25 134 25zM376 548q-76 0 -123 -54
q-47 -55 -47 -149t47 -149q47 -54 123 -54t123 54q47 55 47 149t-47 149q-47 54 -123 54zM331 936v1q7 7 18 12q12 5 24 5q11 0 24 -5t21 -13q10 -10 14 -19q5 -12 5 -23q0 -35 -25 -51l-133 -86q-9 -6 -18 -10q-7 -3 -12 -3q-19 0 -33 15q-13 14 -13 32q0 21 20 41z
M555 937v1q7 8 18 12q12 5 24 5q11 0 24 -5t21 -13q10 -10 14 -19q5 -12 5 -23q0 -35 -25 -51l-133 -86q-9 -6 -18 -10q-7 -3 -12 -3q-19 0 -33 15q-13 14 -13 32q0 21 20 41z" />
    <glyph glyph-name="ohungarumlaut" unicode="&#x151;" horiz-adv-x="600" 
d="M300 525h-2q58 0 106 -21q49 -21 83 -57q35 -36 54 -85q20 -51 20 -105q0 -58 -19 -106q-19 -49 -54 -85q-34 -36 -83 -57q-48 -21 -106 -21t-106 21q-49 21 -83 57q-35 36 -54 85q-19 48 -19 106q0 54 20 105q19 49 54 85q34 36 83 57q48 21 106 21zM298 387l-2 -3
q-28 0 -48 -10t-34 -27q-13 -16 -19 -39q-6 -22 -6 -50q0 -26 6 -50q6 -23 20 -42t34 -29q22 -11 48 -11t48 11q21 10 34 28q14 19 20 41t6 48q0 27 -6 51q-6 25 -19 42q-14 19 -34 29q-22 11 -48 11zM241 733v1q7 8 18 12q12 5 24 5q11 0 24 -5t21 -13q10 -10 14 -19
q5 -12 5 -23q0 -35 -25 -51l-133 -86q-9 -6 -18 -10q-7 -3 -12 -3q-19 0 -33 15q-13 14 -13 32q0 21 20 41zM465 734v1q7 7 18 12q12 5 24 5q11 0 24 -5t21 -13q10 -10 14 -19q5 -12 5 -23q0 -35 -25 -51l-133 -86q-9 -6 -18 -10q-7 -3 -12 -3q-19 0 -33 15q-13 14 -13 32
q0 21 20 41z" />
    <glyph glyph-name="OE" unicode="&#x152;" horiz-adv-x="1054" 
d="M957 138l-1 -7q34 0 54 -18q19 -18 19 -50t-19 -50q-20 -18 -54 -18h-346q-83 0 -83 67v5q-34 -37 -83 -60q-47 -22 -118 -22q-66 0 -120 25q-55 25 -97 72t-66 112q-24 66 -24 147t24 147q24 65 66 112q42 46 101 72q57 25 128 25q70 0 116 -21q47 -21 72 -58v3
q0 24 20 46q20 21 54 21h354q34 0 54 -18t20 -50q0 -33 -19 -51t-54 -18h-277v-134h167q31 0 54 -18t23 -50q0 -33 -22 -51t-54 -18h-167v-142h278zM522 336l-1 -3q0 99 -45 152t-126 53q-76 0 -123 -54q-47 -55 -47 -148q0 -94 47 -149q47 -54 123 -54q38 0 69 15t54 42
q24 28 35 64q13 39 14 82z" />
    <glyph glyph-name="oe" unicode="&#x153;" horiz-adv-x="934" 
d="M300 525l-5 -4q59 0 105 -21q47 -21 80 -57q32 35 77 56t99 21q55 0 97 -19q44 -20 74 -51q31 -32 47 -72q17 -42 17 -84q0 -36 -12 -60t-50 -24h-273q10 -45 41 -66q30 -21 71 -21q18 0 36 5q14 4 30 11q15 7 23 12q10 7 14 8q19 9 33 9q29 0 47 -21t18 -47
q0 -20 -10 -34q-11 -16 -22 -24q-29 -23 -73 -39t-106 -16q-56 0 -102 20t-77 54q-33 -35 -78 -54q-44 -19 -102 -19t-106 21q-49 21 -83 57q-35 36 -54 85q-19 48 -19 106q0 54 20 105q19 49 54 85q34 36 83 57q48 21 106 21zM295 383l-2 -3q-28 0 -48 -10t-34 -27
q-13 -16 -19 -39q-6 -22 -6 -50q0 -26 6 -50q6 -23 20 -42t34 -29q22 -11 48 -11t48 11q21 10 34 28q14 19 20 41t6 48q0 27 -6 51q-6 25 -19 42q-14 19 -34 29q-22 11 -48 11zM652 380l1 -2q-41 0 -66 -21q-25 -20 -34 -62h187q0 15 -6 30q-6 16 -16 27q-11 13 -27 20
q-18 8 -39 8z" />
    <glyph glyph-name="Racute" unicode="&#x154;" horiz-adv-x="624" 
d="M582 459l-3 -2q0 -69 -30 -121t-90 -81l87 -103q23 -28 29 -45q6 -18 6 -37q0 -24 -20 -47t-57 -23q-26 0 -45 12q-18 11 -34 32l-136 180h-64v-147q0 -35 -21 -56t-56 -21t-56 21t-21 56v534q0 35 21 56t56 21h181q56 0 104 -17q46 -16 80 -47q33 -30 51 -72t18 -93z
M326 361q39 0 66 24t27 72q0 45 -27 69t-68 24h-101v-189h103zM324 934v1q8 7 18 12q12 5 24 5q11 0 24 -5t21 -13q10 -10 14 -19q5 -12 5 -23q0 -35 -25 -51l-133 -86q-9 -6 -18 -10q-8 -3 -12 -3q-20 0 -33 15q-13 14 -13 32q0 21 20 41z" />
    <glyph glyph-name="racute" unicode="&#x155;" horiz-adv-x="429" 
d="M65 448l-2 -2q0 28 18 47q18 20 53 20q71 0 71 -68v-14q20 38 57 65q38 27 82 27q45 0 62 -20t17 -47q0 -30 -18 -51t-55 -21q-21 0 -47 -8q-23 -7 -43 -24q-18 -16 -31 -44q-12 -27 -12 -66v-168q0 -35 -22 -54q-23 -20 -54 -20t-54 20q-22 19 -22 54v374zM228 734v1
q8 7 18 12q12 5 24 5q11 0 24 -5t21 -13q10 -10 14 -19q5 -12 5 -23q0 -35 -25 -51l-133 -86q-9 -6 -18 -10q-8 -3 -12 -3q-20 0 -33 15q-13 14 -13 32q0 21 20 41z" />
    <glyph glyph-name="Rcommaaccent" unicode="&#x156;" horiz-adv-x="624" 
d="M582 459l-3 -2q0 -69 -30 -121t-90 -81l87 -103q23 -28 29 -45q6 -18 6 -37q0 -24 -20 -47t-57 -23q-26 0 -45 12q-18 11 -34 32l-136 180h-64v-147q0 -35 -21 -56t-56 -21t-56 21t-21 56v534q0 35 21 56t56 21h181q56 0 104 -17q46 -16 80 -47q33 -30 51 -72t18 -93z
M326 361q39 0 66 24t27 72q0 45 -27 69t-68 24h-101v-189h103zM389 -152l-2 -1q0 -48 -13 -78q-14 -31 -31 -49q-19 -19 -39 -26q-22 -8 -37 -8q-20 0 -30 10q-11 11 -11 25q0 11 6 21t17 15q45 18 45 48q-31 7 -43 26q-12 18 -12 40q0 35 21 54q22 20 47 20q34 0 58 -25
q24 -26 24 -72z" />
    <glyph glyph-name="rcommaaccent" unicode="&#x157;" horiz-adv-x="429" 
d="M65 448l-2 -2q0 28 18 47q18 20 53 20q71 0 71 -68v-14q20 38 57 65q38 27 82 27q45 0 62 -20t17 -47q0 -30 -18 -51t-55 -21q-21 0 -47 -8q-23 -7 -43 -24q-18 -16 -31 -44q-12 -27 -12 -66v-168q0 -35 -22 -54q-23 -20 -54 -20t-54 20q-22 19 -22 54v374zM222 -152
l-2 -1q0 -48 -13 -78q-14 -31 -31 -49q-19 -19 -39 -26q-22 -8 -37 -8q-20 0 -30 10q-11 11 -11 25q0 11 6 21t17 15q45 18 45 48q-31 7 -43 26q-12 18 -12 40q0 35 21 54q22 20 47 20q34 0 58 -25q24 -26 24 -72z" />
    <glyph glyph-name="Rcaron" unicode="&#x158;" horiz-adv-x="624" 
d="M582 459l-3 -2q0 -69 -30 -121t-90 -81l87 -103q23 -28 29 -45q6 -18 6 -37q0 -24 -20 -47t-57 -23q-26 0 -45 12q-18 11 -34 32l-136 180h-64v-147q0 -35 -21 -56t-56 -21t-56 21t-21 56v534q0 35 21 56t56 21h181q56 0 104 -17q46 -16 80 -47q33 -30 51 -72t18 -93z
M326 361q39 0 66 24t27 72q0 45 -27 69t-68 24h-101v-189h103zM339 760v-3q-5 -5 -17 -13q-9 -6 -24 -6t-24 6t-17 14l-108 116q-18 20 -18 36q0 13 11 26q10 12 27 12q7 0 11 -1q7 -2 16 -7l101 -68l101 68q11 8 16 9q4 1 11 1q17 0 27 -12q11 -13 11 -26q0 -16 -18 -36z
" />
    <glyph glyph-name="rcaron" unicode="&#x159;" horiz-adv-x="429" 
d="M65 448l-2 -2q0 28 18 47q18 20 53 20q71 0 71 -68v-14q20 38 57 65q38 27 82 27q45 0 62 -20t17 -47q0 -30 -18 -51t-55 -21q-21 0 -47 -8q-23 -7 -43 -24q-18 -16 -31 -44q-12 -27 -12 -66v-168q0 -35 -22 -54q-23 -20 -54 -20t-54 20q-22 19 -22 54v374zM263 560v-3
q-5 -5 -17 -13q-9 -6 -24 -6t-24 6t-17 14l-108 116q-18 20 -18 36q0 13 11 26q10 12 27 12q7 0 11 -1q7 -2 16 -7l101 -68l101 68q11 8 16 9q4 1 11 1q17 0 27 -12q11 -13 11 -26q0 -16 -18 -36z" />
    <glyph glyph-name="Sacute" unicode="&#x15a;" horiz-adv-x="614" 
d="M312 142l-5 1q20 0 38 3q19 3 32 9q14 6 23 17q9 10 9 27q0 15 -7 26t-27 22q-19 11 -51 21q-34 11 -79 24q-41 11 -82 29q-35 16 -64 41q-27 24 -40 58q-14 36 -14 81q0 49 21 87t57 63t84 39q46 13 101 13q60 0 101 -10q43 -11 84 -36q29 -17 41 -39t12 -44t-7 -36
q-7 -15 -18 -24q-10 -8 -24 -13q-12 -4 -24 -4q-21 0 -35 6q-9 4 -29 14q-30 16 -45 23q-24 11 -66 11q-50 0 -69 -16t-19 -33q0 -14 7 -24q8 -11 25 -21t47 -21q22 -8 74 -22q41 -10 78 -24q37 -13 68 -38q30 -24 48 -60t18 -88q0 -42 -17 -82q-16 -38 -51 -67
q-34 -28 -86 -45q-53 -17 -120 -17q-74 0 -130 17q-53 16 -90 47q-15 13 -30 33t-15 42q0 23 9 38t21 24t24 12t20 3q16 0 30 -6t27 -15q30 -21 65 -34q33 -12 80 -12zM317 937v1q7 8 18 12q12 5 24 5q11 0 24 -5t21 -13q10 -10 14 -19q5 -12 5 -23q0 -35 -25 -51l-133 -86
q-9 -6 -18 -10q-7 -3 -12 -3q-19 0 -33 15q-13 14 -13 32q0 21 20 41z" />
    <glyph glyph-name="sacute" unicode="&#x15b;" horiz-adv-x="486" 
d="M44 367l-6 -5q0 34 15 63t42 50t63 33t80 12q63 0 102 -15q38 -15 63 -38q15 -15 20 -28q6 -15 6 -27t-4 -23q-5 -12 -12 -21t-18 -15t-24 -6q-11 0 -24 6q-9 4 -25 14q-13 8 -31 15q-21 8 -46 8q-21 0 -33 -6t-12 -18q0 -14 18 -23t45 -18q31 -10 59 -21q33 -12 59 -30
q27 -18 45 -45t18 -68q0 -37 -15 -69t-42 -54t-66 -36q-38 -13 -85 -13q-62 0 -106 15q-43 15 -69 41q-13 13 -18 27q-4 12 -4 27q0 11 5 24q4 12 12 21t18 15t23 6q17 0 30 -6q10 -5 21 -11q44 -27 84 -27q26 0 41 6t15 23q0 16 -18 27q-20 12 -45 20q-31 10 -59 21
q-33 12 -59 30t-45 47q-18 29 -18 72zM252 731v1q8 8 18 12q12 5 24 5q11 0 24 -5t21 -13q10 -10 14 -19q5 -12 5 -23q0 -35 -25 -51l-133 -86q-9 -6 -18 -10q-8 -3 -12 -3q-20 0 -33 15q-13 14 -13 32q0 21 20 41z" />
    <glyph glyph-name="Scircumflex" unicode="&#x15c;" horiz-adv-x="614" 
d="M312 142l-5 1q20 0 38 3q19 3 32 9q14 6 23 17q9 10 9 27q0 15 -7 26t-27 22q-19 11 -51 21q-34 11 -79 24q-41 11 -82 29q-35 16 -64 41q-27 24 -40 58q-14 36 -14 81q0 49 21 87t57 63t84 39q46 13 101 13q60 0 101 -10q43 -11 84 -36q29 -17 41 -39t12 -44t-7 -36
q-7 -15 -18 -24q-10 -8 -24 -13q-12 -4 -24 -4q-21 0 -35 6q-9 4 -29 14q-30 16 -45 23q-24 11 -66 11q-50 0 -69 -16t-19 -33q0 -14 7 -24q8 -11 25 -21t47 -21q22 -8 74 -22q41 -10 78 -24q37 -13 68 -38q30 -24 48 -60t18 -88q0 -42 -17 -82q-16 -38 -51 -67
q-34 -28 -86 -45q-53 -17 -120 -17q-74 0 -130 17q-53 16 -90 47q-15 13 -30 33t-15 42q0 23 9 38t21 24t24 12t20 3q16 0 30 -6t27 -15q30 -21 65 -34q33 -12 80 -12zM458 819l-2 -3q11 -12 14 -18q5 -8 5 -18q0 -13 -11 -26q-10 -12 -27 -12q-7 0 -11 1q-5 1 -16 9
l-101 68l-101 -68q-9 -5 -16 -7q-4 -1 -11 -1q-17 0 -27 12q-11 13 -11 26q0 10 5 18q3 6 14 18l108 116q8 8 17 14t24 6t24 -6q12 -8 17 -13z" />
    <glyph glyph-name="scircumflex" unicode="&#x15d;" horiz-adv-x="486" 
d="M44 367l-6 -5q0 34 15 63t42 50t63 33t80 12q63 0 102 -15q38 -15 63 -38q15 -15 20 -28q6 -15 6 -27t-4 -23q-5 -12 -12 -21t-18 -15t-24 -6q-11 0 -24 6q-9 4 -25 14q-13 8 -31 15q-21 8 -46 8q-21 0 -33 -6t-12 -18q0 -14 18 -23t45 -18q31 -10 59 -21q33 -12 59 -30
q27 -18 45 -45t18 -68q0 -37 -15 -69t-42 -54t-66 -36q-38 -13 -85 -13q-62 0 -106 15q-43 15 -69 41q-13 13 -18 27q-4 12 -4 27q0 11 5 24q4 12 12 21t18 15t23 6q17 0 30 -6q10 -5 21 -11q44 -27 84 -27q26 0 41 6t15 23q0 16 -18 27q-20 12 -45 20q-31 10 -59 21
q-33 12 -59 30t-45 47q-18 29 -18 72zM393 613l-2 -3q11 -12 14 -18q5 -8 5 -18q0 -13 -11 -26q-11 -12 -27 -12q-7 0 -11 1q-5 1 -16 9l-101 68l-101 -68q-9 -5 -16 -7q-4 -1 -11 -1q-16 0 -27 12q-11 13 -11 26q0 10 5 18q3 6 14 18l108 116q8 8 17 14t24 6t24 -6
q12 -8 17 -13z" />
    <glyph glyph-name="Scedilla" unicode="&#x15e;" horiz-adv-x="614" 
d="M312 142l-11 4q20 0 38 3q19 3 32 9q14 6 23 17t9 27q0 15 -7 26t-27 22q-19 10 -51 21q-34 11 -79 24q-41 11 -82 29q-35 16 -64 41q-27 24 -40 58q-14 36 -14 81q0 50 21 87t57 63t84 39q46 13 101 13q60 0 101 -10q43 -10 84 -36q29 -17 41 -39t12 -44t-7 -36
q-7 -15 -18 -24q-10 -8 -24 -13q-12 -4 -24 -4q-21 0 -35 6q-9 4 -29 14q-30 16 -45 23q-24 11 -66 11q-50 0 -69 -16t-19 -33q0 -14 7 -24q8 -11 25 -21t47 -21q22 -8 74 -22q41 -11 78 -24t68 -38q30 -24 48 -60t18 -88q0 -41 -15 -78t-45 -66q-29 -28 -75 -46
q-44 -17 -106 -22v-19q16 -3 29 -9q16 -7 26 -16q12 -10 19 -25q7 -14 7 -38q0 -28 -10 -48t-27 -34q-16 -13 -38 -21q-20 -7 -43 -7q-36 0 -51 12t-15 35q0 13 5 21q4 8 12 12t15 6q10 2 14 2q34 0 34 16q0 10 -9 13t-30 6q-9 1 -13 5q-3 3 -3 17v71q-57 4 -99 21
q-41 16 -70 42q-15 13 -30 33t-15 42q0 23 9 38t21 24t24 12t20 3q16 0 30 -6t27 -15q30 -21 65 -34q33 -12 80 -12z" />
    <glyph glyph-name="scedilla" unicode="&#x15f;" horiz-adv-x="486" 
d="M44 367l-11 -3q0 34 15 63t42 50t63 33t80 12q63 0 102 -15q38 -15 63 -38q15 -15 20 -28q6 -15 6 -27t-4 -23q-4 -12 -12 -21t-18 -15t-24 -6q-10 0 -24 6q-9 4 -25 14q-13 8 -31 15q-21 8 -46 8q-21 0 -33 -6t-12 -18q0 -14 18 -23t45 -18q31 -10 59 -21q33 -12 59 -30
q27 -18 45 -45t18 -68q0 -36 -13 -63q-14 -28 -36 -51q-23 -23 -55 -36q-33 -14 -73 -18v-20q16 -3 29 -9q16 -7 26 -16q12 -10 19 -25q7 -14 7 -38q0 -28 -10 -48t-27 -34q-16 -13 -38 -21q-20 -7 -43 -7q-36 0 -51 12t-15 35q0 13 5 21q4 7 12 12t15 6q10 2 14 2
q34 0 34 16q0 10 -9 13t-30 6q-9 1 -13 5q-3 3 -3 17v72q-43 4 -73 18q-31 14 -50 33q-13 13 -18 27q-4 12 -4 27q0 11 5 24q4 12 12 21t18 15t23 6q17 0 30 -6q10 -5 21 -11q44 -27 84 -27q26 0 41 6t15 23q0 16 -18 27q-20 12 -45 20q-31 10 -59 21q-33 12 -59 30t-45 47
q-18 29 -18 72z" />
    <glyph glyph-name="Scaron" unicode="&#x160;" horiz-adv-x="614" 
d="M312 142l-5 1q20 0 38 3q19 3 32 9q14 6 23 17q9 10 9 27q0 15 -7 26t-27 22q-19 11 -51 21q-34 11 -79 24q-41 11 -82 29q-35 16 -64 41q-27 24 -40 58q-14 36 -14 81q0 49 21 87t57 63t84 39q46 13 101 13q60 0 101 -10q43 -11 84 -36q29 -17 41 -39t12 -44t-7 -36
q-7 -15 -18 -24q-10 -8 -24 -13q-12 -4 -24 -4q-21 0 -35 6q-9 4 -29 14q-30 16 -45 23q-24 11 -66 11q-50 0 -69 -16t-19 -33q0 -14 7 -24q8 -11 25 -21t47 -21q22 -8 74 -22q41 -10 78 -24q37 -13 68 -38q30 -24 48 -60t18 -88q0 -42 -17 -82q-16 -38 -51 -67
q-34 -28 -86 -45q-53 -17 -120 -17q-74 0 -130 17q-53 16 -90 47q-15 13 -30 33t-15 42q0 23 9 38t21 24t24 12t20 3q16 0 30 -6t27 -15q30 -21 65 -34q33 -12 80 -12zM352 763v-3q-5 -5 -17 -13q-9 -6 -24 -6t-24 6t-17 14l-108 116q-18 19 -18 36q0 13 11 26q11 12 27 12
q7 0 11 -1q7 -2 16 -7l101 -68l101 68q11 8 16 9q4 1 11 1q16 0 27 -12q11 -13 11 -26q0 -17 -18 -36z" />
    <glyph glyph-name="scaron" unicode="&#x161;" horiz-adv-x="486" 
d="M44 367l-6 -5q0 34 15 63t42 50t63 33t80 12q63 0 102 -15q38 -15 63 -38q15 -15 20 -28q6 -15 6 -27t-4 -23q-5 -12 -12 -21t-18 -15t-24 -6q-11 0 -24 6q-9 4 -25 14q-13 8 -31 15q-21 8 -46 8q-21 0 -33 -6t-12 -18q0 -14 18 -23t45 -18q31 -10 59 -21q33 -12 59 -30
q27 -18 45 -45t18 -68q0 -37 -15 -69t-42 -54t-66 -36q-38 -13 -85 -13q-62 0 -106 15q-43 15 -69 41q-13 13 -18 27q-4 12 -4 27q0 11 5 24q4 12 12 21t18 15t23 6q17 0 30 -6q10 -5 21 -11q44 -27 84 -27q26 0 41 6t15 23q0 16 -18 27q-20 12 -45 20q-31 10 -59 21
q-33 12 -59 30t-45 47q-18 29 -18 72zM287 557v-3q-5 -5 -17 -13q-9 -6 -24 -6t-24 6t-17 14l-108 116q-18 19 -18 36q0 13 11 26q10 12 27 12q7 0 11 -1q7 -2 16 -7l101 -68l101 68q11 8 16 9q4 1 11 1q17 0 27 -12q11 -13 11 -26q0 -17 -18 -36z" />
    <glyph glyph-name="uni0162" unicode="&#x162;" horiz-adv-x="636" 
d="M539 690h-4q35 0 56 -18t21 -50t-21 -50t-55 -18h-143v-474q0 -35 -21 -56t-56 -21t-56 21t-21 56v474h-143q-34 0 -55 18t-21 50t21 50t56 18h442zM384 -150l-2 -1q0 -48 -13 -78q-14 -32 -31 -49q-19 -19 -39 -26q-22 -8 -37 -8q-20 0 -30 10q-11 11 -11 25q0 11 6 21
t17 15q45 18 45 48q-31 7 -43 26q-12 18 -12 40q0 35 21 54q22 20 47 20q34 0 58 -25q24 -26 24 -72z" />
    <glyph glyph-name="uni0163" unicode="&#x163;" horiz-adv-x="429" 
d="M258 189v-1q0 -32 13 -46q13 -15 36 -15q20 0 32 5t24 5q14 0 23 -6t15 -15t9 -19t3 -19q0 -47 -31 -66q-22 -13 -47 -18q-27 -5 -59 -5q-49 0 -83 17q-32 16 -52 44q-20 27 -27 61q-8 37 -8 69v201h-18q-28 0 -48 18q-19 18 -19 49q0 30 20 48q19 18 48 18h18v61
q0 32 21 53t54 21t54 -21t21 -52v-61h74q29 0 48 -18q20 -18 20 -49t-19 -49q-20 -18 -48 -18h-74v-192zM314 -151l-2 -1q0 -48 -13 -78q-13 -32 -31 -49q-19 -19 -39 -26q-22 -8 -37 -8q-20 0 -30 10q-11 11 -11 25q0 10 6 21q6 10 17 15q45 18 45 48q-31 7 -43 26
q-12 18 -12 40q0 34 21 54q22 20 47 20q34 0 58 -25t24 -72z" />
    <glyph glyph-name="Tcaron" unicode="&#x164;" horiz-adv-x="636" 
d="M539 690h-4q35 0 56 -18t21 -50t-21 -50t-55 -18h-143v-474q0 -35 -21 -56t-56 -21t-56 21t-21 56v474h-143q-34 0 -55 18t-21 50t21 50t56 18h442zM364 762v-3q-5 -5 -17 -13q-9 -6 -24 -6t-24 6t-17 14l-108 116q-18 20 -18 36q0 13 11 26q11 12 27 12q7 0 11 -1
q7 -2 16 -7l101 -68l101 68q11 8 16 9q4 1 11 1q16 0 27 -12q11 -13 11 -26q0 -16 -18 -36z" />
    <glyph glyph-name="tcaron" unicode="&#x165;" horiz-adv-x="429" 
d="M258 189v-1q0 -32 13 -46q13 -15 36 -15q20 0 32 5t24 5q14 0 23 -6t15 -15t9 -19t3 -19q0 -47 -31 -66q-22 -13 -47 -18q-27 -5 -59 -5q-49 0 -83 17q-32 16 -52 44q-20 27 -27 61q-8 37 -8 69v201h-18q-28 0 -48 18q-19 18 -19 49q0 30 20 48q19 18 48 18h18v61
q0 32 21 53t54 21t54 -21t21 -52v-61h74q29 0 48 -18q20 -18 20 -49t-19 -49q-20 -18 -48 -18h-74v-192zM451 729l-2 -1q0 -48 -13 -78q-14 -31 -31 -49q-19 -19 -39 -26q-22 -8 -37 -8q-20 0 -30 10q-11 11 -11 25q0 10 6 21q6 10 17 15q45 18 45 48q-31 7 -43 26
q-12 18 -12 40q0 34 21 54q22 20 47 20q34 0 58 -25t24 -72z" />
    <glyph glyph-name="Tbar" unicode="&#x166;" horiz-adv-x="636" 
d="M240 415l-4 137h-143q-34 0 -55 18t-21 50t21 50t56 18h442q35 0 56 -18t21 -50t-21 -50t-55 -18h-143v-137h56q24 0 39 -18t15 -42t-15 -42t-39 -18h-56v-217q0 -35 -21 -56t-56 -21t-56 21t-21 56v217h-56q-24 0 -39 18t-15 42t15 42t39 18h56z" />
    <glyph glyph-name="tbar" unicode="&#x167;" horiz-adv-x="429" 
d="M106 326v54h-18q-28 0 -48 18q-19 18 -19 49q0 30 20 48q19 18 48 18h18v61q0 32 21 53t54 21t54 -21t21 -52v-61h74q29 0 48 -18q20 -18 20 -49t-19 -49q-20 -18 -48 -18h-74v-55h71q24 0 39 -18t15 -42t-15 -42t-39 -18h-71v-17q0 -32 13 -46q13 -15 36 -15q20 0 32 5
t24 5q14 0 23 -6t15 -15t9 -19t3 -19q0 -47 -31 -66q-22 -13 -47 -18q-27 -5 -59 -5q-49 0 -83 17q-32 16 -52 44q-20 27 -27 61q-8 37 -8 69v26h-15q-24 0 -39 18t-15 42t15 42t39 18h15z" />
    <glyph glyph-name="Utilde" unicode="&#x168;" horiz-adv-x="718" 
d="M497 612v-1q0 35 21 56t56 21t56 -21t21 -56v-333q0 -63 -20 -118q-19 -53 -57 -91q-36 -36 -92 -58q-54 -21 -124 -21t-124 21q-56 22 -92 58q-38 37 -57 90q-20 54 -20 117v337q0 35 21 56t56 21t56 -21t21 -56v-312q0 -83 33 -121q33 -37 106 -37t106 38q33 37 33 123
v308zM283 919l-6 -2q23 0 43 -5q15 -4 33 -11q20 -8 30 -11q17 -5 34 -5q12 0 21 3q8 3 18 14q6 8 14 14t21 6q20 0 35 -16t15 -42q0 -38 -25 -63q-27 -30 -66 -30q-28 0 -47 6q-23 7 -36 13q-4 2 -32 13q-15 6 -34 6q-29 0 -45 -22q-6 -6 -18 -13q-10 -6 -27 -6
q-22 0 -34 15t-12 37q0 9 5 26q4 15 17 29q15 17 39 31q22 13 57 13z" />
    <glyph glyph-name="utilde" unicode="&#x169;" horiz-adv-x="577" 
d="M365 441q0 32 22 53q23 21 54 21t54 -21q22 -21 22 -53v-212q0 -54 -16 -96q-17 -44 -46 -75t-72 -49q-42 -18 -94 -18t-94 18q-43 18 -72 49t-46 75q-16 42 -16 96v212q0 32 22 53q23 21 54 21t54 -21q22 -21 22 -53v-216q0 -46 19 -71q20 -26 58 -26q39 0 57 26t18 71
v216zM212 720l-5 -2q23 0 43 -5q15 -4 33 -11q20 -8 30 -11q17 -5 34 -5q12 0 21 3q8 3 18 14q6 8 14 14t21 6q20 0 35 -16q15 -17 15 -42q0 -38 -25 -63q-27 -30 -66 -30q-28 0 -47 6q-23 7 -36 13q-4 2 -32 13q-15 6 -35 6q-29 0 -45 -22q-6 -6 -18 -13q-11 -6 -27 -6
q-22 0 -34 15t-12 37q0 9 5 26q4 15 17 29q15 17 39 31q22 13 57 13z" />
    <glyph glyph-name="Umacron" unicode="&#x16a;" horiz-adv-x="718" 
d="M497 612v-1q0 35 21 56t56 21t56 -21t21 -56v-333q0 -63 -20 -118q-19 -53 -57 -91q-36 -36 -92 -58q-54 -21 -124 -21t-124 21q-56 22 -92 58q-38 37 -57 90q-20 54 -20 117v337q0 35 21 56t56 21t56 -21t21 -56v-312q0 -83 33 -121q33 -37 106 -37t106 38q33 37 33 123
v308zM463 915q24 0 39 -18t15 -42t-15 -42t-39 -18h-208q-24 0 -39 18t-15 42t15 42t39 18h208z" />
    <glyph glyph-name="umacron" unicode="&#x16b;" horiz-adv-x="577" 
d="M365 441q0 32 22 53q23 21 54 21t54 -21q22 -21 22 -53v-212q0 -54 -16 -96q-17 -44 -46 -75t-72 -49q-42 -18 -94 -18t-94 18q-43 18 -72 49t-46 75q-16 42 -16 96v212q0 32 22 53q23 21 54 21t54 -21q22 -21 22 -53v-216q0 -46 19 -71q20 -26 58 -26q39 0 57 26t18 71
v216zM392 716q24 0 39 -18t15 -42t-15 -42t-39 -18h-208q-24 0 -39 18t-15 42t15 42t39 18h208z" />
    <glyph glyph-name="Ubreve" unicode="&#x16c;" horiz-adv-x="718" 
d="M497 612v-1q0 35 21 56t56 21t56 -21t21 -56v-333q0 -63 -20 -118q-19 -53 -57 -91q-36 -36 -92 -58q-54 -21 -124 -21t-124 21q-56 22 -92 58q-38 37 -57 90q-20 54 -20 117v337q0 35 21 56t56 21t56 -21t21 -56v-312q0 -83 33 -121q33 -37 106 -37t106 38q33 37 33 123
v308zM357 755h1q-29 0 -55 10q-28 11 -48 28q-21 18 -33 42t-12 53q0 17 12 32t37 15q19 0 30 -10q13 -11 17 -27q9 -27 21 -36t32 -9t32 9t21 36q4 16 17 27q11 10 30 10q25 0 37 -15t12 -32q0 -30 -13 -53q-14 -25 -34 -42t-48 -28q-26 -10 -56 -10z" />
    <glyph glyph-name="ubreve" unicode="&#x16d;" horiz-adv-x="577" 
d="M365 441q0 32 22 53q23 21 54 21t54 -21q22 -21 22 -53v-212q0 -54 -16 -96q-17 -44 -46 -75t-72 -49q-42 -18 -94 -18t-94 18q-43 18 -72 49t-46 75q-16 42 -16 96v212q0 32 22 53q23 21 54 21t54 -21q22 -21 22 -53v-216q0 -46 19 -71q20 -26 58 -26q39 0 57 26t18 71
v216zM286 556h2q-30 0 -56 10q-28 11 -48 28q-21 18 -33 42t-12 53q0 17 12 32t37 15q19 0 30 -10q13 -11 17 -27q9 -27 21 -36t32 -9t32 9t21 36q4 16 17 27q11 10 30 10q25 0 37 -15t12 -32q0 -30 -13 -53q-14 -25 -34 -42t-48 -28q-26 -10 -56 -10z" />
    <glyph glyph-name="Uring" unicode="&#x16e;" horiz-adv-x="718" 
d="M497 612v-1q0 35 21 56t56 21t56 -21t21 -56v-333q0 -63 -20 -118q-19 -53 -57 -91q-36 -36 -92 -58q-54 -21 -124 -21t-124 21q-56 22 -92 58q-38 37 -57 90q-20 54 -20 117v337q0 35 21 56t56 21t56 -21t21 -56v-312q0 -83 33 -121q33 -37 106 -37t106 38q33 37 33 123
v308zM359 988v-1q54 0 87 -34q33 -35 33 -90q0 -53 -33 -88q-33 -34 -87 -34t-87 34q-33 35 -33 88q0 55 33 90t87 35zM359 903l-2 -1q-16 0 -27 -11q-10 -10 -10 -27q0 -16 11 -27q10 -10 27 -10q16 0 27 11t11 27q0 17 -10 27q-11 11 -27 11z" />
    <glyph glyph-name="uring" unicode="&#x16f;" horiz-adv-x="577" 
d="M365 441q0 32 22 53q23 21 54 21t54 -21q22 -21 22 -53v-212q0 -54 -16 -96q-17 -44 -46 -75t-72 -49q-42 -18 -94 -18t-94 18q-43 18 -72 49t-46 75q-16 42 -16 96v212q0 32 22 53q23 21 54 21t54 -21q22 -21 22 -53v-216q0 -46 19 -71q20 -26 58 -26q39 0 57 26t18 71
v216zM288 789v-1q54 0 87 -34t33 -90q0 -54 -33 -88t-87 -34t-87 34t-33 88q0 56 33 90q33 35 87 35zM288 704l-2 -1q-16 0 -27 -11q-10 -10 -10 -27q0 -16 11 -27q10 -10 27 -10q16 0 27 11t11 27q0 17 -10 27q-11 11 -27 11z" />
    <glyph glyph-name="Uhungarumlaut" unicode="&#x170;" horiz-adv-x="718" 
d="M497 612v-1q0 35 21 56t56 21t56 -21t21 -56v-333q0 -63 -20 -118q-19 -53 -57 -91q-36 -36 -92 -58q-54 -21 -124 -21t-124 21q-56 22 -92 58q-38 37 -57 90q-20 54 -20 117v337q0 35 21 56t56 21t56 -21t21 -56v-312q0 -83 33 -121q33 -37 106 -37t106 38q33 37 33 123
v308zM314 935v1q8 8 18 12q12 5 24 5q11 0 24 -5t21 -13q10 -10 14 -19q5 -12 5 -23q0 -35 -25 -51l-133 -86q-9 -6 -18 -10q-8 -3 -12 -3q-20 0 -33 15q-13 14 -13 32q0 21 20 41zM538 936v1q8 7 18 12q12 5 24 5q11 0 24 -5t21 -13q10 -10 14 -19q5 -12 5 -23
q0 -35 -25 -51l-133 -86q-9 -6 -18 -10q-8 -3 -12 -3q-20 0 -33 15q-13 14 -13 32q0 21 20 41z" />
    <glyph glyph-name="uhungarumlaut" unicode="&#x171;" horiz-adv-x="577" 
d="M365 441q0 32 22 53q23 21 54 21t54 -21q22 -21 22 -53v-212q0 -54 -16 -96q-17 -44 -46 -75t-72 -49q-42 -18 -94 -18t-94 18q-43 18 -72 49t-46 75q-16 42 -16 96v212q0 32 22 53q23 21 54 21t54 -21q22 -21 22 -53v-216q0 -46 19 -71q20 -26 58 -26q39 0 57 26t18 71
v216zM233 736v1q7 7 18 12q12 5 24 5q11 0 24 -5t21 -13q10 -10 14 -19q5 -12 5 -23q0 -35 -25 -51l-133 -86q-9 -6 -18 -10q-7 -3 -12 -3q-19 0 -33 15q-13 14 -13 32q0 21 20 41zM457 737v1q7 8 18 12q12 5 24 5q11 0 24 -5t21 -13q10 -10 14 -19q5 -12 5 -23
q0 -35 -25 -51l-133 -86q-9 -6 -18 -10q-7 -3 -12 -3q-19 0 -33 15q-13 14 -13 32q0 21 20 41z" />
    <glyph glyph-name="Uogonek" unicode="&#x172;" horiz-adv-x="718" 
d="M497 612l-5 -1q0 35 21 56t56 21t56 -21t21 -56v-333q0 -62 -16 -110q-16 -50 -48 -87t-78 -60q-48 -23 -106 -29q-18 -16 -27 -36t-9 -34q0 -10 9 -22q9 -11 32 -13q27 -1 39 -15t12 -33q0 -28 -21 -40t-55 -12q-50 0 -84 25q-35 26 -35 76q0 30 15 56q14 24 38 48
q-57 6 -105 29q-47 23 -78 60t-48 87q-16 48 -16 108v337q0 35 21 56t56 21t56 -21t21 -56v-312q0 -83 33 -121q33 -37 106 -37t106 38q33 37 33 123v308z" />
    <glyph glyph-name="uogonek" unicode="&#x173;" horiz-adv-x="577" 
d="M365 441l-2 -5q0 32 22 53q23 21 54 21t54 -21q22 -21 22 -53v-212q0 -92 -45 -153t-125 -78q-19 -17 -30 -36q-10 -19 -10 -36q0 -10 9 -22q9 -11 32 -13q27 -2 39 -15t12 -33q0 -28 -21 -40t-55 -12q-50 0 -84 25q-35 26 -35 76q0 31 15 56q14 24 38 48q-46 6 -81 25
t-61 51q-25 31 -39 72q-13 39 -13 90v212q0 32 22 53q23 21 54 21t54 -21q22 -21 22 -53v-216q0 -46 19 -71q20 -26 58 -26q39 0 57 26t18 71v216z" />
    <glyph glyph-name="Wcircumflex" unicode="&#x174;" horiz-adv-x="913" 
d="M733 630l-4 -3q7 22 26 41q18 18 45 18q30 0 55 -17q24 -17 24 -48q0 -3 -2 -21q-1 -12 -8 -30l-188 -519q-11 -25 -30 -39q-19 -13 -42 -13q-21 0 -43 14q-21 13 -30 39l-84 259l-86 -259q-9 -26 -28 -39t-42 -13q-25 0 -44 14q-18 14 -27 39l-186 517q-11 30 -11 51
q0 26 22 47t61 21q32 0 48 -19q17 -20 24 -43l116 -360l86 259q7 24 24 42t51 18q16 0 29 -5t20 -13q10 -12 14 -19q5 -9 10 -22l86 -260zM608 815l-2 -3q11 -12 14 -18q5 -8 5 -18q0 -13 -11 -26q-10 -12 -27 -12q-7 0 -11 1q-5 1 -16 9l-101 68l-101 -68q-9 -5 -16 -7
q-4 -1 -11 -1q-17 0 -27 12q-11 13 -11 26q0 10 5 18q3 6 14 18l108 116q8 8 17 14t24 6t24 -6q12 -8 17 -13z" />
    <glyph glyph-name="wcircumflex" unicode="&#x175;" horiz-adv-x="743" 
d="M574 460h-2q8 26 24 41t45 15q38 0 59 -21t21 -56q0 -9 -1 -15q-2 -10 -9 -26l-129 -342q-10 -28 -30 -42q-19 -13 -43 -13t-45 12t-30 45l-64 197l-64 -198q-9 -33 -33 -45t-43 -12q-27 0 -46 13q-20 14 -30 43l-125 341q-2 5 -4 12.5t-3 10.5q-3 9 -3 17q0 21 8 37
q7 14 20 24q11 8 27 13q13 4 30 4q25 0 43 -12q17 -11 25 -35l68 -233l60 182q9 33 30 45t43 12q21 0 42 -12t32 -44l59 -183zM525 618l-2 -3q11 -12 14 -18q5 -8 5 -18q0 -13 -11 -26q-11 -12 -27 -12q-7 0 -11 1q-5 1 -16 9l-101 68l-101 -68q-9 -5 -16 -7q-4 -1 -11 -1
q-16 0 -27 12q-11 13 -11 26q0 10 5 18q3 6 14 18l108 116q8 8 17 14t24 6t24 -6q12 -8 17 -13z" />
    <glyph glyph-name="Ycircumflex" unicode="&#x176;" horiz-adv-x="641" 
d="M466 645l-5 -1q13 22 29 33t44 11q12 0 27 -5q13 -4 24 -14t17 -21q6 -12 6 -26q0 -16 -8 -37q-8 -19 -15 -33l-189 -306v-169q0 -35 -21 -56t-56 -21t-56 21t-21 56v169l-200 326q-6 9 -9 21t-3 23q0 29 19 51t57 22q18 0 33 -7q17 -8 29 -27l154 -260zM471 817l-2 -3
q11 -12 14 -18q5 -8 5 -18q0 -13 -11 -26q-11 -12 -27 -12q-7 0 -11 1q-5 1 -16 9l-101 68l-101 -68q-9 -5 -16 -7q-4 -1 -11 -1q-16 0 -27 12q-11 13 -11 26q0 10 5 18q3 6 14 18l108 116q8 8 17 14t24 6t24 -6q12 -8 17 -13z" />
    <glyph glyph-name="ycircumflex" unicode="&#x177;" horiz-adv-x="541" 
d="M196 -1l-4 -4l-166 402q-4 11 -6 21q-2 14 -2 18q0 35 25 54q26 20 58 20q24 0 42 -12q19 -13 26 -34l98 -286l110 283q8 20 21 35q14 15 42 15q33 0 53 -19q21 -20 21 -51q0 -13 -3 -27q-4 -16 -7 -23l-167 -402q-23 -53 -48 -87q-26 -35 -53 -56t-57 -30t-62 -9
q-47 0 -69 18t-22 50q0 30 18 51t54 21q39 0 62 10q25 11 35 39zM423 616l-2 -3q11 -12 14 -18q5 -8 5 -18q0 -13 -11 -26q-11 -12 -27 -12q-7 0 -11 1q-5 1 -16 9l-101 68l-101 -68q-9 -5 -16 -7q-4 -1 -11 -1q-16 0 -27 12q-11 13 -11 26q0 10 5 18q3 6 14 18l108 116
q8 8 17 14t24 6t24 -6q12 -8 17 -13z" />
    <glyph glyph-name="Ydieresis" unicode="&#x178;" horiz-adv-x="641" 
d="M466 645l-5 -1q13 22 29 33t44 11q12 0 27 -5q13 -4 24 -14t17 -21q6 -12 6 -26q0 -16 -8 -37q-8 -19 -15 -33l-189 -306v-169q0 -35 -21 -56t-56 -21t-56 21t-21 56v169l-200 326q-6 9 -9 21t-3 23q0 29 19 51t57 22q18 0 33 -7q17 -8 29 -27l154 -260zM227 899l-1 -1
q28 0 48 -18t20 -49q0 -35 -19 -51t-48 -16t-49 17q-19 16 -19 50q0 32 18 50t50 18zM402 898h1q29 0 48 -18q20 -18 20 -49q0 -34 -20 -51q-19 -16 -48 -16q-28 0 -48 17q-19 16 -19 50q0 31 18 49t48 18z" />
    <glyph glyph-name="Zacute" unicode="&#x179;" horiz-adv-x="596" 
d="M478 138l-5 -1q35 0 56 -18t21 -50t-21 -50t-55 -18h-361q-34 0 -54 20t-20 51q0 11 5 26q4 14 12 24l290 432h-227q-34 0 -55 18t-21 50t21 50t56 18h360q35 0 54 -19t19 -51q0 -12 -4 -25q-5 -15 -13 -28l-288 -429h230zM308 935v1q8 8 18 12q12 5 24 5q11 0 24 -5
t21 -13q10 -10 14 -19q5 -12 5 -23q0 -35 -25 -51l-133 -86q-9 -6 -18 -10q-8 -3 -12 -3q-20 0 -33 15q-13 14 -13 32q0 21 20 41z" />
    <glyph glyph-name="zacute" unicode="&#x17a;" horiz-adv-x="477" 
d="M366 515l-3 -1q37 0 55 -20t18 -47q0 -15 -7 -30q-8 -17 -16 -28l-181 -251h147q31 0 51 -17t20 -48q0 -36 -19 -54t-51 -18h-275q-35 0 -53 21t-18 50q0 22 19 50l186 255h-132q-31 0 -51 20q-19 19 -19 51q0 28 20 48q19 19 51 19h258zM256 735v1q8 8 18 12q12 5 24 5
q11 0 24 -5t21 -13q10 -10 14 -19q5 -12 5 -23q0 -35 -25 -51l-133 -86q-9 -6 -18 -10q-8 -3 -12 -3q-20 0 -33 15q-13 14 -13 32q0 21 20 41z" />
    <glyph glyph-name="Zdotaccent" unicode="&#x17b;" horiz-adv-x="596" 
d="M478 138l-5 -1q35 0 56 -18t21 -50t-21 -50t-55 -18h-361q-34 0 -54 20t-20 51q0 11 5 26q4 14 12 24l290 432h-227q-34 0 -55 18t-21 50t21 50t56 18h360q35 0 54 -19t19 -51q0 -12 -4 -25q-5 -15 -13 -28l-288 -429h230zM292 942l2 -1q37 0 63 -23q25 -22 25 -63
q0 -46 -25 -65q-26 -20 -63 -20q-38 0 -63 21t-25 63q0 40 24 64t62 24z" />
    <glyph glyph-name="zdotaccent" unicode="&#x17c;" horiz-adv-x="477" 
d="M366 515l-3 -1q37 0 55 -20t18 -47q0 -15 -7 -30q-8 -17 -16 -28l-181 -251h147q31 0 51 -17t20 -48q0 -36 -19 -54t-51 -18h-275q-35 0 -53 21t-18 50q0 22 19 50l186 255h-132q-31 0 -51 20q-19 19 -19 51q0 28 20 48q19 19 51 19h258zM240 742l2 -1q37 0 63 -23
q25 -22 25 -63q0 -46 -25 -65q-26 -20 -63 -20q-38 0 -63 21t-25 63q0 40 24 64t62 24z" />
    <glyph glyph-name="Zcaron" unicode="&#x17d;" horiz-adv-x="596" 
d="M478 138l-5 -1q35 0 56 -18t21 -50t-21 -50t-55 -18h-361q-34 0 -54 20t-20 51q0 11 5 26q4 14 12 24l290 432h-227q-34 0 -55 18t-21 50t21 50t56 18h360q35 0 54 -19t19 -51q0 -12 -4 -25q-5 -15 -13 -28l-288 -429h230zM343 761v-3q-5 -5 -17 -13q-9 -6 -24 -6t-24 6
t-17 14l-108 116q-18 19 -18 36q0 13 11 26q10 12 27 12q7 0 11 -1q7 -2 16 -7l101 -68l101 68q11 8 16 9q4 1 11 1q17 0 27 -12q11 -13 11 -26q0 -17 -18 -36z" />
    <glyph glyph-name="zcaron" unicode="&#x17e;" horiz-adv-x="477" 
d="M366 515l-3 -1q37 0 55 -20t18 -47q0 -15 -7 -30q-8 -17 -16 -28l-181 -251h147q31 0 51 -17t20 -48q0 -36 -19 -54t-51 -18h-275q-35 0 -53 21t-18 50q0 22 19 50l186 255h-132q-31 0 -51 20q-19 19 -19 51q0 28 20 48q19 19 51 19h258zM291 561v-3q-5 -5 -17 -13
q-9 -6 -24 -6t-24 6t-17 14l-108 116q-18 19 -18 36q0 13 11 26q10 12 27 12q7 0 11 -1q7 -2 16 -7l101 -68l101 68q11 8 16 9q4 1 11 1q17 0 27 -12q11 -13 11 -26q0 -17 -18 -36z" />
    <glyph glyph-name="florin" unicode="&#x192;" horiz-adv-x="628" 
d="M225 458l-2 -1q0 119 63 180q64 62 168 62q22 0 39 -3q6 -1 14 -2.5t10 -1.5q29 -8 41 -27t12 -41q0 -36 -21 -53q-22 -17 -46 -17q-9 0 -25 2t-29 2q-14 0 -28 -3q-13 -3 -24 -12q-10 -8 -16 -27q-6 -18 -6 -46v-18h73q29 0 48 -19q20 -20 20 -51q0 -32 -19 -51t-48 -19
h-73v-80q0 -118 -63 -180q-64 -62 -168 -62q-23 0 -39 3q-7 1 -16 3l-8 2q-29 8 -41 27t-12 41q0 36 21 53q22 17 47 17q17 0 25 -1t29 -1q31 0 53 11q21 11 21 45v268z" />
    <glyph glyph-name="Ohorn" unicode="&#x1a0;" horiz-adv-x="752" 
d="M376 700q75 0 135 -25q28 -12 53 -29q8 4 12 5q31 7 44 17q13 9 13 25q0 6 -1 9q0 21 16 31.5t38 10.5q25 0 40 -12t13 -30v-5q0 -69 -27 -93q-20 -22 -64 -42q22 -35 36 -71q24 -66 24 -147t-24 -147q-23 -64 -68 -112q-44 -47 -105 -72q-60 -25 -135 -25t-134 25
q-61 26 -104 72q-45 48 -68 112q-24 66 -24 147t24 147q23 64 68 112q43 46 104 72q59 25 134 25zM376 548q-76 0 -123 -54q-47 -55 -47 -149t47 -149q47 -54 123 -54t123 54q47 55 47 149t-47 149q-47 54 -123 54z" />
    <glyph glyph-name="ohorn" unicode="&#x1a1;" horiz-adv-x="600" 
d="M572 422q-14 -15 -44 -32q3 -5 13 -28q20 -51 20 -105q0 -58 -19 -106q-19 -49 -54 -85q-34 -36 -83 -57q-48 -21 -106 -21t-106 21q-49 21 -83 57q-35 36 -54 85q-19 48 -19 106q0 54 20 105q19 49 54 85q34 36 83 57q47 21 104 21q58 0 106 -21q27 -12 52 -30
q16 6 24 12q13 9 13 25q0 6 -1 9q0 21 16 31.5t38 10.5q25 0 40 -12t13 -30v-5q0 -69 -27 -93zM298 387l-2 -3q-28 0 -48 -10t-34 -27q-13 -16 -19 -39q-6 -22 -6 -50q0 -26 6 -50q6 -23 20 -42t34 -29q22 -11 48 -11t48 11q21 10 34 28q14 19 20 41t6 48q0 27 -6 51
q-6 25 -19 42q-14 19 -34 29q-22 11 -48 11z" />
    <glyph glyph-name="Uhorn" unicode="&#x1af;" horiz-adv-x="718" 
d="M651 553v-275q0 -63 -20 -118q-19 -53 -57 -91q-36 -36 -92 -58q-54 -21 -124 -21t-124 21q-56 22 -92 58q-38 37 -57 90q-20 54 -20 117v337q0 35 21 56t56 21t56 -21t21 -56v-312q0 -83 33 -121q33 -37 106 -37t106 38q33 37 33 123v307q0 35 21 56t56 21t56 -21l5 -5
l10 6q13 9 13 25q0 6 -1 9q0 21 16 31.5t38 10.5q25 0 40 -12t13 -30v-5q0 -69 -27 -93q-31 -33 -86 -51z" />
    <glyph glyph-name="uhorn" unicode="&#x1b0;" horiz-adv-x="577" 
d="M365 441q0 32 22 53q23 21 54 21t54 -21q4 -4 10 -12l6 4q13 9 13 25q0 6 -1 9q0 21 16 31.5t38 10.5q25 0 40 -12t13 -30v-5q0 -69 -27 -93q-31 -33 -86 -51v-19v-5v-118q0 -54 -16 -96q-17 -44 -46 -75t-72 -49q-42 -18 -94 -18t-94 18q-43 18 -72 49t-46 75
q-16 42 -16 96v212q0 32 22 53q23 21 54 21t54 -21q22 -21 22 -53v-216q0 -46 19 -71q20 -26 58 -26q39 0 57 26t18 71v216z" />
    <glyph glyph-name="uni0218" unicode="&#x218;" horiz-adv-x="614" 
d="M312 142l-5 1q20 0 38 3q19 3 32 9q14 6 23 17q9 10 9 27q0 15 -7 26t-27 22q-19 11 -51 21q-34 11 -79 24q-41 11 -82 29q-35 16 -64 41q-27 24 -40 58q-14 36 -14 81q0 49 21 87t57 63t84 39q46 13 101 13q60 0 101 -10q43 -11 84 -36q29 -17 41 -39t12 -44t-7 -36
q-7 -15 -18 -24q-10 -8 -24 -13q-12 -4 -24 -4q-21 0 -35 6q-9 4 -29 14q-30 16 -45 23q-24 11 -66 11q-50 0 -69 -16t-19 -33q0 -14 7 -24q8 -11 25 -21t47 -21q22 -8 74 -22q41 -10 78 -24q37 -13 68 -38q30 -24 48 -60t18 -88q0 -42 -17 -82q-16 -38 -51 -67
q-34 -28 -86 -45q-53 -17 -120 -17q-74 0 -130 17q-53 16 -90 47q-15 13 -30 33t-15 42q0 23 9 38t21 24t24 12t20 3q16 0 30 -6t27 -15q30 -21 65 -34q33 -12 80 -12zM372 -149l-2 -1q0 -48 -13 -78q-14 -32 -31 -49q-19 -19 -39 -26q-22 -8 -37 -8q-20 0 -30 10
q-11 11 -11 25q0 10 6 21q6 10 17 15q45 18 45 48q-31 7 -43 26q-12 18 -12 40q0 34 21 54q22 20 47 20q34 0 58 -25t24 -72z" />
    <glyph glyph-name="uni0219" unicode="&#x219;" horiz-adv-x="486" 
d="M44 367l-6 -5q0 34 15 63t42 50t63 33t80 12q63 0 102 -15q38 -15 63 -38q15 -15 20 -28q6 -15 6 -27t-4 -23q-5 -12 -12 -21t-18 -15t-24 -6q-11 0 -24 6q-9 4 -25 14q-13 8 -31 15q-21 8 -46 8q-21 0 -33 -6t-12 -18q0 -14 18 -23t45 -18q31 -10 59 -21q33 -12 59 -30
q27 -18 45 -45t18 -68q0 -37 -15 -69t-42 -54t-66 -36q-38 -13 -85 -13q-62 0 -106 15q-43 15 -69 41q-13 13 -18 27q-4 12 -4 27q0 11 5 24q4 12 12 21t18 15t23 6q17 0 30 -6q10 -5 21 -11q44 -27 84 -27q26 0 41 6t15 23q0 16 -18 27q-20 12 -45 20q-31 10 -59 21
q-33 12 -59 30t-45 47q-18 29 -18 72zM307 -155l-2 -1q0 -48 -13 -78q-14 -32 -31 -49q-19 -19 -39 -26q-22 -8 -37 -8q-20 0 -30 10q-11 11 -11 25q0 10 6 21q6 10 17 15q45 18 45 48q-31 7 -43 26q-12 18 -12 40q0 34 21 54q22 20 47 20q34 0 58 -25t24 -72z" />
    <glyph glyph-name="uni021A" unicode="&#x21a;" horiz-adv-x="636" 
d="M539 690h-4q35 0 56 -18t21 -50t-21 -50t-55 -18h-143v-474q0 -35 -21 -56t-56 -21t-56 21t-21 56v474h-143q-34 0 -55 18t-21 50t21 50t56 18h442zM384 -150l-2 -1q0 -48 -13 -78q-14 -32 -31 -49q-19 -19 -39 -26q-22 -8 -37 -8q-20 0 -30 10q-11 11 -11 25q0 11 6 21
t17 15q45 18 45 48q-31 7 -43 26q-12 18 -12 40q0 35 21 54q22 20 47 20q34 0 58 -25q24 -26 24 -72z" />
    <glyph glyph-name="uni021B" unicode="&#x21b;" horiz-adv-x="429" 
d="M258 189v-1q0 -32 13 -46q13 -15 36 -15q20 0 32 5t24 5q14 0 23 -6t15 -15t9 -19t3 -19q0 -47 -31 -66q-22 -13 -47 -18q-27 -5 -59 -5q-49 0 -83 17q-32 16 -52 44q-20 27 -27 61q-8 37 -8 69v201h-18q-28 0 -48 18q-19 18 -19 49q0 30 20 48q19 18 48 18h18v61
q0 32 21 53t54 21t54 -21t21 -52v-61h74q29 0 48 -18q20 -18 20 -49t-19 -49q-20 -18 -48 -18h-74v-192zM314 -151l-2 -1q0 -48 -13 -78q-13 -32 -31 -49q-19 -19 -39 -26q-22 -8 -37 -8q-20 0 -30 10q-11 11 -11 25q0 10 6 21q6 10 17 15q45 18 45 48q-31 7 -43 26
q-12 18 -12 40q0 34 21 54q22 20 47 20q34 0 58 -25t24 -72z" />
    <glyph glyph-name="dotlessj" unicode="&#x237;" horiz-adv-x="282" 
d="M65 441l-2 -1q0 32 22 53q23 21 54 21t54 -21q22 -21 22 -53v-418q0 -101 -44 -157q-43 -55 -131 -55q-55 0 -78 22q-24 22 -24 51q0 28 17 48q16 19 51 19q20 0 32 6t18 17q5 9 7 26q2 20 2 34v408z" />
    <glyph glyph-name="circumflex" unicode="&#x2c6;" horiz-adv-x="500" 
d="M406 618l-2 -3q11 -12 14 -18q5 -8 5 -18q0 -13 -11 -26q-10 -12 -27 -12q-7 0 -11 1q-5 1 -16 9l-101 68l-101 -68q-9 -5 -16 -7q-4 -1 -11 -1q-17 0 -27 12q-11 13 -11 26q0 10 5 18q3 6 14 18l108 116q8 8 17 14t24 6t24 -6q12 -8 17 -13z" />
    <glyph glyph-name="caron" unicode="&#x2c7;" horiz-adv-x="500" 
d="M300 562v-3q-5 -5 -17 -13q-9 -6 -24 -6t-24 6t-17 14l-108 116q-18 20 -18 36q0 13 11 26q11 12 27 12q7 0 11 -1q7 -2 16 -7l101 -68l101 68q11 8 16 9q4 1 11 1q16 0 27 -12q11 -13 11 -26q0 -16 -18 -36z" />
    <glyph glyph-name="breve" unicode="&#x2d8;" horiz-adv-x="500" 
d="M248 556h1q-29 0 -55 10q-28 11 -48 28q-21 18 -33 42t-12 53q0 17 12 32t37 15q19 0 30 -10q13 -11 17 -27q9 -27 21 -36t32 -9t32 9t21 36q4 16 17 27q11 10 30 10q25 0 37 -15t12 -32q0 -30 -13 -53q-14 -25 -34 -42t-48 -28q-26 -10 -56 -10z" />
    <glyph glyph-name="dotaccent" unicode="&#x2d9;" horiz-adv-x="500" 
d="M249 743l2 -1q37 0 63 -23q25 -22 25 -63q0 -46 -25 -65q-26 -20 -63 -20t-63 21q-25 21 -25 63q0 40 24 64t62 24z" />
    <glyph glyph-name="ring" unicode="&#x2da;" horiz-adv-x="500" 
d="M250 789v-1q54 0 87 -34t33 -90q0 -54 -33 -88t-87 -34t-87 34t-33 88q0 56 33 90q33 35 87 35zM250 704l-2 -1q-16 0 -27 -11q-10 -10 -10 -27q0 -16 11 -27q10 -10 27 -10q16 0 27 11t11 27q0 17 -10 27q-11 11 -27 11z" />
    <glyph glyph-name="ogonek" unicode="&#x2db;" horiz-adv-x="500" 
d="M322 24h-3q-21 -10 -35 -21q-15 -12 -26 -26q-12 -15 -17 -27q-6 -14 -6 -26q0 -10 9 -22q9 -11 32 -13q27 -1 39 -15t12 -33q0 -28 -21 -40t-55 -12q-50 0 -84 25q-35 26 -35 76q0 43 28 77q28 35 69 57h93z" />
    <glyph glyph-name="tilde" unicode="&#x2dc;" horiz-adv-x="500" 
d="M174 720l-6 -2q23 0 43 -5q15 -4 33 -11q20 -8 30 -11q17 -5 34 -5q12 0 21 3q8 3 18 14q6 8 14 14q7 6 21 6q20 0 35 -16q15 -17 15 -42q0 -38 -25 -63q-27 -30 -66 -30q-27 0 -47 6q-23 7 -36 13q-4 2 -32 13q-15 6 -34 6q-29 0 -45 -22q-6 -6 -18 -13q-11 -6 -27 -6
q-22 0 -34 15t-12 37q0 9 5 26q4 15 17 29q15 17 39 31q22 13 57 13z" />
    <glyph glyph-name="hungarumlaut" unicode="&#x2dd;" horiz-adv-x="500" 
d="M165 736v1q7 7 18 12q12 5 24 5q11 0 24 -5t21 -13q10 -10 14 -19q5 -12 5 -23q0 -35 -25 -51l-133 -86q-9 -6 -18 -10q-7 -3 -12 -3q-19 0 -33 15q-13 14 -13 32q0 21 20 41zM389 737v1q7 8 18 12q12 5 24 5q11 0 24 -5t21 -13q10 -10 14 -19q5 -12 5 -23q0 -35 -25 -51
l-133 -86q-9 -6 -18 -10q-7 -3 -12 -3q-19 0 -33 15q-13 14 -13 32q0 21 20 41z" />
    <glyph glyph-name="gravecomb" unicode="&#x300;" horiz-adv-x="500" 
d="M351 632v-4q20 -20 20 -41q0 -18 -13 -32q-14 -15 -33 -15q-5 0 -12 3q-9 4 -18 10l-133 86q-25 16 -25 51q0 11 5 23q4 11 14 20q10 10 21 14q13 5 24 5q15 0 24 -4q11 -4 18 -12z" />
    <glyph glyph-name="acutecomb" unicode="&#x301;" horiz-adv-x="500" 
d="M265 736v1q7 7 18 12q12 5 24 5q11 0 24 -5t21 -13q10 -10 14 -19q5 -12 5 -23q0 -35 -25 -51l-133 -86q-9 -6 -18 -10q-7 -3 -12 -3q-19 0 -33 15q-13 14 -13 32q0 21 20 41z" />
    <glyph glyph-name="uni0302" unicode="&#x302;" horiz-adv-x="500" 
d="M406 618l-2 -3q11 -12 14 -18q5 -8 5 -18q0 -13 -11 -26q-10 -12 -27 -12q-7 0 -11 1q-5 1 -16 9l-101 68l-101 -68q-9 -5 -16 -7q-4 -1 -11 -1q-17 0 -27 12q-11 13 -11 26q0 10 5 18q3 6 14 18l108 116q8 8 17 14t24 6t24 -6q12 -8 17 -13z" />
    <glyph glyph-name="tildecomb" unicode="&#x303;" horiz-adv-x="500" 
d="M174 720l-6 -2q23 0 43 -5q15 -4 33 -11q20 -8 30 -11q17 -5 34 -5q12 0 21 3q8 3 18 14q6 8 14 14q7 6 21 6q20 0 35 -16q15 -17 15 -42q0 -38 -25 -63q-27 -30 -66 -30q-27 0 -47 6q-23 7 -36 13q-4 2 -32 13q-15 6 -34 6q-29 0 -45 -22q-6 -6 -18 -13q-11 -6 -27 -6
q-22 0 -34 15t-12 37q0 9 5 26q4 15 17 29q15 17 39 31q22 13 57 13z" />
    <glyph glyph-name="uni0306" unicode="&#x306;" horiz-adv-x="500" 
d="M248 556h1q-29 0 -55 10q-28 11 -48 28q-21 18 -33 42t-12 53q0 17 12 32t37 15q19 0 30 -10q13 -11 17 -27q9 -27 21 -36t32 -9t32 9t21 36q4 16 17 27q11 10 30 10q25 0 37 -15t12 -32q0 -30 -13 -53q-14 -25 -34 -42t-48 -28q-26 -10 -56 -10z" />
    <glyph glyph-name="hookabovecomb" unicode="&#x309;" horiz-adv-x="527" 
d="M203 606l-1 -4q0 20 12 31q11 12 27 17q31 7 44 17q13 9 13 25q0 13 -9 22q-10 10 -31 10q-14 0 -25 -8q-12 -7 -22 -19q-11 -13 -16 -16q-7 -5 -25 -5q-20 0 -30 12q-11 12 -11 31t7 32q12 16 13 18q17 19 45 32q27 12 69 12q31 0 53 -7t40 -22q17 -13 28 -36
q10 -21 10 -52q0 -47 -27 -71q-24 -26 -76 -43v-3q0 -20 -11 -30q-12 -13 -33 -13q-18 0 -33 13q-11 13 -11 30v27z" />
    <glyph glyph-name="dotbelowcomb" unicode="&#x323;" horiz-adv-x="500" 
d="M241 -48l2 -1q30 0 52 -20q21 -19 21 -54q0 -39 -21 -57q-22 -17 -52 -17t-51 18t-21 55q0 33 20 55q19 21 50 21z" />
    <glyph glyph-name="uni0394" unicode="&#x394;" horiz-adv-x="596" 
d="M71 0l-4 -1q-31 0 -48 21q-17 22 -17 43q0 8 3 17q4 12 7 18l225 560q17 42 59 42t59 -42l225 -559q3 -7 7 -19q3 -9 3 -16q0 -21 -17 -43q-17 -21 -48 -21h-454zM428 124l-134 356l-134 -356h268z" />
    <glyph glyph-name="uni03A9" unicode="&#x3a9;" horiz-adv-x="822" 
d="M240 345l-4 -2q0 -51 8 -89q7 -34 20 -60q12 -24 29 -38q18 -15 33 -23l21 -12q12 -7 20 -15q9 -9 15 -21t6 -30q0 -26 -19 -42q-20 -17 -54 -17h-206q-35 0 -54 18t-19 50t19 50t54 18h72q-18 15 -40 41q-18 22 -34 54q-14 28 -22 63t-8 68q0 76 24 138q24 61 68 105
t104 68t134 24q73 0 135 -24t105 -67q44 -44 68 -105t24 -138q0 -33 -8 -68t-22 -63q-16 -32 -34 -54q-19 -24 -40 -40h72q35 0 54 -18t19 -50t-19 -50t-54 -18h-206q-34 0 -54 17q-19 16 -19 42q0 18 6 30t15 21q8 8 20 15l21 12q15 8 33 23q17 14 29 38q13 26 20 60
q8 38 8 89q0 94 -47 149q-47 54 -123 54t-123 -54q-47 -55 -47 -149z" />
    <glyph glyph-name="pi" unicode="&#x3c0;" horiz-adv-x="645" 
d="M106 381l-21 -4q-29 0 -48 18t-19 49q0 30 20 48t48 18h464q28 0 48 -18t20 -49t-19 -49t-48 -18h-25v-196q0 -18 5 -33q4 -13 17 -13q20 0 27 -19q8 -21 8 -39q0 -34 -21 -57q-21 -22 -65 -22q-27 0 -50 9t-39 30q-16 20 -25 54q-9 33 -9 81v208h-117v-307
q0 -31 -21 -52t-54 -21q-32 0 -54 21t-22 54v307z" />
    <glyph glyph-name="Wgrave" unicode="&#x1e80;" horiz-adv-x="913" 
d="M733 630l-4 -3q7 22 26 41q18 18 45 18q30 0 55 -17q24 -17 24 -48q0 -3 -2 -21q-1 -12 -8 -30l-188 -519q-11 -25 -30 -39q-19 -13 -42 -13q-21 0 -43 14q-21 13 -30 39l-84 259l-86 -259q-9 -26 -28 -39t-42 -13q-25 0 -44 14q-18 14 -27 39l-186 517q-11 30 -11 51
q0 26 22 47t61 21q32 0 48 -19q17 -20 24 -43l116 -360l86 259q7 24 24 42t51 18q16 0 29 -5t20 -13q10 -12 14 -19q5 -9 10 -22l86 -260zM553 829v-4q20 -20 20 -41q0 -18 -13 -32q-14 -15 -33 -15q-5 0 -12 3q-9 4 -18 10l-133 86q-25 16 -25 51q0 11 5 23q4 10 14 20
t21 14q13 5 24 5q15 0 24 -4q11 -5 18 -12z" />
    <glyph glyph-name="wgrave" unicode="&#x1e81;" horiz-adv-x="743" 
d="M574 460h-2q8 26 24 41t45 15q38 0 59 -21t21 -56q0 -9 -1 -15q-2 -10 -9 -26l-129 -342q-10 -28 -30 -42q-19 -13 -43 -13t-45 12t-30 45l-64 197l-64 -198q-9 -33 -33 -45t-43 -12q-27 0 -46 13q-20 14 -30 43l-125 341q-2 5 -4 12.5t-3 10.5q-3 9 -3 17q0 21 8 37
q7 14 20 24q11 8 27 13q13 4 30 4q25 0 43 -12q17 -11 25 -35l68 -233l60 182q9 33 30 45t43 12q21 0 42 -12t32 -44l59 -183zM470 632v-4q20 -20 20 -41q0 -18 -13 -32q-13 -15 -33 -15q-4 0 -12 3q-9 4 -18 10l-133 86q-25 16 -25 51q0 11 5 23q4 11 14 20q10 10 21 14
q13 5 24 5q15 0 24 -4q10 -4 18 -12z" />
    <glyph glyph-name="Wacute" unicode="&#x1e82;" horiz-adv-x="913" 
d="M733 630l-4 -3q7 22 26 41q18 18 45 18q30 0 55 -17q24 -17 24 -48q0 -3 -2 -21q-1 -12 -8 -30l-188 -519q-11 -25 -30 -39q-19 -13 -42 -13q-21 0 -43 14q-21 13 -30 39l-84 259l-86 -259q-9 -26 -28 -39t-42 -13q-25 0 -44 14q-18 14 -27 39l-186 517q-11 30 -11 51
q0 26 22 47t61 21q32 0 48 -19q17 -20 24 -43l116 -360l86 259q7 24 24 42t51 18q16 0 29 -5t20 -13q10 -12 14 -19q5 -9 10 -22l86 -260zM467 933v1q7 8 18 12q12 5 24 5q11 0 24 -5t21 -13q10 -10 14 -19q5 -12 5 -23q0 -35 -25 -51l-133 -86q-9 -6 -18 -10q-7 -3 -12 -3
q-19 0 -33 15q-13 14 -13 32q0 21 20 41z" />
    <glyph glyph-name="wacute" unicode="&#x1e83;" horiz-adv-x="743" 
d="M574 460h-2q8 26 24 41t45 15q38 0 59 -21t21 -56q0 -9 -1 -15q-2 -10 -9 -26l-129 -342q-10 -28 -30 -42q-19 -13 -43 -13t-45 12t-30 45l-64 197l-64 -198q-9 -33 -33 -45t-43 -12q-27 0 -46 13q-20 14 -30 43l-125 341q-2 5 -4 12.5t-3 10.5q-3 9 -3 17q0 21 8 37
q7 14 20 24q11 8 27 13q13 4 30 4q25 0 43 -12q17 -11 25 -35l68 -233l60 182q9 33 30 45t43 12q21 0 42 -12t32 -44l59 -183zM384 736v1q8 7 18 12q12 5 24 5q11 0 24 -5t21 -13q10 -10 14 -19q5 -12 5 -23q0 -35 -25 -51l-133 -86q-9 -6 -18 -10q-8 -3 -12 -3
q-20 0 -33 15q-13 14 -13 32q0 21 20 41z" />
    <glyph glyph-name="Wdieresis" unicode="&#x1e84;" horiz-adv-x="913" 
d="M733 630l-4 -3q7 22 26 41q18 18 45 18q30 0 55 -17q24 -17 24 -48q0 -3 -2 -21q-1 -12 -8 -30l-188 -519q-11 -25 -30 -39q-19 -13 -42 -13q-21 0 -43 14q-21 13 -30 39l-84 259l-86 -259q-9 -26 -28 -39t-42 -13q-25 0 -44 14q-18 14 -27 39l-186 517q-11 30 -11 51
q0 26 22 47t61 21q32 0 48 -19q17 -20 24 -43l116 -360l86 259q7 24 24 42t51 18q16 0 29 -5t20 -13q10 -12 14 -19q5 -9 10 -22l86 -260zM364 897l-1 -1q29 0 48 -18q20 -18 20 -49q0 -35 -19 -51t-48 -16t-49 17q-19 16 -19 50q0 32 18 50t50 18zM539 896h1q28 0 48 -18
t20 -49q0 -34 -20 -51q-19 -16 -48 -16q-28 0 -48 17q-19 16 -19 50q0 31 18 49t48 18z" />
    <glyph glyph-name="wdieresis" unicode="&#x1e85;" horiz-adv-x="743" 
d="M574 460h-2q8 26 24 41t45 15q38 0 59 -21t21 -56q0 -9 -1 -15q-2 -10 -9 -26l-129 -342q-10 -28 -30 -42q-19 -13 -43 -13t-45 12t-30 45l-64 197l-64 -198q-9 -33 -33 -45t-43 -12q-27 0 -46 13q-20 14 -30 43l-125 341q-2 5 -4 12.5t-3 10.5q-3 9 -3 17q0 21 8 37
q7 14 20 24q11 8 27 13q13 4 30 4q25 0 43 -12q17 -11 25 -35l68 -233l60 182q9 33 30 45t43 12q21 0 42 -12t32 -44l59 -183zM281 700l-1 -1q28 0 48 -18t20 -49q0 -35 -19 -51t-48 -16t-49 17q-19 16 -19 50q0 32 18 50t50 18zM456 699h1q29 0 48 -18q20 -18 20 -49
q0 -34 -20 -51q-19 -16 -48 -16q-28 0 -48 17q-19 16 -19 50q0 31 18 49t48 18z" />
    <glyph glyph-name="uni1EA0" unicode="&#x1ea0;" 
d="M477 139l-264 -2l-35 -91q-10 -27 -28 -37q-17 -10 -43 -10q-36 0 -56 19q-21 20 -21 51q0 11 2 23q2 10 6 17l222 517q14 31 34 47q22 17 54 17t54 -17q21 -17 35 -47l222 -517q7 -13 7 -32q0 -35 -24 -56t-58 -21q-28 0 -45 12t-26 35zM263 265h163l-82 209zM340 -48
l2 -1q30 0 52 -20q21 -19 21 -54q0 -39 -21 -57q-22 -17 -52 -17t-51 18t-21 55q0 33 20 55q20 21 50 21z" />
    <glyph glyph-name="uni1EA1" unicode="&#x1ea1;" horiz-adv-x="633" 
d="M563 179v-3q0 -23 6 -32t14 -9q17 0 27 -15q10 -14 10 -43q0 -79 -97 -79q-51 0 -78 27q-26 26 -34 62l-1 4q-22 -50 -63 -76q-40 -25 -96 -25q-43 0 -82 18q-38 18 -69 53q-30 34 -48 83q-18 48 -18 110q0 65 19 113q19 49 51 84t73 54t86 19q59 0 93 -24t54 -66v16
q0 29 21 47t55 18q35 0 56 -18t21 -46v-272zM301 125q23 0 42 9q21 10 35 25q15 17 24 40q9 24 9 55q0 61 -29 96t-81 35q-53 0 -81 -36q-29 -37 -29 -96q0 -30 9 -54q9 -23 24 -40q14 -15 35 -25q19 -9 42 -9zM303 -48l2 -1q30 0 52 -20q21 -19 21 -54q0 -39 -21 -57
q-22 -17 -52 -17t-51 18t-21 55q0 33 20 55q19 21 50 21z" />
    <glyph glyph-name="uni1EA2" unicode="&#x1ea2;" 
d="M477 139l-264 -2l-35 -91q-10 -27 -28 -37q-17 -10 -43 -10q-36 0 -56 19q-21 20 -21 51q0 11 2 23q2 10 6 17l222 517q14 31 34 47q22 17 54 17t54 -17q21 -17 35 -47l222 -517q7 -13 7 -32q0 -35 -24 -56t-58 -21q-28 0 -45 12t-26 35zM263 265h163l-82 209zM304 811
l-1 -4q0 21 12 31q11 12 27 17q31 7 44 17q13 9 13 25q0 13 -9 22q-10 10 -31 10q-14 0 -25 -8q-12 -7 -22 -19q-11 -13 -16 -16q-8 -5 -25 -5q-19 0 -30 12t-11 31t7 32q12 16 13 18q17 19 45 32q27 12 69 12q31 0 53 -7t40 -22q17 -13 28 -36q10 -21 10 -52q0 -47 -27 -71
q-24 -26 -76 -43v-3q0 -20 -11 -30q-12 -13 -33 -13q-18 0 -33 13q-11 13 -11 30v27z" />
    <glyph glyph-name="uni1EA3" unicode="&#x1ea3;" horiz-adv-x="633" 
d="M563 179v-3q0 -23 6 -32t14 -9q17 0 27 -15q10 -14 10 -43q0 -79 -97 -79q-51 0 -78 27q-26 26 -34 62l-1 4q-22 -50 -63 -76q-40 -25 -96 -25q-43 0 -82 18q-38 18 -69 53q-30 34 -48 83q-18 48 -18 110q0 65 19 113q19 49 51 84t73 54t86 19q59 0 93 -24t54 -66v16
q0 29 21 47t55 18q35 0 56 -18t21 -46v-272zM301 125q23 0 42 9q21 10 35 25q15 17 24 40q9 24 9 55q0 61 -29 96t-81 35q-53 0 -81 -36q-29 -37 -29 -96q0 -30 9 -54q9 -23 24 -40q14 -15 35 -25q19 -9 42 -9zM289 607l-1 -4q0 21 12 31q11 12 27 17q31 7 44 17q13 9 13 25
q0 13 -9 22q-10 10 -31 10q-14 0 -25 -8q-12 -7 -22 -19q-11 -13 -16 -16q-7 -5 -25 -5q-20 0 -30 12q-11 12 -11 31t7 32q12 16 13 18q17 19 45 32q27 12 69 12q31 0 53 -7t40 -22q17 -13 28 -36q10 -21 10 -52q0 -47 -27 -71q-24 -26 -76 -43v-3q0 -20 -11 -30
q-12 -13 -33 -13q-18 0 -33 13q-11 13 -11 30v27z" />
    <glyph glyph-name="uni1EA4" unicode="&#x1ea4;" 
d="M477 139l-264 -2l-35 -91q-10 -27 -28 -37q-17 -10 -43 -10q-36 0 -56 19q-21 20 -21 51q0 11 2 23q2 10 6 17l222 517q14 31 34 47q22 17 54 17t54 -17q21 -17 35 -47l222 -517q7 -13 7 -32q0 -35 -24 -56t-58 -21q-28 0 -45 12t-26 35zM263 265h163l-82 209zM484 816
l-2 -3q11 -12 14 -18q5 -8 5 -18q0 -13 -11 -26q-10 -12 -27 -12q-7 0 -11 1q-5 1 -16 9l-101 68l-101 -68q-9 -5 -16 -7q-4 -1 -11 -1q-17 0 -27 12q-11 13 -11 26q0 10 5 18q3 6 14 18l108 116q8 8 17 14t24 6t24 -6q12 -8 17 -13zM525 1097v1q5 5 15 10q12 4 20 4t20 -4
q12 -5 18 -11q8 -8 12 -16q4 -12 4 -19q0 -30 -21 -43l-112 -72q-7 -6 -15 -9q-8 -2 -10 -2q-16 0 -27 12t-11 27q0 18 17 35z" />
    <glyph glyph-name="uni1EA5" unicode="&#x1ea5;" horiz-adv-x="633" 
d="M563 179v-3q0 -23 6 -32t14 -9q17 0 27 -15q10 -14 10 -43q0 -79 -97 -79q-51 0 -78 27q-26 26 -34 62l-1 4q-22 -50 -63 -76q-40 -25 -96 -25q-43 0 -82 18q-38 18 -69 53q-30 34 -48 83q-18 48 -18 110q0 65 19 113q19 49 51 84t73 54t86 19q59 0 93 -24t54 -66v16
q0 29 21 47t55 18q35 0 56 -18t21 -46v-272zM301 125q23 0 42 9q21 10 35 25q15 17 24 40q9 24 9 55q0 61 -29 96t-81 35q-53 0 -81 -36q-29 -37 -29 -96q0 -30 9 -54q9 -23 24 -40q14 -15 35 -25q19 -9 42 -9zM486 613l-2 -3q11 -12 14 -18q5 -8 5 -18q0 -13 -11 -26
q-10 -12 -27 -12q-7 0 -11 1q-5 1 -16 9l-101 68l-101 -68q-9 -5 -16 -7q-4 -1 -11 -1q-17 0 -27 12q-11 13 -11 26q0 10 5 18q3 6 14 18l108 116q8 8 17 14t24 6t24 -6q12 -8 17 -13zM527 894v1q5 5 15 10q12 4 20 4t20 -4q12 -5 18 -11q8 -8 12 -16q4 -12 4 -19
q0 -30 -21 -43l-112 -72q-7 -6 -15 -9q-8 -2 -10 -2q-16 0 -27 12t-11 27q0 18 17 35z" />
    <glyph glyph-name="uni1EA6" unicode="&#x1ea6;" 
d="M477 139l-264 -2l-35 -91q-10 -27 -28 -37q-17 -10 -43 -10q-36 0 -56 19q-21 20 -21 51q0 11 2 23q2 10 6 17l222 517q14 31 34 47q22 17 54 17t54 -17q21 -17 35 -47l222 -517q7 -13 7 -32q0 -35 -24 -56t-58 -21q-28 0 -45 12t-26 35zM263 265h163l-82 209zM495 814
l-2 -3q11 -12 14 -18q5 -8 5 -18q0 -13 -11 -26q-11 -12 -27 -12q-7 0 -11 1q-5 1 -16 9l-101 68l-101 -68q-9 -5 -16 -7q-4 -1 -11 -1q-16 0 -27 12q-11 13 -11 26q0 10 5 18q3 6 14 18l108 116q8 8 17 14t24 6t24 -6q12 -8 17 -13zM512 1016v-4q17 -17 17 -36
q0 -14 -11 -28q-13 -13 -28 -13q-2 0 -10 3q-10 5 -14 9l-111 75q-20 13 -20 44q0 12 4 20q3 8 11 18q8 8 18 12q12 4 20 4q11 0 20 -3q10 -6 14 -11z" />
    <glyph glyph-name="uni1EA7" unicode="&#x1ea7;" horiz-adv-x="633" 
d="M563 179v-3q0 -23 6 -32t14 -9q17 0 27 -15q10 -14 10 -43q0 -79 -97 -79q-51 0 -78 27q-26 26 -34 62l-1 4q-22 -50 -63 -76q-40 -25 -96 -25q-43 0 -82 18q-38 18 -69 53q-30 34 -48 83q-18 48 -18 110q0 65 19 113q19 49 51 84t73 54t86 19q59 0 93 -24t54 -66v16
q0 29 21 47t55 18q35 0 56 -18t21 -46v-272zM301 125q23 0 42 9q21 10 35 25q15 17 24 40q9 24 9 55q0 61 -29 96t-81 35q-53 0 -81 -36q-29 -37 -29 -96q0 -30 9 -54q9 -23 24 -40q14 -15 35 -25q19 -9 42 -9zM496 613l-2 -3q11 -12 14 -18q5 -8 5 -18q0 -13 -11 -26
q-10 -12 -27 -12q-7 0 -11 1q-5 1 -16 9l-101 68l-101 -68q-9 -5 -16 -7q-4 -1 -11 -1q-17 0 -27 12q-11 13 -11 26q0 10 5 18q3 6 14 18l108 116q8 8 17 14t24 6t24 -6q12 -8 17 -13zM513 815v-4q17 -17 17 -36q0 -14 -11 -28q-13 -13 -28 -13q-3 0 -10 3q-10 5 -14 9
l-111 75q-20 13 -20 44q0 12 4 20q3 8 11 18q7 7 18 12q12 4 20 4q11 0 20 -3q10 -6 14 -11z" />
    <glyph glyph-name="uni1EA8" unicode="&#x1ea8;" 
d="M477 139l-264 -2l-35 -91q-10 -27 -28 -37q-17 -10 -43 -10q-36 0 -56 19q-21 20 -21 51q0 11 2 23q2 10 6 17l222 517q14 31 34 47q22 17 54 17t54 -17q21 -17 35 -47l222 -517q7 -13 7 -32q0 -35 -24 -56t-58 -21q-28 0 -45 12t-26 35zM263 265h163l-82 209zM503 816
l-2 -3q11 -12 14 -18q5 -8 5 -18q0 -13 -11 -26q-11 -12 -27 -12q-7 0 -11 1q-5 1 -16 9l-101 68l-101 -68q-9 -5 -16 -7q-4 -1 -11 -1q-16 0 -27 12q-11 13 -11 26q0 10 5 18q3 6 14 18l108 116q8 8 17 14t24 6t24 -6q12 -8 17 -13zM469 960l-1 -4q0 18 11 26q10 10 24 13
q28 6 39 14q11 7 11 21q0 12 -8 17q-9 9 -27 9q-12 0 -22 -7q-10 -5 -20 -15q-12 -12 -14 -13q-6 -4 -23 -4t-26 9q-10 11 -10 25q0 15 6 26q2 2 6 7.5t6 7.5q14 15 40 26q23 10 61 10q26 0 47 -6t36 -18q16 -10 25 -29q9 -18 9 -42q0 -38 -24 -58q-21 -21 -68 -35v-15
q0 -16 -10 -25q-10 -10 -29 -10q-16 0 -29 10q-10 10 -10 25v35z" />
    <glyph glyph-name="uni1EA9" unicode="&#x1ea9;" horiz-adv-x="633" 
d="M563 179v-3q0 -23 6 -32t14 -9q17 0 27 -15q10 -14 10 -43q0 -79 -97 -79q-51 0 -78 27q-26 26 -34 62l-1 4q-22 -50 -63 -76q-40 -25 -96 -25q-43 0 -82 18q-38 18 -69 53q-30 34 -48 83q-18 48 -18 110q0 65 19 113q19 49 51 84t73 54t86 19q59 0 93 -24t54 -66v16
q0 29 21 47t55 18q35 0 56 -18t21 -46v-272zM301 125q23 0 42 9q21 10 35 25q15 17 24 40q9 24 9 55q0 61 -29 96t-81 35q-53 0 -81 -36q-29 -37 -29 -96q0 -30 9 -54q9 -23 24 -40q14 -15 35 -25q19 -9 42 -9zM491 613l-2 -3q11 -12 14 -18q5 -8 5 -18q0 -13 -11 -26
q-11 -12 -27 -12q-7 0 -11 1q-5 1 -16 9l-101 68l-101 -68q-9 -5 -16 -7q-4 -1 -11 -1q-16 0 -27 12q-11 13 -11 26q0 10 5 18q3 6 14 18l108 116q8 8 17 14t24 6t24 -6q12 -8 17 -13zM457 757l-1 -4q0 18 11 26q10 10 24 13q28 6 39 14q11 7 11 21q0 12 -8 17q-9 9 -27 9
q-12 0 -22 -7q-10 -5 -20 -15q-12 -12 -14 -13q-6 -4 -23 -4t-26 9q-10 11 -10 25q0 16 6 26q2 2 6 7.5t6 7.5q14 15 40 26q23 10 61 10q26 0 47 -6t36 -18q16 -11 25 -29t9 -42q0 -38 -24 -58q-21 -21 -68 -35v-15q0 -16 -10 -25q-10 -10 -29 -10q-16 0 -29 10
q-10 10 -10 25v35z" />
    <glyph glyph-name="uni1EAA" unicode="&#x1eaa;" 
d="M477 139l-264 -2l-35 -91q-10 -27 -28 -37q-17 -10 -43 -10q-36 0 -56 19q-21 20 -21 51q0 11 2 23q2 10 6 17l222 517q14 31 34 47q22 17 54 17t54 -17q21 -17 35 -47l222 -517q7 -13 7 -32q0 -35 -24 -56t-58 -21q-28 0 -45 12t-26 35zM263 265h163l-82 209zM493 816
l-2 -3q11 -12 14 -18q5 -8 5 -18q0 -13 -11 -26q-11 -12 -27 -12q-7 0 -11 1q-5 1 -16 9l-101 68l-101 -68q-9 -5 -16 -7q-4 -1 -11 -1q-16 0 -27 12q-11 13 -11 26q0 10 5 18q3 6 14 18l108 116q8 8 17 14t24 6t24 -6q12 -8 17 -13zM317 1095l-5 -1q16 0 34 -4q10 -3 26 -9
l24 -9q16 -4 27 -4q9 0 17 3q6 1 14 11q5 6 11 11q7 5 17 5q17 0 27 -13q12 -13 12 -33q0 -31 -19 -50q-22 -24 -53 -24q-20 0 -37 5q-20 6 -29 10q-5 3 -25 10q-10 5 -27 5q-24 0 -35 -17q-5 -5 -15 -10q-6 -5 -21 -5q-18 0 -27 12q-10 13 -10 29q0 5 4 21q6 14 14 23
q14 14 31 24t45 10z" />
    <glyph glyph-name="uni1EAB" unicode="&#x1eab;" horiz-adv-x="633" 
d="M563 179v-3q0 -23 6 -32t14 -9q17 0 27 -15q10 -14 10 -43q0 -79 -97 -79q-51 0 -78 27q-26 26 -34 62l-1 4q-22 -50 -63 -76q-40 -25 -96 -25q-43 0 -82 18q-38 18 -69 53q-30 34 -48 83q-18 48 -18 110q0 65 19 113q19 49 51 84t73 54t86 19q59 0 93 -24t54 -66v16
q0 29 21 47t55 18q35 0 56 -18t21 -46v-272zM301 125q23 0 42 9q21 10 35 25q15 17 24 40q9 24 9 55q0 61 -29 96t-81 35q-53 0 -81 -36q-29 -37 -29 -96q0 -30 9 -54q9 -23 24 -40q14 -15 35 -25q19 -9 42 -9zM474 613l-2 -3q11 -12 14 -18q5 -8 5 -18q0 -13 -11 -26
q-10 -12 -27 -12q-7 0 -11 1q-5 1 -16 9l-101 68l-101 -68q-9 -5 -16 -7q-4 -1 -11 -1q-17 0 -27 12q-11 13 -11 26q0 10 5 18q3 6 14 18l108 116q8 8 17 14t24 6t24 -6q12 -8 17 -13zM298 892l-5 -1q16 0 34 -4q10 -3 26 -9l24 -9q16 -4 27 -4q10 0 17 3q6 1 14 11
q5 6 11 11q7 5 17 5q17 0 27 -13q12 -14 12 -33q0 -31 -19 -50q-22 -24 -53 -24q-20 0 -37 5q-20 6 -29 10l-25 10q-10 5 -27 5q-24 0 -35 -17q-5 -5 -15 -10q-6 -5 -21 -5q-18 0 -27 12q-10 13 -10 29q0 5 4 21q6 14 14 23q14 14 31 24t45 10z" />
    <glyph glyph-name="uni1EAC" unicode="&#x1eac;" 
d="M477 139l-264 -2l-35 -91q-10 -27 -28 -37q-17 -10 -43 -10q-36 0 -56 19q-21 20 -21 51q0 11 2 23q2 10 6 17l222 517q14 31 34 47q22 17 54 17t54 -17q21 -17 35 -47l222 -517q7 -13 7 -32q0 -35 -24 -56t-58 -21q-28 0 -45 12t-26 35zM263 265h163l-82 209zM496 816
l-2 -3q11 -12 14 -18q5 -8 5 -18q0 -13 -11 -26q-10 -12 -27 -12q-7 0 -11 1q-5 1 -16 9l-101 68l-101 -68q-9 -5 -16 -7q-4 -1 -11 -1q-17 0 -27 12q-11 13 -11 26q0 10 5 18q3 6 14 18l108 116q8 8 17 14t24 6t24 -6q12 -8 17 -13zM341 -48l2 -1q30 0 52 -20
q21 -19 21 -54q0 -39 -21 -57q-22 -17 -52 -17t-51 18t-21 55q0 33 20 55q19 21 50 21z" />
    <glyph glyph-name="uni1EAD" unicode="&#x1ead;" horiz-adv-x="633" 
d="M563 179v-3q0 -23 6 -32t14 -9q17 0 27 -15q10 -14 10 -43q0 -79 -97 -79q-51 0 -78 27q-26 26 -34 62l-1 4q-22 -50 -63 -76q-40 -25 -96 -25q-43 0 -82 18q-38 18 -69 53q-30 34 -48 83q-18 48 -18 110q0 65 19 113q19 49 51 84t73 54t86 19q59 0 93 -24t54 -66v16
q0 29 21 47t55 18q35 0 56 -18t21 -46v-272zM301 125q23 0 42 9q21 10 35 25q15 17 24 40q9 24 9 55q0 61 -29 96t-81 35q-53 0 -81 -36q-29 -37 -29 -96q0 -30 9 -54q9 -23 24 -40q14 -15 35 -25q19 -9 42 -9zM473 618l-2 -3q11 -12 14 -18q5 -8 5 -18q0 -13 -11 -26
q-11 -12 -27 -12q-7 0 -11 1q-5 1 -16 9l-101 68l-101 -68q-9 -5 -16 -7q-4 -1 -11 -1q-16 0 -27 12q-11 13 -11 26q0 10 5 18q3 6 14 18l108 116q8 8 17 14t24 6t24 -6q12 -8 17 -13zM297 -48l2 -1q30 0 52 -20q21 -19 21 -54q0 -39 -21 -57q-22 -17 -52 -17t-51 18t-21 55
q0 33 20 55q19 21 50 21z" />
    <glyph glyph-name="uni1EAE" unicode="&#x1eae;" 
d="M477 139l-264 -2l-35 -91q-10 -27 -28 -37q-17 -10 -43 -10q-36 0 -56 19q-21 20 -21 51q0 11 2 23q2 10 6 17l222 517q14 31 34 47q22 17 54 17t54 -17q21 -17 35 -47l222 -517q7 -13 7 -32q0 -35 -24 -56t-58 -21q-28 0 -45 12t-26 35zM263 265h163l-82 209zM353 739h1
q-29 0 -55 10q-28 11 -48 28q-21 18 -33 42t-12 53q0 17 12 32t37 15q19 0 30 -10q13 -11 17 -27q9 -27 21 -36t32 -9t32 9t21 36q4 16 17 27q11 10 30 10q25 0 37 -15t12 -32q0 -30 -13 -53q-14 -25 -34 -42t-48 -28q-26 -10 -56 -10zM419 1102v1q5 5 15 10q12 4 20 4
t20 -4q12 -5 18 -11q8 -8 12 -16q4 -12 4 -19q0 -29 -21 -43l-112 -72q-7 -6 -15 -9q-8 -2 -10 -2q-16 0 -27 12t-11 27q0 18 17 35z" />
    <glyph glyph-name="uni1EAF" unicode="&#x1eaf;" horiz-adv-x="633" 
d="M563 179v-3q0 -23 6 -32t14 -9q17 0 27 -15q10 -14 10 -43q0 -79 -97 -79q-51 0 -78 27q-26 26 -34 62l-1 4q-22 -50 -63 -76q-40 -25 -96 -25q-43 0 -82 18q-38 18 -69 53q-30 34 -48 83q-18 48 -18 110q0 65 19 113q19 49 51 84t73 54t86 19q59 0 93 -24t54 -66v16
q0 29 21 47t55 18q35 0 56 -18t21 -46v-272zM301 125q23 0 42 9q21 10 35 25q15 17 24 40q9 24 9 55q0 61 -29 96t-81 35q-53 0 -81 -36q-29 -37 -29 -96q0 -30 9 -54q9 -23 24 -40q14 -15 35 -25q19 -9 42 -9zM336 537h1q-29 0 -55 10q-28 11 -48 28q-21 18 -33 42t-12 53
q0 17 12 32t37 15q19 0 30 -10q13 -11 17 -27q9 -27 21 -36t32 -9t32 9t21 36q4 16 17 27q11 10 30 10q25 0 37 -15t12 -32q0 -30 -13 -53q-14 -25 -34 -42t-48 -28q-26 -10 -56 -10zM402 900v1q5 5 15 10q12 4 20 4t20 -4q12 -5 18 -11q8 -8 12 -16q4 -12 4 -19
q0 -29 -21 -43l-112 -72q-8 -6 -15 -9q-8 -2 -10 -2q-17 0 -27 12q-11 12 -11 27q0 18 17 35z" />
    <glyph glyph-name="uni1EB0" unicode="&#x1eb0;" 
d="M477 139l-264 -2l-35 -91q-10 -27 -28 -37q-17 -10 -43 -10q-36 0 -56 19q-21 20 -21 51q0 11 2 23q2 10 6 17l222 517q14 31 34 47q22 17 54 17t54 -17q21 -17 35 -47l222 -517q7 -13 7 -32q0 -35 -24 -56t-58 -21q-28 0 -45 12t-26 35zM263 265h163l-82 209zM403 1023
v-4q17 -17 17 -36q0 -14 -11 -28q-13 -13 -28 -13q-3 0 -10 3q-10 5 -14 9l-111 75q-20 13 -20 44q0 12 4 20q3 8 11 18q7 7 18 12q12 4 20 4q11 0 20 -3q10 -6 14 -11zM344 739h1q-29 0 -55 10q-28 11 -48 28q-21 18 -33 42t-12 53q0 17 12 32t37 15q19 0 30 -10
q13 -11 17 -27q9 -27 21 -36t32 -9t32 9t21 36q4 16 17 27q11 10 30 10q25 0 37 -15t12 -32q0 -30 -13 -53q-14 -25 -34 -42t-48 -28q-26 -10 -56 -10z" />
    <glyph glyph-name="uni1EB1" unicode="&#x1eb1;" horiz-adv-x="633" 
d="M563 179v-3q0 -23 6 -32t14 -9q17 0 27 -15q10 -14 10 -43q0 -79 -97 -79q-51 0 -78 27q-26 26 -34 62l-1 4q-22 -50 -63 -76q-40 -25 -96 -25q-43 0 -82 18q-38 18 -69 53q-30 34 -48 83q-18 48 -18 110q0 65 19 113q19 49 51 84t73 54t86 19q59 0 93 -24t54 -66v16
q0 29 21 47t55 18q35 0 56 -18t21 -46v-272zM301 125q23 0 42 9q21 10 35 25q15 17 24 40q9 24 9 55q0 61 -29 96t-81 35q-53 0 -81 -36q-29 -37 -29 -96q0 -30 9 -54q9 -23 24 -40q14 -15 35 -25q19 -9 42 -9zM403 820v-4q17 -17 17 -36q0 -14 -11 -28q-13 -13 -28 -13
q-3 0 -10 3q-10 5 -14 9l-111 75q-20 13 -20 44q0 12 4 20q3 8 11 18q7 8 18 12q12 4 20 4q11 0 20 -3q10 -6 14 -11zM344 536h1q-29 0 -55 10q-28 11 -48 28q-21 18 -33 42t-12 53q0 17 12 32t37 15q19 0 30 -10q13 -11 17 -27q9 -27 21 -36t32 -9t32 9t21 36q4 16 17 27
q11 10 30 10q25 0 37 -15t12 -32q0 -30 -13 -53q-14 -25 -34 -42t-48 -28q-26 -10 -56 -10z" />
    <glyph glyph-name="uni1EB2" unicode="&#x1eb2;" 
d="M477 139l-264 -2l-35 -91q-10 -27 -28 -37q-17 -10 -43 -10q-36 0 -56 19q-21 20 -21 51q0 11 2 23q2 10 6 17l222 517q14 31 34 47q22 17 54 17t54 -17q21 -17 35 -47l222 -517q7 -13 7 -32q0 -35 -24 -56t-58 -21q-28 0 -45 12t-26 35zM263 265h163l-82 209zM351 738h1
q-29 0 -55 10q-28 11 -48 28q-21 18 -33 42t-12 53q0 17 12 32t37 15q19 0 30 -10q13 -11 17 -27q9 -27 21 -36t32 -9t32 9t21 36q4 16 17 27q11 10 30 10q25 0 37 -15t12 -32q0 -30 -13 -53q-14 -25 -34 -42t-48 -28q-26 -10 -56 -10zM319 985l-1 -4q0 18 11 26
q10 10 24 13q28 6 39 14q11 7 11 21q0 12 -8 17q-9 9 -27 9q-12 0 -22 -7q-10 -5 -20 -15q-12 -12 -14 -13q-6 -4 -23 -4t-26 9q-10 11 -10 25q0 16 6 26q2 2 6 7.5t6 7.5q14 15 40 26q23 10 61 10q26 0 47 -6t36 -18q16 -11 25 -29t9 -42q0 -38 -24 -58q-21 -21 -68 -35
v-15q0 -16 -10 -25q-10 -10 -29 -10q-16 0 -29 10q-10 10 -10 25v35z" />
    <glyph glyph-name="uni1EB3" unicode="&#x1eb3;" horiz-adv-x="633" 
d="M563 179v-3q0 -23 6 -32t14 -9q17 0 27 -15q10 -14 10 -43q0 -79 -97 -79q-51 0 -78 27q-26 26 -34 62l-1 4q-22 -50 -63 -76q-40 -25 -96 -25q-43 0 -82 18q-38 18 -69 53q-30 34 -48 83q-18 48 -18 110q0 65 19 113q19 49 51 84t73 54t86 19q59 0 93 -24t54 -66v16
q0 29 21 47t55 18q35 0 56 -18t21 -46v-272zM301 125q23 0 42 9q21 10 35 25q15 17 24 40q9 24 9 55q0 61 -29 96t-81 35q-53 0 -81 -36q-29 -37 -29 -96q0 -30 9 -54q9 -23 24 -40q14 -15 35 -25q19 -9 42 -9zM336 537h1q-29 0 -55 10q-28 11 -48 28q-21 18 -33 42t-12 53
q0 17 12 32t37 15q19 0 30 -10q13 -11 17 -27q9 -27 21 -36t32 -9t32 9t21 36q4 16 17 27q11 10 30 10q25 0 37 -15t12 -32q0 -30 -13 -53q-14 -25 -34 -42t-48 -28q-26 -10 -56 -10zM304 784l-1 -4q0 18 11 26q10 10 24 13q28 6 39 14q11 7 11 21q0 12 -8 17q-9 9 -27 9
q-11 0 -22 -7q-10 -5 -20 -15q-12 -12 -14 -13q-6 -4 -23 -4t-26 9q-10 11 -10 25q0 15 6 26q2 2 6 7.5t6 7.5q14 15 40 26q23 10 61 10q26 0 47 -6t36 -18q16 -10 25 -29q9 -18 9 -42q0 -38 -24 -58q-21 -21 -68 -35v-15q0 -16 -10 -25q-10 -10 -29 -10q-16 0 -29 10
q-10 10 -10 25v35z" />
    <glyph glyph-name="uni1EB4" unicode="&#x1eb4;" 
d="M477 139l-264 -2l-35 -91q-10 -27 -28 -37q-17 -10 -43 -10q-36 0 -56 19q-21 20 -21 51q0 11 2 23q2 10 6 17l222 517q14 31 34 47q22 17 54 17t54 -17q21 -17 35 -47l222 -517q7 -13 7 -32q0 -35 -24 -56t-58 -21q-28 0 -45 12t-26 35zM263 265h163l-82 209zM352 738h1
q-29 0 -55 10q-28 11 -48 28q-21 18 -33 42t-12 53q0 17 12 32t37 15q19 0 30 -10q13 -11 17 -27q9 -27 21 -36t32 -9t32 9t21 36q4 16 17 27q11 10 30 10q25 0 37 -15t12 -32q0 -30 -13 -53q-14 -25 -34 -42t-48 -28q-26 -10 -56 -10zM304 1060l-5 -1q16 0 34 -4
q10 -3 26 -9l24 -9q16 -4 27 -4q10 0 17 3q6 1 14 11q5 6 11 11q7 5 17 5q17 0 27 -13q12 -14 12 -33q0 -31 -19 -50q-23 -24 -53 -24q-20 0 -37 5q-20 6 -29 10l-25 10q-10 5 -27 5q-24 0 -35 -17q-5 -5 -15 -10q-6 -5 -21 -5q-18 0 -27 12q-10 13 -10 29q0 5 4 21
q6 14 14 23q14 14 31 24t45 10z" />
    <glyph glyph-name="uni1EB5" unicode="&#x1eb5;" horiz-adv-x="633" 
d="M563 179v-3q0 -23 6 -32t14 -9q17 0 27 -15q10 -14 10 -43q0 -79 -97 -79q-51 0 -78 27q-26 26 -34 62l-1 4q-22 -50 -63 -76q-40 -25 -96 -25q-43 0 -82 18q-38 18 -69 53q-30 34 -48 83q-18 48 -18 110q0 65 19 113q19 49 51 84t73 54t86 19q59 0 93 -24t54 -66v16
q0 29 21 47t55 18q35 0 56 -18t21 -46v-272zM301 125q23 0 42 9q21 10 35 25q15 17 24 40q9 24 9 55q0 61 -29 96t-81 35q-53 0 -81 -36q-29 -37 -29 -96q0 -30 9 -54q9 -23 24 -40q14 -15 35 -25q19 -9 42 -9zM345 536h1q-29 0 -55 10q-28 11 -48 28q-21 18 -33 42t-12 53
q0 17 12 32t37 15q19 0 30 -10q13 -11 17 -27q9 -27 21 -36t32 -9t32 9t21 36q4 16 17 27q11 10 30 10q25 0 37 -15t12 -32q0 -30 -13 -53q-14 -25 -34 -42t-48 -28q-26 -10 -56 -10zM297 858l-5 -1q16 0 34 -4q10 -3 26 -9l24 -9q16 -4 27 -4q9 0 17 3q6 1 14 11q5 6 11 11
q7 5 17 5q17 0 27 -13q12 -14 12 -33q0 -31 -19 -50q-22 -24 -53 -24q-20 0 -37 5q-20 6 -29 10l-25 10q-10 5 -27 5q-24 0 -35 -17q-5 -5 -15 -10q-6 -5 -21 -5q-18 0 -27 12q-10 13 -10 29q0 5 4 21q6 14 14 23q14 14 31 24t45 10z" />
    <glyph glyph-name="uni1EB6" unicode="&#x1eb6;" 
d="M477 139l-264 -2l-35 -91q-10 -27 -28 -37q-17 -10 -43 -10q-36 0 -56 19q-21 20 -21 51q0 11 2 23q2 10 6 17l222 517q14 31 34 47q22 17 54 17t54 -17q21 -17 35 -47l222 -517q7 -13 7 -32q0 -35 -24 -56t-58 -21q-28 0 -45 12t-26 35zM263 265h163l-82 209zM347 739h1
q-29 0 -55 10q-28 11 -48 28q-21 18 -33 42t-12 53q0 17 12 32t37 15q19 0 30 -10q13 -11 17 -27q9 -27 21 -36t32 -9t32 9t21 36q4 16 17 27q11 10 30 10q25 0 37 -15t12 -32q0 -30 -13 -53q-14 -25 -34 -42t-48 -28q-26 -10 -56 -10zM342 -48l2 -1q30 0 52 -20
q21 -19 21 -54q0 -39 -21 -57q-22 -17 -52 -17t-51 18t-21 55q0 33 20 55q20 21 50 21z" />
    <glyph glyph-name="uni1EB7" unicode="&#x1eb7;" horiz-adv-x="633" 
d="M563 179v-3q0 -23 6 -32t14 -9q17 0 27 -15q10 -14 10 -43q0 -79 -97 -79q-51 0 -78 27q-26 26 -34 62l-1 4q-22 -50 -63 -76q-40 -25 -96 -25q-43 0 -82 18q-38 18 -69 53q-30 34 -48 83q-18 48 -18 110q0 65 19 113q19 49 51 84t73 54t86 19q59 0 93 -24t54 -66v16
q0 29 21 47t55 18q35 0 56 -18t21 -46v-272zM301 125q23 0 42 9q21 10 35 25q15 17 24 40q9 24 9 55q0 61 -29 96t-81 35q-53 0 -81 -36q-29 -37 -29 -96q0 -30 9 -54q9 -23 24 -40q14 -15 35 -25q19 -9 42 -9zM348 536h1q-29 0 -55 10q-28 11 -48 28q-21 18 -33 42t-12 53
q0 17 12 32t37 15q19 0 30 -10q13 -11 17 -27q9 -27 21 -36t32 -9t32 9t21 36q4 16 17 27q11 10 30 10q25 0 37 -15t12 -32q0 -30 -13 -53q-14 -25 -34 -42t-48 -28q-26 -10 -56 -10zM311 -48l2 -1q30 0 52 -20q21 -19 21 -54q0 -39 -21 -57q-22 -17 -52 -17t-51 18t-21 55
q0 33 20 55q19 21 50 21z" />
    <glyph glyph-name="uni1EB8" unicode="&#x1eb8;" horiz-adv-x="606" 
d="M504 138l-4 -4q34 0 54 -18q19 -18 19 -50t-19 -50q-20 -18 -54 -18h-356q-38 0 -57 21q-20 22 -20 56v534q0 35 21 56t59 21h354q35 0 54 -18q20 -18 20 -50t-19 -50q-20 -18 -54 -18h-277v-134h167q35 0 56 -18t21 -50t-21 -50t-55 -18h-167v-142h278zM301 -48l2 -1
q30 0 52 -20q21 -19 21 -54q0 -39 -21 -57q-22 -17 -52 -17t-51 18t-21 55q0 33 20 55q19 21 50 21z" />
    <glyph glyph-name="uni1EB9" unicode="&#x1eb9;" horiz-adv-x="565" 
d="M190 216l-3 -2q10 -45 41 -66q30 -21 71 -21q18 0 36 5q14 4 30 11q15 7 23 12q10 7 14 8q20 9 33 9q29 0 47 -21t18 -47q0 -20 -10 -34q-11 -16 -22 -24q-29 -23 -73 -39t-106 -16q-54 0 -102 20q-47 20 -81 55q-34 36 -54 84q-19 47 -19 107q0 54 20 105q20 50 54 86
q35 36 81 57t102 21q55 0 97 -19q44 -20 74 -51q31 -32 47 -72q17 -42 17 -84q0 -36 -12 -60t-50 -24h-273zM287 385l1 -2q-40 0 -66 -21q-25 -20 -34 -62h187q0 15 -6 30q-6 16 -16 27q-11 13 -27 20q-18 8 -39 8zM275 -48l2 -1q30 0 52 -20q21 -19 21 -54q0 -39 -21 -57
q-22 -17 -52 -17t-51 18t-21 55q0 33 20 55q19 21 50 21z" />
    <glyph glyph-name="uni1EBA" unicode="&#x1eba;" horiz-adv-x="606" 
d="M504 138l-4 -4q34 0 54 -18q19 -18 19 -50t-19 -50q-20 -18 -54 -18h-356q-38 0 -57 21q-20 22 -20 56v534q0 35 21 56t59 21h354q35 0 54 -18q20 -18 20 -50t-19 -50q-20 -18 -54 -18h-277v-134h167q35 0 56 -18t21 -50t-21 -50t-55 -18h-167v-142h278zM261 808l-1 -4
q0 20 12 31q11 12 27 17q31 7 44 17q13 9 13 25q0 13 -9 22q-10 10 -31 10q-14 0 -25 -8q-12 -7 -22 -19q-11 -13 -16 -16q-8 -5 -25 -5q-20 0 -30 12q-11 12 -11 31t7 32q12 16 13 18q17 19 45 32q27 12 69 12q31 0 53 -7t40 -22q17 -13 28 -36q10 -21 10 -52
q0 -47 -27 -71q-24 -26 -76 -43v-3q0 -20 -11 -30q-12 -13 -33 -13q-18 0 -33 13q-11 13 -11 30v27z" />
    <glyph glyph-name="uni1EBB" unicode="&#x1ebb;" horiz-adv-x="565" 
d="M190 216l-3 -2q10 -45 41 -66q30 -21 71 -21q18 0 36 5q14 4 30 11q15 7 23 12q10 7 14 8q20 9 33 9q29 0 47 -21t18 -47q0 -20 -10 -34q-11 -16 -22 -24q-29 -23 -73 -39t-106 -16q-54 0 -102 20q-47 20 -81 55q-34 36 -54 84q-19 47 -19 107q0 54 20 105q20 50 54 86
q35 36 81 57t102 21q55 0 97 -19q44 -20 74 -51q31 -32 47 -72q17 -42 17 -84q0 -36 -12 -60t-50 -24h-273zM287 385l1 -2q-40 0 -66 -21q-25 -20 -34 -62h187q0 15 -6 30q-6 16 -16 27q-11 13 -27 20q-18 8 -39 8zM253 605l-1 -4q0 21 12 31q11 12 27 17q31 7 44 17
q13 9 13 25q0 13 -9 22q-10 10 -31 10q-14 0 -25 -8q-12 -7 -22 -19q-11 -13 -16 -16q-8 -5 -25 -5q-20 0 -30 12q-11 12 -11 31t7 32q12 16 13 18q17 19 45 32q27 12 69 12q31 0 53 -7t40 -22q17 -13 28 -36q10 -21 10 -52q0 -47 -27 -71q-24 -26 -76 -43v-3q0 -20 -11 -30
q-12 -13 -33 -13q-18 0 -33 13q-11 13 -11 30v27z" />
    </font>
</defs>
</svg>
